<svg width="24" height="25" viewBox="0 0 24 25" fill="none" xmlns="http://www.w3.org/2000/svg">
<path d="M13 17C13 17.5523 12.5523 18 12 18C11.4477 18 11 17.5523 11 17C11 16.4477 11.4477 16 12 16C12.5523 16 13 16.4477 13 17Z" fill="#FF7F73"/>
<path d="M11 7V14.5H13V7H11Z" fill="#FF7F73"/>
<path fill-rule="evenodd" clip-rule="evenodd" d="M12 21.5C16.9706 21.5 21 17.4706 21 12.5C21 7.52944 16.9706 3.5 12 3.5C7.02944 3.5 3 7.52944 3 12.5C3 17.4706 7.02944 21.5 12 21.5ZM12 20C16.1421 20 19.5 16.6421 19.5 12.5C19.5 8.35786 16.1421 5 12 5C7.85786 5 4.5 8.35786 4.5 12.5C4.5 16.6421 7.85786 20 12 20Z" fill="#FF7F73"/>
</svg>
