<svg width="60" height="57" viewBox="0 0 60 57" fill="none" xmlns="http://www.w3.org/2000/svg">
<path d="M19.8007 6.388C20.3421 6.15758 20.8752 5.90488 21.4264 5.69994C23.7443 4.83972 26.1489 4.37768 28.6112 4.24477C31.4295 4.09267 34.1977 4.43231 36.9016 5.25195C39.8837 6.15595 42.5997 7.5769 45.0476 9.5088C47.1689 11.1831 48.9632 13.1594 50.4398 15.4245C50.5394 15.5774 50.6962 15.7148 50.5642 15.9483C50.5103 16.0438 50.5631 16.2005 50.5678 16.3558C50.7081 16.327 50.8239 16.3033 50.9802 16.271C51.3239 16.9149 51.6712 17.5639 52.0366 18.2487C51.6949 18.2968 51.4078 18.352 51.1191 18.3674C51.0444 18.3716 50.9353 18.2687 50.8891 18.1877C50.4294 17.3801 50.0174 16.5424 49.5155 15.763C49.0851 15.0948 48.5717 14.477 48.0665 13.8605C45.6804 10.9476 42.7604 8.73232 39.3226 7.20763C36.6227 6.01076 33.7947 5.35545 30.8436 5.22786C29.2237 5.15777 27.6204 5.28711 26.0167 5.51082C24.9505 5.65954 23.9185 5.93778 22.9024 6.25952C21.8846 6.58205 20.877 6.96088 19.9098 7.41234C18.9352 7.86769 17.997 8.41167 17.0766 8.97202C15.8383 9.72678 14.7249 10.6509 13.6626 11.6393C12.957 12.2957 12.3102 13.0057 11.7062 13.7524C11.5031 14.0039 11.3203 14.1319 11.0101 13.9943C10.9615 13.9726 10.9019 13.9747 10.833 13.9638C10.6808 14.2075 10.8313 14.4384 10.8443 14.6692C10.8479 14.735 10.8566 14.8172 10.8234 14.8653C10.5235 15.3087 10.2148 15.7459 9.89169 16.2103C9.683 16.0402 9.49857 16.1564 9.40828 16.3337C9.3653 16.4175 9.49443 16.5897 9.565 16.7712C8.77763 18.1125 8.05696 19.5712 7.56454 21.1283C7.25065 22.1212 7.00732 23.1373 6.73933 24.1444C6.69571 24.3088 6.59132 24.3818 6.47712 24.4945C6.22325 24.7456 5.92033 24.6396 5.60518 24.7833C5.69951 24.302 5.77475 23.8633 5.8729 23.4294C6.61637 20.1481 7.96819 17.1414 9.93274 14.4121C11.3489 12.444 13.0217 10.7268 14.9416 9.25096C15.044 9.17198 15.157 9.09495 15.2778 9.05339C15.515 8.97204 15.7884 8.95304 15.8214 8.61575C15.8243 8.5839 15.89 8.55637 15.9285 8.52982C17.108 7.72216 18.3474 7.02039 19.6466 6.42395C19.697 6.40086 19.7544 6.39164 19.8081 6.37609C19.7979 6.4004 19.7846 6.42398 19.778 6.44949C19.7542 6.53628 19.7328 6.62331 19.7103 6.7105C19.7967 6.72064 19.901 6.76541 19.9655 6.73292C20.0586 6.68553 20.1227 6.58108 20.1993 6.50115C20.139 6.44961 20.0852 6.37544 20.016 6.35373C19.9529 6.3346 19.8723 6.37393 19.7993 6.38647L19.8007 6.388ZM17.0557 8.71775C17.2471 8.50565 17.4418 8.29595 17.6211 8.07413C17.6318 8.06119 17.5274 7.90212 17.4611 7.88915C17.2746 7.85249 16.8185 8.17838 16.7562 8.36432C16.684 8.58081 16.7766 8.69639 17.0557 8.71775ZM21.5869 6.13978C21.9077 6.30845 22.2075 6.28688 22.3829 6.05304C22.4468 5.96804 22.4707 5.80122 22.4311 5.70618C22.4039 5.64256 22.2283 5.60265 22.1276 5.61624C21.8405 5.65545 21.6824 5.85772 21.5869 6.13978ZM6.26561 23.1679C6.57003 23.244 6.77876 23.1546 6.78545 22.9222C6.78843 22.8297 6.68146 22.6813 6.59206 22.6499C6.44567 22.5984 6.27963 22.8698 6.26561 23.1679ZM27.3848 5.0756C27.4597 4.95533 27.5287 4.88218 27.5454 4.7981C27.5514 4.76754 27.4141 4.66338 27.3729 4.67832C27.2914 4.70749 27.2315 4.7965 27.1629 4.86044C27.223 4.91886 27.2831 4.97729 27.3848 5.0756Z" fill="#AFAFAF"/>
<path d="M25.5372 53.0349C25.6586 52.9127 25.7543 52.8346 25.8262 52.7376C25.877 52.6693 25.8942 52.5766 25.9267 52.4949C25.8267 52.4569 25.7121 52.3679 25.6298 52.3914C25.4742 52.4367 25.3135 52.5228 25.197 52.6352C24.9574 52.8661 24.7172 52.8981 24.3917 52.8221C21.2523 52.0894 18.3625 50.7998 15.7259 48.9453C14.1817 47.8592 12.7774 46.6122 11.5245 45.1965C11.5001 45.1691 11.4797 45.1376 11.4699 45.1247C11.7241 44.9244 11.9732 44.7288 12.2063 44.5445C12.8933 45.2047 13.5912 45.9297 14.3455 46.5895C17.7333 49.5525 21.6539 51.3962 26.09 52.1353C26.3768 52.183 26.6678 52.2084 26.9538 52.2591C27.1251 52.2893 27.3285 52.2264 27.4006 52.5163C27.4376 52.666 27.6453 52.602 27.7816 52.4959C27.8628 52.4325 27.9801 52.3709 28.0768 52.3773C29.9127 52.5027 31.7381 52.4279 33.5569 52.1477C33.6662 52.1306 33.7944 52.1863 33.9045 52.2308C34.0913 52.3063 34.2426 52.3194 34.3375 52.098C34.3577 52.0511 34.417 52.0022 34.4671 51.9894C34.9954 51.8563 35.5257 51.7298 36.0556 51.6044C36.108 51.5919 36.1771 51.5805 36.2186 51.6038C36.3878 51.7 36.4695 51.6194 36.596 51.501C36.7165 51.3886 36.9118 51.3497 37.0793 51.2959C39.7737 50.4359 42.2269 49.1223 44.4426 47.3647C47.5286 44.9168 49.8534 41.8773 51.4465 38.2743C51.6326 37.8532 51.7962 37.4227 51.979 36.9746C52.1969 37.06 52.3752 36.9812 52.4099 36.7534C52.425 36.6535 52.2973 36.532 52.2275 36.4087C52.482 35.3589 52.7472 34.2545 53.023 33.1532C53.04 33.0868 53.1361 33.0081 53.2071 32.9936C53.4733 32.9402 53.7442 32.9118 54.0759 32.8652C53.9734 33.39 53.8779 33.879 53.7787 34.3867C53.6206 34.3615 53.4864 34.3404 53.3259 34.3144C53.269 34.6116 53.2811 34.8682 53.4657 35.1103C53.5147 35.1749 53.5357 35.2954 53.5139 35.3756C52.8936 37.6502 51.9569 39.7881 50.716 41.7898C49.0775 44.4327 47.0145 46.6889 44.5267 48.5515C42.4733 50.0884 40.2449 51.3053 37.8012 52.0861C36.578 52.4769 35.3158 52.7446 34.0708 53.0654C33.9717 53.0908 33.8674 53.0957 33.7685 53.1096C33.5889 52.7205 33.5298 52.7219 33.2002 53.0066C33.0614 53.1267 32.8736 53.2394 32.6973 53.259C30.3513 53.5254 28.0107 53.4817 25.6816 53.0723C25.6477 53.0662 25.6147 53.0549 25.5359 53.0339L25.5372 53.0349ZM48.791 43.5264C49.1189 43.5952 49.3069 43.5122 49.311 43.2693C49.3126 43.1754 49.203 43.0284 49.1117 42.9955C48.9724 42.946 48.7977 43.2414 48.791 43.5264ZM50.5428 40.4521C50.4431 40.6599 50.3676 40.7797 50.3341 40.9107C50.325 40.9474 50.4856 41.0677 50.4918 41.0628C50.6099 40.9577 50.7222 40.8436 50.8168 40.7177C50.824 40.7081 50.6879 40.5917 50.5429 40.4527L50.5428 40.4521ZM24.0583 51.9836C23.8394 52.0132 23.6507 52.0621 23.628 52.3065C23.6259 52.3279 23.8114 52.4064 23.8951 52.3889C24.0977 52.3456 24.2116 52.2261 24.0583 51.9836ZM39.9291 50.5072L39.9719 50.6452C40.1053 50.6408 40.2392 50.6362 40.3727 50.6318L40.3526 50.2173C40.3219 50.2057 40.2907 50.1946 40.26 50.1829C40.1497 50.291 40.0393 50.3986 39.929 50.5067L39.9291 50.5072Z" fill="#AFAFAF"/>
<path d="M15.9461 39.2314L15.8096 38.2601C15.9157 38.24 16.0128 38.2166 16.1113 38.2028C25.9496 36.8193 35.7888 35.4374 45.6262 34.0472C45.9075 34.0077 45.9782 34.0892 46.0069 34.3498C46.0773 34.9926 46.0895 34.9943 45.4491 35.0843C37.2511 36.2367 29.0534 37.3878 20.8553 38.5396C19.3385 38.7528 17.8219 38.9672 16.3052 39.1809C16.1956 39.1963 16.0859 39.2118 15.9461 39.2314ZM26.293 37.741C26.6362 37.3824 26.6503 37.2478 26.39 36.9375C26.0128 37.1591 25.9714 37.4575 26.293 37.741ZM20.7971 38.3243C20.9712 38.1993 21.2206 38.1516 21.1378 37.8792C21.1229 37.8299 20.8881 37.7828 20.816 37.8296C20.6377 37.9449 20.6183 38.1231 20.7971 38.3243ZM23.4174 37.6805C23.449 37.6858 23.4804 37.6905 23.512 37.6958C23.5373 37.6122 23.6084 37.4971 23.577 37.4523C23.5299 37.3846 23.4126 37.3657 23.3249 37.3266C23.3082 37.3495 23.2915 37.3724 23.2753 37.3958C23.3229 37.4909 23.3699 37.5855 23.4174 37.6805Z" fill="#AFAFAF"/>
<path d="M43.8979 19.3812L13.7674 23.6165L13.6348 22.6726C13.7326 22.6543 13.838 22.6297 13.9449 22.6147C21.1028 21.6097 28.2614 20.6058 35.4192 19.6002C38.0904 19.2247 40.7623 18.8503 43.4318 18.4631C43.7057 18.4234 43.8052 18.4946 43.815 18.763C43.8219 18.9581 43.8656 19.152 43.8979 19.3812ZM35.4099 20.1022C35.5191 19.9657 35.5903 19.8757 35.6621 19.7861C35.5908 19.7413 35.4984 19.6439 35.4514 19.6625C35.3449 19.7044 35.2601 19.8032 35.1669 19.8786C35.2318 19.9386 35.2967 19.9987 35.4095 20.1028L35.4099 20.1022Z" fill="#AFAFAF"/>
<path d="M48.3247 39.0869L48.3825 39.4983C48.454 39.5037 48.5249 39.5092 48.6097 39.5161C48.5993 39.5519 48.5955 39.5896 48.5785 39.6188C47.8393 40.9133 46.9713 42.115 45.9818 43.2275C44.978 44.3557 43.8741 45.3762 42.6553 46.2694C42.4583 46.4137 42.2606 46.5569 42.0563 46.6902C41.888 46.7996 41.7516 46.9691 41.4872 46.8571C41.3938 46.8177 41.1676 46.9449 41.0818 47.057C40.4008 47.9541 39.3524 48.2449 38.4078 48.7029C38.144 48.8308 37.8418 48.8762 37.5651 48.9808C37.1665 49.1317 36.7836 49.329 36.3788 49.4596C34.8441 49.9554 33.2718 50.2765 31.6621 50.393C31.0032 50.4404 30.3415 50.4763 29.6809 50.4709C28.9962 50.4648 28.3095 50.4281 27.6289 50.3575C26.9576 50.2884 26.2874 50.1831 25.6255 50.0509C24.9637 49.9193 24.3036 49.7635 23.6573 49.568C20.9836 48.7601 18.5501 47.4869 16.3663 45.7374C15.0469 44.6803 13.8591 43.4926 12.8271 42.1516C12.7315 42.0273 12.6681 41.8562 12.6502 41.7003C12.6299 41.5232 12.5571 41.4396 12.4033 41.3675C12.269 41.3047 12.1221 41.2133 12.0442 41.0934C11.6008 40.4098 11.1762 39.7139 10.741 39.0154C11.1944 38.8242 11.2407 38.8412 11.4438 39.195C13.979 43.6112 17.6114 46.7564 22.3531 48.591C25.9321 49.9758 29.6317 50.324 33.4059 49.6723C37.7697 48.9189 41.5379 46.9706 44.7017 43.8584C44.872 43.6904 45.087 43.5647 45.242 43.3852C45.6009 42.9684 45.9575 42.5467 46.2743 42.0981C46.9252 41.1778 47.5495 40.239 48.184 39.3073C48.2199 39.2543 48.2526 39.1988 48.3234 39.086L48.3247 39.0869Z" fill="#AFAFAF"/>
<path d="M34.1031 45.5212C33.5245 45.3076 33.0099 45.1319 32.5081 44.9258C32.249 44.8193 32.0485 44.8206 31.8184 45.0056C31.3879 45.3513 30.9311 45.6641 30.4274 46.0333C30.4318 45.788 30.431 45.6001 30.44 45.4125C30.4603 44.9804 30.4949 44.5491 30.5021 44.1172C30.5038 44.0278 30.4315 43.907 30.3564 43.8513C29.8946 43.5116 29.4224 43.187 28.9538 42.8562C28.9183 42.8309 28.8871 42.7993 28.8144 42.7363C29.4064 42.5742 29.9517 42.4084 30.5058 42.2802C30.7593 42.2217 30.8796 42.0996 30.9511 41.8535C31.1073 41.3132 31.2956 40.782 31.4888 40.1924C31.7601 40.5927 32.0084 40.9516 32.2488 41.315C32.663 41.941 32.661 41.939 33.4043 41.9197C33.8413 41.9085 34.279 41.9104 34.7825 41.9054C34.3861 42.3921 34.0379 42.8326 33.6742 43.2603C33.5167 43.446 33.4465 43.6044 33.5536 43.8591C33.7312 44.2829 33.8555 44.7289 34.0002 45.1664C34.032 45.2625 34.0572 45.3607 34.1036 45.5205L34.1031 45.5212ZM33.2137 43.2668C33.3238 43.133 33.3988 43.0413 33.4743 42.9495C33.3915 42.904 33.2933 42.8058 33.2304 42.8255C33.132 42.8553 33.0578 42.9646 32.9732 43.0405C33.0395 43.1026 33.1053 43.1648 33.2144 43.2672L33.2137 43.2668Z" fill="#AFAFAF"/>
<path d="M27.4418 11.4708C27.8001 11.9909 28.137 12.4688 28.4614 12.9553C28.5639 13.1084 28.6643 13.1857 28.8674 13.1777C29.4642 13.155 30.0623 13.1658 30.7326 13.163C30.3721 13.6132 30.0767 14.0354 29.7252 14.4038C29.4597 14.6817 29.4215 14.9254 29.5663 15.2737C29.7601 15.7398 29.8952 16.2306 30.0774 16.776C29.6441 16.6191 29.2481 16.5245 28.9014 16.3383C28.3334 16.034 27.8686 16.0788 27.4002 16.5362C27.1213 16.8086 26.7679 17.0046 26.4471 17.2343C26.4409 17.2386 26.4291 17.2357 26.3805 17.2391C26.4007 16.7538 26.3812 16.2656 26.4514 15.791C26.5168 15.3474 26.3813 15.0813 25.9989 14.8641C25.6245 14.6515 25.2854 14.3768 24.9321 14.1276C24.8903 14.098 24.8566 14.057 24.7848 13.9888C25.2911 13.8491 25.7518 13.69 26.2261 13.5993C26.6488 13.5187 26.8891 13.3375 26.984 12.8926C27.0856 12.4182 27.2777 11.9631 27.4406 11.4704L27.4418 11.4708ZM28.4551 14.4646C28.623 14.3849 28.7861 14.3077 28.893 14.2567C28.9846 14.365 29.0546 14.506 29.1097 14.5006C29.2183 14.4899 29.3428 14.4181 29.4165 14.3334C29.4764 14.2644 29.4884 14.1393 29.4886 14.0392C29.4889 13.9603 29.4532 13.8276 29.4069 13.8146C29.3363 13.7954 29.1971 13.8356 29.1685 13.8916C29.0796 14.067 28.9555 14.0484 28.7976 14.0369C28.51 14.015 28.4113 14.1449 28.4545 14.4646L28.4551 14.4646Z" fill="#AFAFAF"/>
<path d="M48.907 18.6679C48.4317 18.7839 48.4343 18.7824 48.2156 18.3987C48.0808 18.1622 47.9422 17.9268 47.7964 17.6969C47.66 17.4812 47.481 17.2788 47.7695 16.9451C47.261 17.0526 47.1633 16.7022 46.9767 16.4621C46.5499 15.9128 46.1206 15.3656 45.7242 14.8583C45.7416 14.7021 45.756 14.5732 45.7703 14.4437C45.6419 14.4349 45.5136 14.4266 45.3362 14.4144C44.815 13.9241 44.2554 13.3672 43.6639 12.8473C41.8021 11.2103 39.7109 9.94101 37.3905 9.07832C36.3904 8.70678 35.3469 8.45279 34.3208 8.15233C34.1448 8.10106 33.962 8.08674 34.0173 7.82291C34.0255 7.78403 33.9532 7.72789 33.9179 7.6797C33.8733 7.71912 33.8144 7.75083 33.7883 7.80023C33.7584 7.8553 33.7581 7.92622 33.7367 8.02982C33.4132 7.91525 33.0287 8.04074 32.8204 7.76366C32.6066 7.78001 32.4344 7.81335 32.2653 7.80283C31.407 7.75029 30.5494 7.68679 29.6952 7.62683C29.7248 7.49291 29.7585 7.343 29.7928 7.189C37.5488 7.02301 45.305 11.6438 48.907 18.6679Z" fill="#AFAFAF"/>
<path d="M34.7708 11.1723C35.0985 11.6572 35.3881 12.0703 35.6594 12.4952C35.7573 12.6483 35.8656 12.7085 36.0457 12.7038C36.5662 12.6901 37.0874 12.6934 37.6652 12.6899C37.3858 13.0395 37.153 13.3792 36.8704 13.6698C36.5765 13.9729 36.4807 14.2533 36.6771 14.6601C36.8507 15.0192 36.9373 15.4203 37.0839 15.8667C36.6328 15.7049 36.2195 15.5886 35.8356 15.4094C35.4786 15.243 35.2057 15.2699 34.9058 15.5338C34.5911 15.8112 34.2297 16.0358 33.8349 16.3228C33.8446 16.0065 33.8115 15.7339 33.8684 15.4819C34.034 14.7487 33.8094 14.2419 33.1138 13.9264C32.8725 13.8168 32.6712 13.6182 32.3977 13.4212C32.9278 13.2769 33.3997 13.1403 33.876 13.0236C34.1043 12.9675 34.2445 12.8735 34.3097 12.6232C34.43 12.1604 34.5972 11.7105 34.7714 11.1722L34.7708 11.1723ZM35.2385 14.6143C34.9883 14.7334 34.8403 14.9703 34.9507 15.0903C34.9998 15.1439 35.1644 15.1705 35.2136 15.131C35.4012 14.9806 35.3523 14.7949 35.2385 14.6143Z" fill="#AFAFAF"/>
<path d="M27.203 43.48C26.8435 43.9295 26.5388 44.3347 26.2055 44.7142C26.0623 44.8766 26.0635 45.0148 26.1278 45.1961C26.2923 45.6645 26.4464 46.1367 26.6239 46.665C26.2021 46.5122 25.8121 46.4116 25.4614 46.2334C25.0376 46.018 24.7108 46.0628 24.3614 46.3851C24.0691 46.6549 23.7176 46.8609 23.3582 47.12C23.3844 46.5922 23.4022 46.1056 23.4378 45.6205C23.4438 45.5413 23.5494 45.4728 23.5686 45.39C23.5979 45.2619 23.5924 45.1255 23.6017 44.9927C23.4971 44.9989 23.3923 45.0084 23.2876 45.01C23.2062 45.0112 23.1052 45.0311 23.0462 44.9925C22.6867 44.7561 22.3371 44.5046 21.9287 44.2202C22.3446 44.1034 22.702 43.9635 23.0724 43.9091C23.5804 43.8349 23.857 43.5908 23.9533 43.0788C24.0186 42.7319 24.1677 42.4006 24.2793 42.0625C24.2816 42.0547 24.2917 42.0493 24.3366 42.0036C24.5528 42.4344 24.9564 42.7252 25.0345 43.2441C25.0503 43.3487 25.3471 43.4722 25.5201 43.481C26.0616 43.5078 26.6059 43.4845 27.2035 43.4799L27.203 43.48Z" fill="#AFAFAF"/>
<path d="M36.4332 42.1705C37.0125 42.0107 37.5202 41.8816 38.0195 41.7251C38.1304 41.6907 38.2491 41.5774 38.2979 41.47C38.3986 41.2489 38.4341 40.9981 38.5342 40.7772C38.6339 40.5574 38.7806 40.359 38.9339 40.1065C39.2212 40.528 39.4636 40.9054 39.7323 41.2632C39.8011 41.3553 39.9503 41.4343 40.0648 41.4376C40.5887 41.452 41.1136 41.4377 41.7095 41.4328C41.3255 41.9103 40.9835 42.3379 40.6358 42.7612C40.6114 42.7909 40.5417 42.7984 40.4964 42.7922C40.1541 42.7466 40.0369 42.8951 40.1584 43.2444C40.3011 43.1803 40.4426 43.1158 40.603 43.0435C40.7766 43.565 40.9429 44.0623 41.1274 44.616C40.7134 44.4667 40.3231 44.3678 39.9735 44.1894C39.549 43.973 39.2182 44.0212 38.8679 44.3374C38.5779 44.5994 38.2372 44.805 37.9195 45.036C37.8908 45.0263 37.8615 45.0167 37.8328 45.007C37.8896 44.6772 37.9489 44.3483 38.0011 44.0174C38.011 43.9537 37.9991 43.8851 37.9871 43.8205C37.9745 43.7508 37.9225 43.6775 37.9356 43.6162C37.9991 43.3215 37.8723 43.1536 37.6262 43.0013C37.2365 42.7606 36.8723 42.4785 36.4337 42.1698L36.4332 42.1705Z" fill="#AFAFAF"/>
<path d="M11.2587 18.7209C11.2138 18.5843 11.1747 18.4641 11.1349 18.3433C11.0711 18.4495 11.0155 18.5613 10.9409 18.6593C10.8812 18.7374 10.7984 18.7976 10.6701 18.8265C10.7995 18.5865 10.9246 18.3443 11.059 18.1077C12.1173 16.2471 13.4224 14.5798 14.9691 13.1021C15.0907 12.9856 15.1977 12.9151 15.3815 12.9561C15.5981 13.0045 15.817 12.9875 15.9537 12.7139C15.8647 12.6533 15.7701 12.5888 15.6333 12.4955C19.5908 9.08994 24.1721 7.34742 29.3791 7.19622C29.1689 7.43781 29.0098 7.69738 28.6078 7.71844C25.3043 7.88787 22.2191 8.81938 19.349 10.458C17.2582 11.6515 15.4316 13.1709 13.8553 14.994C13.7665 15.0967 13.6255 15.1566 13.503 15.2269C13.3447 15.3178 13.1868 15.3954 13.2594 15.6321C13.275 15.6825 13.2248 15.7633 13.1874 15.8177C12.7262 16.493 12.2959 17.1931 11.7832 17.827C11.5554 18.1088 11.5283 18.4807 11.26 18.7219L11.2587 18.7209Z" fill="#AFAFAF"/>
<path d="M20.2709 13.2226C20.5909 13.6972 20.8787 14.0934 21.1302 14.5119C21.253 14.7158 21.4008 14.7573 21.6143 14.7502C22.1083 14.7345 22.6025 14.737 23.1658 14.7316C22.7896 15.1994 22.4516 15.619 22.1146 16.0379C21.7136 15.7696 21.5801 15.7815 21.2419 16.1429C21.0703 16.3259 20.921 16.5298 20.759 16.728C21.2501 16.9436 21.6064 16.8495 22.056 16.3714C22.1317 16.5854 22.2006 16.7797 22.2591 16.9441C22.1906 17.0498 22.14 17.1278 22.0894 17.2058C22.1596 17.2347 22.2325 17.2582 22.2986 17.2947C22.3413 17.3184 22.3913 17.3536 22.4075 17.3954C22.4642 17.5434 22.5079 17.6962 22.5786 17.9149C22.1485 17.7604 21.75 17.6598 21.3931 17.4785C20.9822 17.2694 20.6699 17.3361 20.3363 17.6288C20.0352 17.8929 19.6907 18.1076 19.3227 18.3748C19.3472 17.7981 19.3783 17.2685 19.3837 16.739C19.3847 16.6326 19.3154 16.4885 19.2311 16.4244C18.8575 16.1397 18.4661 15.8786 18.0818 15.6074C18.0317 15.5721 17.9865 15.5299 17.9077 15.465C18.4246 15.3237 18.8985 15.1817 19.3793 15.0678C19.6056 15.0143 19.7283 14.9136 19.7944 14.6814C19.9294 14.2051 20.1 13.7393 20.2705 13.2238L20.2709 13.2226Z" fill="#AFAFAF"/>
<path d="M11.7751 43.9881C11.5287 44.2074 11.2934 44.4165 11.0414 44.6399C9.71451 43.0592 8.59036 41.3259 7.66822 39.3904C8.00099 39.3436 8.30038 39.2947 8.60141 39.2655C8.65262 39.2606 8.73676 39.3277 8.76381 39.3822C9.58218 41.0419 10.6126 42.5626 11.7762 43.996C11.7817 44.0026 11.782 44.0134 11.7739 43.9877L11.7751 43.9881Z" fill="#AFAFAF"/>
<path d="M51.0357 33.3004C50.7768 34.1855 50.5436 35.0059 50.2949 35.8211C50.1905 36.1621 50.0612 36.4958 49.9239 36.8255C49.8731 36.9475 49.7646 37.0439 49.6892 37.1562C49.6443 37.2226 49.5754 37.3008 49.5809 37.3681C49.613 37.7591 49.454 38.0238 49.1384 38.2533C48.8766 38.4439 48.6692 38.7091 48.3807 38.9983C48.6301 38.4797 48.8519 38.033 49.0615 37.5805C49.6479 36.315 50.1015 35.0012 50.3965 33.6383C50.4751 33.2763 50.7174 33.3525 51.0363 33.3003L51.0357 33.3004Z" fill="#AFAFAF"/>
<path d="M10.4916 19.1718C10.684 19.5745 10.8239 19.2388 11.0406 19.1695C10.9275 19.4043 10.8312 19.6036 10.7362 19.8004C10.6298 19.7976 10.5319 19.7954 10.355 19.7905C10.6789 20.1514 10.445 20.4312 10.3313 20.7255C10.2024 21.0586 10.1256 21.4249 9.93511 21.7174C9.72311 22.0433 9.73644 22.4101 9.61747 22.7486C9.49375 23.1021 9.41338 23.4718 9.32319 23.8365C9.21094 24.2918 9.21557 24.2923 8.70192 24.3182C9.07515 22.5299 9.67072 20.8344 10.491 19.1713L10.4916 19.1718Z" fill="#AFAFAF"/>
<path d="M20.6285 30.1523L19.3956 30.3256L18.7324 25.6063L19.9654 25.433L20.6285 30.1523ZM21.566 28.1912L20.0283 28.4073L19.8857 27.3919L21.4233 27.1758L21.566 28.1912ZM14.5555 29.7782C15.5773 29.6345 16.3598 29.5065 16.9028 29.394C17.4458 29.2815 17.9661 29.136 18.4637 28.9576L18.737 29.9202C18.2178 30.1082 17.6707 30.2623 17.096 30.3826C16.5244 30.5024 15.7244 30.6345 14.6961 30.7791L13.9563 30.8831L13.8157 29.8822L14.5555 29.7782ZM17.4668 27.3374L14.7688 27.7167L15.1425 30.3761L13.9095 30.5494L13.3978 26.9084L17.3289 26.3559L17.4668 27.3374ZM16.2538 32.0394L19.5708 31.5731L19.4547 30.7463L20.6877 30.573L21.1877 34.1317L15.4096 34.9439L14.9095 31.3852L16.1377 31.2125L16.2538 32.0394ZM19.8168 33.3235L19.7061 32.5353L16.3891 33.0016L16.4998 33.7897L19.8168 33.3235ZM28.2629 26.8011L25.9951 27.1199L25.8545 26.119L28.1222 25.8002L28.2629 26.8011ZM28.57 28.6711L26.2588 28.996L26.1195 28.0048L28.4307 27.6799L28.57 28.6711ZM29.626 30.712L28.3978 30.8846L27.486 24.3956L28.7142 24.223L29.626 30.712ZM30.1169 32.8372L24.068 33.6874L23.928 32.6914L29.977 31.8411L30.1169 32.8372ZM25.255 33.0817L24.0075 33.2571L23.6746 30.8878L24.9221 30.7124L25.255 33.0817ZM23.1816 26.9582L24.9126 26.7149L24.7237 25.3707L25.9471 25.1987L26.583 29.7246L22.386 30.3145L21.75 25.7887L22.9927 25.614L23.1816 26.9582ZM25.2224 28.9198L25.0451 27.6578L23.3141 27.9011L23.4914 29.1631L25.2224 28.9198ZM38.7565 30.7796L30.7106 31.9106L30.5652 30.8758L38.6111 29.7448L38.7565 30.7796ZM35.2342 30.6978L34.0109 30.8697L33.6624 28.3892L34.8857 28.2173L35.2342 30.6978ZM37.2276 24.7767L30.4775 25.7256L30.3389 24.7392L37.089 23.7903L37.2276 24.7767ZM37.6774 28.2588L31.0096 29.196L30.8737 28.229L37.5415 27.2917L37.6774 28.2588ZM33.2986 28.0114L32.0656 28.1847L31.6688 25.3609L32.9018 25.1876L33.2986 28.0114ZM36.3594 27.5811L35.1457 27.7517L34.7489 24.9279L35.9626 24.7573L36.3594 27.5811ZM46.5518 30.6799L45.2995 30.8559L44.0615 22.046L45.3139 21.8699L46.5518 30.6799ZM42.8091 23.1687C42.9418 24.1132 42.935 24.9886 42.7886 25.7948C42.6449 26.5974 42.317 27.3634 41.8048 28.0928C41.2922 28.819 40.5635 29.4934 39.6188 30.116L38.8323 29.2207C39.6239 28.7018 40.2409 28.1565 40.6832 27.5848C41.1255 27.0131 41.419 26.3999 41.5637 25.7451C41.7084 25.0903 41.7243 24.3616 41.6115 23.559L41.5809 23.3414L42.8091 23.1687ZM42.2832 24.2337L38.681 24.7401L38.5444 23.7682L42.1467 23.2618L42.2832 24.2337Z" fill="#AFAFAF"/>
</svg>
