<svg width="452" height="25" viewBox="0 0 452 25" fill="none" xmlns="http://www.w3.org/2000/svg">
<path fill-rule="evenodd" clip-rule="evenodd" d="M7.53033 7.17475C7.23744 6.88185 6.76256 6.88185 6.46967 7.17475C6.17678 7.46764 6.17678 7.94251 6.46967 8.23541L10.9393 12.7051L6.46967 17.1747C6.17678 17.4676 6.17678 17.9425 6.46967 18.2354C6.76256 18.5283 7.23744 18.5283 7.53033 18.2354L12 13.7657L16.4697 18.2354C16.7626 18.5283 17.2374 18.5283 17.5303 18.2354C17.8232 17.9425 17.8232 17.4676 17.5303 17.1747L13.0607 12.7051L17.5303 8.23541C17.8232 7.94251 17.8232 7.46764 17.5303 7.17475C17.2374 6.88185 16.7626 6.88185 16.4697 7.17475L12 11.6444L7.53033 7.17475Z" fill="black"/>
</svg>
