<svg width="400" height="158" viewBox="0 0 400 158" fill="none" xmlns="http://www.w3.org/2000/svg">
<path d="M3.7998 56.6948H44.5998V56.7072C44.6653 56.699 44.7321 56.6948 44.7998 56.6948C45.6835 56.6948 46.3998 57.4112 46.3998 58.2948C46.3998 59.1785 45.6835 59.8948 44.7998 59.8948C44.7321 59.8948 44.6653 59.8906 44.5998 59.8824V63.0948H76.3998L72.3998 70.0948L76.3998 77.0948H37.9998C37.1161 77.0948 36.3998 76.3785 36.3998 75.4948V70.6948H3.7998L7.7998 63.6948L3.7998 56.6948Z" fill="#E6EFFF"/>
<path fill-rule="evenodd" clip-rule="evenodd" d="M46.3998 58.2948V63.0948H37.9998C37.1161 63.0948 36.3998 62.3785 36.3998 61.4948C36.3998 60.6112 37.1161 59.8948 37.9998 59.8948H44.7998C45.6835 59.8948 46.3998 59.1785 46.3998 58.2948Z" fill="#C3DAFF"/>
<path d="M31.5407 60.7073H32.947V66.3323H35.8673V67.4948H31.5407V60.7073Z" fill="#C3DAFF"/>
<path d="M26.5401 60.7073H27.9464V66.3323H30.8667V67.4948H26.5401V60.7073Z" fill="#C3DAFF"/>
<path d="M21.127 60.7073H25.6832V61.8698H22.5332V63.5198H25.4442V64.6776H22.5332V66.3323H25.6926V67.4948H21.127V60.7073Z" fill="#C3DAFF"/>
<path d="M11.3545 60.7073H12.8873L14.0264 65.4511H14.0873L15.3295 60.7073H16.6607L17.9076 65.4651H17.9639L19.1029 60.7073H20.6357L18.6998 67.4948H17.317L16.0232 63.0136H15.9717L14.6732 67.4948H13.2951L11.3545 60.7073Z" fill="#C3DAFF"/>
<path d="M62.9064 67.1073H67.4626V68.2698H64.3126V69.9198H67.2236V71.0776H64.3126V72.7323H67.472V73.8948H62.9064V67.1073Z" fill="#C3DAFF"/>
<path d="M56.4057 67.1073L58.2948 71.7058H58.3745L60.2589 67.1073H61.9979V73.8948H60.6292V69.4464H60.5729L58.8011 73.862H57.8589L56.0917 69.437H56.0354V73.8948H54.6714V67.1073H56.4057Z" fill="#C3DAFF"/>
<path d="M53.8895 70.5011C53.8895 71.2198 53.752 71.8433 53.477 72.3714C53.2051 72.8964 52.8286 73.2979 52.3473 73.5761C51.8692 73.8511 51.327 73.9886 50.7207 73.9886C50.1145 73.9886 49.5707 73.8511 49.0895 73.5761C48.6114 73.2979 48.2348 72.8948 47.9598 72.3667C47.6879 71.8386 47.552 71.2167 47.552 70.5011C47.552 69.7761 47.6879 69.1511 47.9598 68.6261C48.2348 68.1011 48.6114 67.7011 49.0895 67.4261C49.5707 67.1511 50.1145 67.0136 50.7207 67.0136C51.327 67.0136 51.8692 67.1511 52.3473 67.4261C52.8286 67.7011 53.2051 68.1011 53.477 68.6261C53.752 69.1511 53.8895 69.7761 53.8895 70.5011ZM52.4645 70.5011C52.4645 70.0229 52.3926 69.6167 52.2489 69.2823C52.1082 68.9479 51.9067 68.6948 51.6442 68.5229C51.3848 68.3479 51.077 68.2604 50.7207 68.2604C50.3676 68.2604 50.0598 68.3479 49.7973 68.5229C49.5379 68.6948 49.3364 68.9479 49.1926 69.2823C49.0489 69.6167 48.977 70.0229 48.977 70.5011C48.977 70.9792 49.0489 71.3854 49.1926 71.7198C49.3364 72.0542 49.5379 72.3089 49.7973 72.4839C50.0598 72.6558 50.3676 72.7417 50.7207 72.7417C51.077 72.7417 51.3848 72.6558 51.6442 72.4839C51.9067 72.3089 52.1082 72.0542 52.2489 71.7198C52.3926 71.3854 52.4645 70.9792 52.4645 70.5011Z" fill="#C3DAFF"/>
<path d="M45.5092 69.4745C45.4748 69.2245 45.3904 69.0089 45.2561 68.8276C45.1248 68.6433 44.9529 68.5026 44.7404 68.4058C44.5279 68.3089 44.292 68.2604 44.0326 68.2604C43.6795 68.2604 43.3701 68.3495 43.1045 68.5276C42.842 68.7026 42.6373 68.9589 42.4904 69.2964C42.3436 69.6308 42.2701 70.0323 42.2701 70.5011C42.2701 70.9823 42.3436 71.3901 42.4904 71.7245C42.6373 72.0558 42.842 72.3089 43.1045 72.4839C43.3701 72.6558 43.6748 72.7417 44.0186 72.7417C44.2779 72.7417 44.5107 72.6948 44.717 72.6011C44.9264 72.5073 45.0998 72.3745 45.2373 72.2026C45.3748 72.0276 45.4654 71.8198 45.5092 71.5792L46.9389 71.5933C46.8857 72.0183 46.7326 72.4136 46.4795 72.7792C46.2295 73.1448 45.892 73.4386 45.467 73.6604C45.042 73.8792 44.5529 73.9886 43.9998 73.9886C43.3936 73.9886 42.8514 73.8511 42.3732 73.5761C41.8951 73.2979 41.5201 72.8964 41.2482 72.3714C40.9795 71.8433 40.8451 71.2198 40.8451 70.5011C40.8451 69.7761 40.9811 69.1511 41.2529 68.6261C41.5279 68.1011 41.9029 67.7011 42.3779 67.4261C42.8561 67.1511 43.3967 67.0136 43.9998 67.0136C44.5217 67.0136 44.9936 67.1104 45.4154 67.3042C45.8373 67.4979 46.1795 67.7808 46.442 68.1526C46.7076 68.5214 46.8732 68.962 46.9389 69.4745H45.5092Z" fill="#C3DAFF"/>
<path d="M31.4988 118.864C31.5081 118.44 31.8588 118.105 32.2821 118.114L40.7134 118.299C41.1367 118.308 41.4723 118.659 41.463 119.082C41.4537 119.506 41.103 119.841 40.6797 119.832L32.2484 119.647C31.8251 119.638 31.4895 119.287 31.4988 118.864Z" fill="#F84883"/>
<path d="M35.1934 111.264C35.1029 110.85 35.3649 110.442 35.7785 110.351C36.1922 110.261 36.6008 110.523 36.6913 110.936L38.3296 118.426C38.4201 118.84 38.1581 119.248 37.7445 119.339C37.3308 119.429 36.9222 119.167 36.8317 118.754L35.1934 111.264Z" fill="#F84883"/>
<path d="M30.7021 105.237C32.6591 103.395 32.5168 100.241 30.5018 98.4632C29.433 97.5199 28.3286 96.4935 27.4492 95.559C26.8817 94.9561 26.2661 94.2407 25.6519 93.493C23.2911 90.619 18.9721 90.1666 16.2636 92.7156C13.7513 95.0801 13.6766 99.0696 16.3079 101.301C17.3546 102.189 18.4503 103.056 19.4458 103.723C21.3996 105.033 24.8816 105.881 27.1064 106.319C28.4092 106.575 29.7352 106.147 30.7021 105.237Z" fill="#72A6FF"/>
<path d="M50.5476 104.61C48.4825 102.89 48.4332 99.7339 50.3366 97.8366C51.3462 96.8303 52.3862 95.7387 53.2074 94.7527C53.7372 94.1164 54.3083 93.365 54.876 92.5814C57.0581 89.5695 61.3417 88.8558 64.1998 91.2359C66.851 93.4435 67.1675 97.4212 64.6765 99.808C63.6856 100.758 62.6445 101.69 61.6913 102.416C59.8205 103.842 56.3965 104.9 54.2023 105.472C52.9175 105.807 51.5679 105.459 50.5476 104.61Z" fill="#72A6FF"/>
<path d="M23.7387 87.6404C24.7263 79.7582 31.3078 73.7698 39.2479 73.5287C47.1881 73.2876 54.1208 78.8657 55.5848 86.6735L57.6177 97.5156C59.882 106.942 52.911 116.067 43.2213 116.361L37.8805 116.523C28.1908 116.817 20.6791 108.132 22.3673 98.5858L23.7387 87.6404Z" fill="#85B2FF"/>
<path fill-rule="evenodd" clip-rule="evenodd" d="M48.125 108.024C48.1041 107.601 47.7443 107.275 47.3214 107.296C46.8985 107.317 46.5726 107.677 46.5936 108.1L46.8698 113.681L44.2121 109.415C43.9882 109.056 43.5153 108.946 43.1559 109.17C42.7966 109.394 42.6867 109.867 42.9106 110.226L46.9648 116.733C47.1887 117.093 47.6615 117.203 48.0209 116.979C48.1396 116.905 48.2311 116.803 48.2923 116.688C48.3105 116.66 48.3271 116.63 48.3418 116.599L51.5976 109.658C51.7774 109.274 51.6124 108.818 51.2291 108.638C50.8457 108.458 50.3892 108.623 50.2094 109.007L48.3679 112.932L48.125 108.024Z" fill="#F84883"/>
<path d="M36.9937 98.1859C37.4815 99.8078 39.2115 100.721 40.8334 100.233C42.4553 99.7457 43.3944 98.0295 42.9066 96.4076C42.4188 94.7857 40.6888 93.8723 39.0669 94.3601C37.445 94.8479 36.5059 96.564 36.9937 98.1859Z" fill="#C4F752"/>
<path d="M43.2475 94.4539C43.1972 92.7978 41.8139 91.496 40.1578 91.5463L36.9593 91.6434C35.3032 91.6937 34.0014 93.077 34.0517 94.7331C34.102 96.3892 35.4853 97.691 37.1414 97.6407L40.3399 97.5436C41.996 97.4933 43.2978 96.11 43.2475 94.4539Z" fill="#EAFFBA"/>
<path d="M42.4673 88.3113C42.4454 87.5919 43.011 86.9909 43.7305 86.969C44.4499 86.9472 45.0509 87.5127 45.0728 88.2322L45.0867 88.692C45.1086 89.4115 44.543 90.0125 43.8235 90.0343C43.1041 90.0561 42.5031 89.4906 42.4812 88.7711L42.4673 88.3113Z" fill="black"/>
<path d="M32.0456 88.6277C32.0238 87.9083 32.5893 87.3073 33.3088 87.2855C34.0283 87.2636 34.6292 87.8292 34.6511 88.5486L34.665 89.0084C34.6869 89.7279 34.1213 90.3289 33.4018 90.3507C32.6824 90.3725 32.0814 89.807 32.0596 89.0875L32.0456 88.6277Z" fill="black"/>
<path d="M34.6303 88.1957C34.637 88.4165 34.4635 88.6009 34.2426 88.6076C34.0218 88.6143 33.8374 88.4408 33.8307 88.2199C33.824 87.9991 33.9976 87.8147 34.2184 87.808C34.4392 87.8013 34.6236 87.9748 34.6303 88.1957Z" fill="white"/>
<path d="M45.0256 87.88C45.0323 88.1008 44.8588 88.2853 44.638 88.292C44.4171 88.2987 44.2327 88.1251 44.226 87.9043C44.2193 87.6835 44.3929 87.4991 44.6137 87.4924C44.8345 87.4857 45.0189 87.6592 45.0256 87.88Z" fill="white"/>
<rect y="122.295" width="80" height="6" fill="#FFE6E8"/>
<path d="M29.2227 146.225H30.2969V152.372H33.4951V153.295H29.2227V146.225ZM36.2139 153.295H35.0957L33.1719 147.992H34.2949L35.6279 152.069H35.6865L37.0244 147.992H38.1475L36.2139 153.295ZM39.1035 153.363C38.9798 153.363 38.8643 153.331 38.7568 153.266C38.6494 153.201 38.5648 153.116 38.5029 153.012C38.4443 152.904 38.415 152.789 38.415 152.665C38.415 152.545 38.4443 152.431 38.5029 152.323C38.5648 152.216 38.6494 152.133 38.7568 152.074C38.8643 152.012 38.9798 151.981 39.1035 151.981C39.224 151.981 39.3379 152.012 39.4453 152.074C39.5527 152.133 39.6374 152.216 39.6992 152.323C39.7611 152.431 39.792 152.545 39.792 152.665C39.792 152.789 39.7611 152.904 39.6992 153.012C39.6374 153.116 39.5527 153.201 39.4453 153.266C39.3379 153.331 39.224 153.363 39.1035 153.363Z" fill="#0050D8"/>
<path d="M46.8203 151.432C46.0592 151.432 45.4076 151.233 44.8652 150.837C44.3229 150.44 43.9082 149.862 43.6211 149.101C43.334 148.34 43.1904 147.421 43.1904 146.346C43.1904 145.279 43.334 144.366 43.6211 143.604C43.9082 142.843 44.3252 142.262 44.8721 141.861C45.4189 141.46 46.0684 141.26 46.8203 141.26C47.5723 141.26 48.2217 141.46 48.7686 141.861C49.3154 142.262 49.7324 142.843 50.0195 143.604C50.3066 144.366 50.4502 145.279 50.4502 146.346C50.4502 147.421 50.3066 148.34 50.0195 149.101C49.737 149.862 49.3223 150.44 48.7754 150.837C48.2331 151.233 47.5814 151.432 46.8203 151.432ZM46.8203 150.14C47.2624 150.14 47.6429 149.994 47.9619 149.702C48.2855 149.41 48.5316 148.982 48.7002 148.417C48.8688 147.847 48.9508 147.157 48.9463 146.346C48.9463 145.535 48.862 144.844 48.6934 144.274C48.5247 143.705 48.2809 143.272 47.9619 142.976C47.6429 142.679 47.2624 142.531 46.8203 142.531C46.3783 142.531 45.9977 142.679 45.6787 142.976C45.3597 143.272 45.1136 143.705 44.9404 144.274C44.7673 144.844 44.6807 145.535 44.6807 146.346C44.6807 147.157 44.765 147.847 44.9336 148.417C45.1022 148.982 45.3483 149.41 45.6719 149.702C45.9954 149.994 46.3783 150.14 46.8203 150.14Z" fill="black"/>
<path d="M83.7998 44.6948H124.6V44.7072C124.665 44.699 124.732 44.6948 124.8 44.6948C125.683 44.6948 126.4 45.4112 126.4 46.2948C126.4 47.1785 125.683 47.8948 124.8 47.8948C124.732 47.8948 124.665 47.8906 124.6 47.8824V51.0948H156.4L152.4 58.0948L156.4 65.0948H118C117.116 65.0948 116.4 64.3785 116.4 63.4948V58.6948H83.7998L87.7998 51.6948L83.7998 44.6948Z" fill="#E6EFFF"/>
<path fill-rule="evenodd" clip-rule="evenodd" d="M126.4 46.2948V51.0948H118C117.116 51.0948 116.4 50.3785 116.4 49.4948C116.4 48.6112 117.116 47.8948 118 47.8948H124.8C125.683 47.8948 126.4 47.1785 126.4 46.2948Z" fill="#C3DAFF"/>
<path d="M111.541 48.7073H112.947V54.3323H115.867V55.4948H111.541V48.7073Z" fill="#C3DAFF"/>
<path d="M106.54 48.7073H107.946V54.3323H110.867V55.4948H106.54V48.7073Z" fill="#C3DAFF"/>
<path d="M101.127 48.7073H105.683V49.8698H102.533V51.5198H105.444V52.6776H102.533V54.3323H105.693V55.4948H101.127V48.7073Z" fill="#C3DAFF"/>
<path d="M91.3545 48.7073H92.8873L94.0264 53.4511H94.0873L95.3295 48.7073H96.6607L97.9076 53.4651H97.9639L99.1029 48.7073H100.636L98.6998 55.4948H97.317L96.0232 51.0136H95.9717L94.6732 55.4948H93.2951L91.3545 48.7073Z" fill="#C3DAFF"/>
<path d="M142.906 55.1073H147.463V56.2698H144.313V57.9198H147.224V59.0776H144.313V60.7323H147.472V61.8948H142.906V55.1073Z" fill="#C3DAFF"/>
<path d="M136.406 55.1073L138.295 59.7058H138.374L140.259 55.1073H141.998V61.8948H140.629V57.4464H140.573L138.801 61.862H137.859L136.092 57.437H136.035V61.8948H134.671V55.1073H136.406Z" fill="#C3DAFF"/>
<path d="M133.889 58.5011C133.889 59.2198 133.752 59.8433 133.477 60.3714C133.205 60.8964 132.829 61.2979 132.347 61.5761C131.869 61.8511 131.327 61.9886 130.721 61.9886C130.114 61.9886 129.571 61.8511 129.089 61.5761C128.611 61.2979 128.235 60.8948 127.96 60.3667C127.688 59.8386 127.552 59.2167 127.552 58.5011C127.552 57.7761 127.688 57.1511 127.96 56.6261C128.235 56.1011 128.611 55.7011 129.089 55.4261C129.571 55.1511 130.114 55.0136 130.721 55.0136C131.327 55.0136 131.869 55.1511 132.347 55.4261C132.829 55.7011 133.205 56.1011 133.477 56.6261C133.752 57.1511 133.889 57.7761 133.889 58.5011ZM132.464 58.5011C132.464 58.0229 132.393 57.6167 132.249 57.2823C132.108 56.9479 131.907 56.6948 131.644 56.5229C131.385 56.3479 131.077 56.2604 130.721 56.2604C130.368 56.2604 130.06 56.3479 129.797 56.5229C129.538 56.6948 129.336 56.9479 129.193 57.2823C129.049 57.6167 128.977 58.0229 128.977 58.5011C128.977 58.9792 129.049 59.3854 129.193 59.7198C129.336 60.0542 129.538 60.3089 129.797 60.4839C130.06 60.6558 130.368 60.7417 130.721 60.7417C131.077 60.7417 131.385 60.6558 131.644 60.4839C131.907 60.3089 132.108 60.0542 132.249 59.7198C132.393 59.3854 132.464 58.9792 132.464 58.5011Z" fill="#C3DAFF"/>
<path d="M125.509 57.4745C125.475 57.2245 125.39 57.0089 125.256 56.8276C125.125 56.6433 124.953 56.5026 124.74 56.4058C124.528 56.3089 124.292 56.2604 124.033 56.2604C123.679 56.2604 123.37 56.3495 123.104 56.5276C122.842 56.7026 122.637 56.9589 122.49 57.2964C122.344 57.6308 122.27 58.0323 122.27 58.5011C122.27 58.9823 122.344 59.3901 122.49 59.7245C122.637 60.0558 122.842 60.3089 123.104 60.4839C123.37 60.6558 123.675 60.7417 124.019 60.7417C124.278 60.7417 124.511 60.6948 124.717 60.6011C124.926 60.5073 125.1 60.3745 125.237 60.2026C125.375 60.0276 125.465 59.8198 125.509 59.5792L126.939 59.5933C126.886 60.0183 126.733 60.4136 126.479 60.7792C126.229 61.1448 125.892 61.4386 125.467 61.6604C125.042 61.8792 124.553 61.9886 124 61.9886C123.394 61.9886 122.851 61.8511 122.373 61.5761C121.895 61.2979 121.52 60.8964 121.248 60.3714C120.979 59.8433 120.845 59.2198 120.845 58.5011C120.845 57.7761 120.981 57.1511 121.253 56.6261C121.528 56.1011 121.903 55.7011 122.378 55.4261C122.856 55.1511 123.397 55.0136 124 55.0136C124.522 55.0136 124.994 55.1104 125.415 55.3042C125.837 55.4979 126.179 55.7808 126.442 56.1526C126.708 56.5214 126.873 56.962 126.939 57.4745H125.509Z" fill="#C3DAFF"/>
<path d="M111.499 106.864C111.508 106.44 111.859 106.105 112.282 106.114L120.713 106.299C121.137 106.308 121.472 106.659 121.463 107.082C121.454 107.506 121.103 107.841 120.68 107.832L112.248 107.647C111.825 107.638 111.489 107.287 111.499 106.864Z" fill="#F84883"/>
<path d="M115.193 99.264C115.103 98.8504 115.365 98.4417 115.779 98.3513C116.192 98.2608 116.601 98.5227 116.691 98.9364L118.33 106.426C118.42 106.84 118.158 107.248 117.744 107.339C117.331 107.429 116.922 107.167 116.832 106.754L115.193 99.264Z" fill="#F84883"/>
<path d="M110.702 93.2366C112.659 91.3947 112.517 88.2414 110.502 86.4632C109.433 85.5199 108.329 84.4935 107.449 83.559C106.882 82.9561 106.266 82.2407 105.652 81.493C103.291 78.619 98.9721 78.1666 96.2636 80.7156C93.7513 83.0801 93.6766 87.0696 96.3079 89.3009C97.3546 90.1886 98.4503 91.0557 99.4458 91.723C101.4 93.0326 104.882 93.8814 107.106 94.3188C108.409 94.575 109.735 94.1465 110.702 93.2366Z" fill="#72A6FF"/>
<path d="M130.548 92.6097C128.482 90.89 128.433 87.7339 130.337 85.8366C131.346 84.8303 132.386 83.7387 133.207 82.7527C133.737 82.1164 134.308 81.365 134.876 80.5814C137.058 77.5695 141.342 76.8558 144.2 79.2359C146.851 81.4435 147.168 85.4212 144.676 87.808C143.686 88.7575 142.644 89.6896 141.691 90.416C139.821 91.8417 136.397 92.9002 134.202 93.4718C132.917 93.8065 131.568 93.4593 130.548 92.6097Z" fill="#72A6FF"/>
<path d="M103.739 75.6404C104.726 67.7582 111.308 61.7698 119.248 61.5287C127.188 61.2876 134.121 66.8657 135.585 74.6735L137.618 85.5156C139.882 94.9416 132.911 104.067 123.221 104.361L117.881 104.523C108.191 104.817 100.679 96.1319 102.367 86.5858L103.739 75.6404Z" fill="#85B2FF"/>
<path fill-rule="evenodd" clip-rule="evenodd" d="M128.125 96.0242C128.104 95.6013 127.744 95.2755 127.321 95.2964C126.898 95.3173 126.573 95.6771 126.594 96.1L126.87 101.681L124.212 97.4155C123.988 97.0561 123.515 96.9463 123.156 97.1702C122.797 97.3941 122.687 97.8669 122.911 98.2263L126.965 104.733C127.189 105.093 127.662 105.203 128.021 104.979C128.14 104.905 128.231 104.803 128.292 104.688C128.311 104.66 128.327 104.63 128.342 104.599L131.598 97.6577C131.777 97.2743 131.612 96.8178 131.229 96.638C130.846 96.4582 130.389 96.6232 130.209 97.0065L128.368 100.932L128.125 96.0242Z" fill="#F84883"/>
<path d="M116.994 86.1859C117.482 87.8078 119.211 88.7213 120.833 88.2335C122.455 87.7457 123.394 86.0295 122.907 84.4076C122.419 82.7857 120.689 81.8723 119.067 82.3601C117.445 82.8479 116.506 84.564 116.994 86.1859Z" fill="#C4F752"/>
<path d="M123.247 82.4539C123.197 80.7978 121.814 79.496 120.158 79.5463L116.959 79.6434C115.303 79.6937 114.001 81.077 114.052 82.7331C114.102 84.3892 115.485 85.691 117.141 85.6407L120.34 85.5436C121.996 85.4933 123.298 84.11 123.247 82.4539Z" fill="#EAFFBA"/>
<path d="M122.467 76.3113C122.445 75.5919 123.011 74.9909 123.73 74.969C124.45 74.9472 125.051 75.5127 125.073 76.2322L125.087 76.692C125.109 77.4115 124.543 78.0125 123.824 78.0343C123.104 78.0561 122.503 77.4906 122.481 76.7711L122.467 76.3113Z" fill="black"/>
<path d="M112.046 76.6277C112.024 75.9083 112.589 75.3073 113.309 75.2855C114.028 75.2636 114.629 75.8292 114.651 76.5486L114.665 77.0084C114.687 77.7279 114.121 78.3289 113.402 78.3507C112.682 78.3725 112.081 77.807 112.06 77.0875L112.046 76.6277Z" fill="black"/>
<path d="M114.63 76.1957C114.637 76.4165 114.463 76.6009 114.243 76.6076C114.022 76.6143 113.837 76.4408 113.831 76.2199C113.824 75.9991 113.998 75.8147 114.218 75.808C114.439 75.8013 114.624 75.9748 114.63 76.1957Z" fill="white"/>
<path d="M125.026 75.88C125.032 76.1008 124.859 76.2853 124.638 76.292C124.417 76.2987 124.233 76.1251 124.226 75.9043C124.219 75.6835 124.393 75.4991 124.614 75.4924C124.834 75.4857 125.019 75.6592 125.026 75.88Z" fill="white"/>
<rect x="80" y="110.295" width="80" height="18" fill="#FFD0D4"/>
<path d="M102.223 146.225H103.297V152.372H106.495V153.295H102.223V146.225ZM109.214 153.295H108.096L106.172 147.992H107.295L108.628 152.069H108.687L110.024 147.992H111.147L109.214 153.295ZM112.104 153.363C111.98 153.363 111.864 153.331 111.757 153.266C111.649 153.201 111.565 153.116 111.503 153.012C111.444 152.904 111.415 152.789 111.415 152.665C111.415 152.545 111.444 152.431 111.503 152.323C111.565 152.216 111.649 152.133 111.757 152.074C111.864 152.012 111.98 151.981 112.104 151.981C112.224 151.981 112.338 152.012 112.445 152.074C112.553 152.133 112.637 152.216 112.699 152.323C112.761 152.431 112.792 152.545 112.792 152.665C112.792 152.789 112.761 152.904 112.699 153.012C112.637 153.116 112.553 153.201 112.445 153.266C112.338 153.331 112.224 153.363 112.104 153.363Z" fill="#0050D8"/>
<path d="M120.135 151.295H118.617V142.907H118.562L116.204 144.452V143.01L118.658 141.396H120.135V151.295ZM122.745 146.086C122.968 145.835 123.216 145.646 123.49 145.519C123.763 145.386 124.055 145.32 124.365 145.32C124.597 145.32 124.823 145.352 125.042 145.416C125.265 145.475 125.554 145.573 125.91 145.71C126.233 145.838 126.507 145.936 126.73 146.004C126.958 146.072 127.186 146.106 127.414 146.106C127.728 146.106 128.02 146.036 128.289 145.895C128.562 145.753 128.801 145.548 129.006 145.279V146.592C128.783 146.842 128.535 147.034 128.261 147.166C127.988 147.298 127.696 147.364 127.386 147.364C127.154 147.364 126.924 147.33 126.696 147.262C126.473 147.193 126.188 147.095 125.841 146.968C125.522 146.831 125.249 146.731 125.021 146.667C124.793 146.603 124.561 146.571 124.324 146.571C124.018 146.571 123.731 146.642 123.463 146.783C123.198 146.92 122.959 147.125 122.745 147.398V146.086ZM130.447 150.201L133.886 146.735C134.301 146.307 134.62 145.961 134.843 145.696C135.066 145.432 135.233 145.172 135.342 144.917C135.456 144.657 135.513 144.388 135.513 144.11C135.513 143.796 135.433 143.518 135.274 143.276C135.114 143.035 134.895 142.848 134.617 142.716C134.339 142.584 134.027 142.518 133.681 142.518C133.321 142.518 133.004 142.59 132.731 142.736C132.462 142.878 132.252 143.083 132.102 143.352C131.956 143.616 131.883 143.921 131.883 144.268H130.454C130.454 143.675 130.593 143.151 130.871 142.695C131.149 142.24 131.534 141.886 132.027 141.636C132.523 141.385 133.086 141.26 133.715 141.26C134.339 141.26 134.895 141.383 135.383 141.629C135.871 141.87 136.251 142.205 136.525 142.634C136.803 143.058 136.942 143.534 136.942 144.062C136.942 144.441 136.871 144.805 136.73 145.156C136.588 145.507 136.349 145.895 136.012 146.318C135.675 146.742 135.192 147.264 134.563 147.884L132.546 149.928V150.003H137.106V151.295H130.454L130.447 150.201Z" fill="black"/>
<path d="M163.8 32.6948H204.6V32.7072C204.665 32.699 204.732 32.6948 204.8 32.6948C205.683 32.6948 206.4 33.4112 206.4 34.2948C206.4 35.1785 205.683 35.8948 204.8 35.8948C204.732 35.8948 204.665 35.8906 204.6 35.8824V39.0948H236.4L232.4 46.0948L236.4 53.0948H198C197.116 53.0948 196.4 52.3785 196.4 51.4948V46.6948H163.8L167.8 39.6948L163.8 32.6948Z" fill="#E6EFFF"/>
<path fill-rule="evenodd" clip-rule="evenodd" d="M206.4 34.2948V39.0948H198C197.116 39.0948 196.4 38.3785 196.4 37.4948C196.4 36.6112 197.116 35.8948 198 35.8948H204.8C205.683 35.8948 206.4 35.1785 206.4 34.2948Z" fill="#C3DAFF"/>
<path d="M191.541 36.7073H192.947V42.3323H195.867V43.4948H191.541V36.7073Z" fill="#C3DAFF"/>
<path d="M186.54 36.7073H187.946V42.3323H190.867V43.4948H186.54V36.7073Z" fill="#C3DAFF"/>
<path d="M181.127 36.7073H185.683V37.8698H182.533V39.5198H185.444V40.6776H182.533V42.3323H185.693V43.4948H181.127V36.7073Z" fill="#C3DAFF"/>
<path d="M171.354 36.7073H172.887L174.026 41.4511H174.087L175.329 36.7073H176.661L177.908 41.4651H177.964L179.103 36.7073H180.636L178.7 43.4948H177.317L176.023 39.0136H175.972L174.673 43.4948H173.295L171.354 36.7073Z" fill="#C3DAFF"/>
<path d="M222.906 43.1073H227.463V44.2698H224.313V45.9198H227.224V47.0776H224.313V48.7323H227.472V49.8948H222.906V43.1073Z" fill="#C3DAFF"/>
<path d="M216.406 43.1073L218.295 47.7058H218.374L220.259 43.1073H221.998V49.8948H220.629V45.4464H220.573L218.801 49.862H217.859L216.092 45.437H216.035V49.8948H214.671V43.1073H216.406Z" fill="#C3DAFF"/>
<path d="M213.889 46.5011C213.889 47.2198 213.752 47.8433 213.477 48.3714C213.205 48.8964 212.829 49.2979 212.347 49.5761C211.869 49.8511 211.327 49.9886 210.721 49.9886C210.114 49.9886 209.571 49.8511 209.089 49.5761C208.611 49.2979 208.235 48.8948 207.96 48.3667C207.688 47.8386 207.552 47.2167 207.552 46.5011C207.552 45.7761 207.688 45.1511 207.96 44.6261C208.235 44.1011 208.611 43.7011 209.089 43.4261C209.571 43.1511 210.114 43.0136 210.721 43.0136C211.327 43.0136 211.869 43.1511 212.347 43.4261C212.829 43.7011 213.205 44.1011 213.477 44.6261C213.752 45.1511 213.889 45.7761 213.889 46.5011ZM212.464 46.5011C212.464 46.0229 212.393 45.6167 212.249 45.2823C212.108 44.9479 211.907 44.6948 211.644 44.5229C211.385 44.3479 211.077 44.2604 210.721 44.2604C210.368 44.2604 210.06 44.3479 209.797 44.5229C209.538 44.6948 209.336 44.9479 209.193 45.2823C209.049 45.6167 208.977 46.0229 208.977 46.5011C208.977 46.9792 209.049 47.3854 209.193 47.7198C209.336 48.0542 209.538 48.3089 209.797 48.4839C210.06 48.6558 210.368 48.7417 210.721 48.7417C211.077 48.7417 211.385 48.6558 211.644 48.4839C211.907 48.3089 212.108 48.0542 212.249 47.7198C212.393 47.3854 212.464 46.9792 212.464 46.5011Z" fill="#C3DAFF"/>
<path d="M205.509 45.4745C205.475 45.2245 205.39 45.0089 205.256 44.8276C205.125 44.6433 204.953 44.5026 204.74 44.4058C204.528 44.3089 204.292 44.2604 204.033 44.2604C203.679 44.2604 203.37 44.3495 203.104 44.5276C202.842 44.7026 202.637 44.9589 202.49 45.2964C202.344 45.6308 202.27 46.0323 202.27 46.5011C202.27 46.9823 202.344 47.3901 202.49 47.7245C202.637 48.0558 202.842 48.3089 203.104 48.4839C203.37 48.6558 203.675 48.7417 204.019 48.7417C204.278 48.7417 204.511 48.6948 204.717 48.6011C204.926 48.5073 205.1 48.3745 205.237 48.2026C205.375 48.0276 205.465 47.8198 205.509 47.5792L206.939 47.5933C206.886 48.0183 206.733 48.4136 206.479 48.7792C206.229 49.1448 205.892 49.4386 205.467 49.6604C205.042 49.8792 204.553 49.9886 204 49.9886C203.394 49.9886 202.851 49.8511 202.373 49.5761C201.895 49.2979 201.52 48.8964 201.248 48.3714C200.979 47.8433 200.845 47.2198 200.845 46.5011C200.845 45.7761 200.981 45.1511 201.253 44.6261C201.528 44.1011 201.903 43.7011 202.378 43.4261C202.856 43.1511 203.397 43.0136 204 43.0136C204.522 43.0136 204.994 43.1104 205.415 43.3042C205.837 43.4979 206.179 43.7808 206.442 44.1526C206.708 44.5214 206.873 44.962 206.939 45.4745H205.509Z" fill="#C3DAFF"/>
<path d="M191.499 94.8637C191.508 94.4404 191.859 94.1047 192.282 94.114L200.713 94.2991C201.137 94.3084 201.472 94.6591 201.463 95.0825C201.454 95.5058 201.103 95.8414 200.68 95.8321L192.248 95.647C191.825 95.6377 191.489 95.287 191.499 94.8637Z" fill="#F84883"/>
<path d="M195.193 87.264C195.103 86.8504 195.365 86.4417 195.779 86.3513C196.192 86.2608 196.601 86.5227 196.691 86.9364L198.33 94.4259C198.42 94.8396 198.158 95.2483 197.744 95.3387C197.331 95.4292 196.922 95.1672 196.832 94.7536L195.193 87.264Z" fill="#F84883"/>
<path d="M190.702 81.2366C192.659 79.3947 192.517 76.2414 190.502 74.4632C189.433 73.5199 188.329 72.4935 187.449 71.559C186.882 70.9561 186.266 70.2407 185.652 69.493C183.291 66.619 178.972 66.1666 176.264 68.7156C173.751 71.0801 173.677 75.0696 176.308 77.3009C177.355 78.1886 178.45 79.0557 179.446 79.723C181.4 81.0326 184.882 81.8814 187.106 82.3188C188.409 82.575 189.735 82.1465 190.702 81.2366Z" fill="#72A6FF"/>
<path d="M210.548 80.6097C208.482 78.89 208.433 75.7339 210.337 73.8366C211.346 72.8303 212.386 71.7387 213.207 70.7527C213.737 70.1164 214.308 69.365 214.876 68.5814C217.058 65.5695 221.342 64.8558 224.2 67.2359C226.851 69.4435 227.168 73.4212 224.676 75.808C223.686 76.7575 222.644 77.6896 221.691 78.416C219.821 79.8417 216.397 80.9002 214.202 81.4718C212.917 81.8065 211.568 81.4593 210.548 80.6097Z" fill="#72A6FF"/>
<path d="M183.739 63.6404C184.726 55.7582 191.308 49.7698 199.248 49.5287C207.188 49.2876 214.121 54.8657 215.585 62.6735L217.618 73.5156C219.882 82.9416 212.911 92.0669 203.221 92.3611L197.881 92.5233C188.191 92.8175 180.679 84.1319 182.367 74.5858L183.739 63.6404Z" fill="#85B2FF"/>
<path fill-rule="evenodd" clip-rule="evenodd" d="M208.125 84.0242C208.104 83.6013 207.744 83.2755 207.321 83.2964C206.898 83.3173 206.573 83.6771 206.594 84.1L206.87 89.6812L204.212 85.4155C203.988 85.0561 203.515 84.9463 203.156 85.1702C202.797 85.3941 202.687 85.8669 202.911 86.2263L206.965 92.7333C207.189 93.0927 207.662 93.2025 208.021 92.9786C208.14 92.9046 208.231 92.8035 208.292 92.6882C208.311 92.6599 208.327 92.63 208.342 92.5987L211.598 85.6577C211.777 85.2743 211.612 84.8178 211.229 84.638C210.846 84.4582 210.389 84.6232 210.209 85.0065L208.368 88.9323L208.125 84.0242Z" fill="#F84883"/>
<path d="M196.994 74.1859C197.482 75.8078 199.211 76.7213 200.833 76.2335C202.455 75.7457 203.394 74.0295 202.907 72.4076C202.419 70.7857 200.689 69.8723 199.067 70.3601C197.445 70.8479 196.506 72.564 196.994 74.1859Z" fill="#C4F752"/>
<path d="M203.247 70.4539C203.197 68.7978 201.814 67.496 200.158 67.5463L196.959 67.6434C195.303 67.6937 194.001 69.077 194.052 70.7331C194.102 72.3892 195.485 73.691 197.141 73.6407L200.34 73.5436C201.996 73.4933 203.298 72.11 203.247 70.4539Z" fill="#EAFFBA"/>
<path d="M202.467 64.3113C202.445 63.5919 203.011 62.9909 203.73 62.969C204.45 62.9472 205.051 63.5127 205.073 64.2322L205.087 64.692C205.109 65.4115 204.543 66.0125 203.824 66.0343C203.104 66.0561 202.503 65.4906 202.481 64.7711L202.467 64.3113Z" fill="black"/>
<path d="M192.046 64.6277C192.024 63.9083 192.589 63.3073 193.309 63.2855C194.028 63.2636 194.629 63.8292 194.651 64.5486L194.665 65.0084C194.687 65.7279 194.121 66.3289 193.402 66.3507C192.682 66.3725 192.081 65.807 192.06 65.0875L192.046 64.6277Z" fill="black"/>
<path d="M194.63 64.1957C194.637 64.4165 194.463 64.6009 194.243 64.6076C194.022 64.6143 193.837 64.4408 193.831 64.2199C193.824 63.9991 193.998 63.8147 194.218 63.808C194.439 63.8013 194.624 63.9748 194.63 64.1957Z" fill="white"/>
<path d="M205.026 63.88C205.032 64.1008 204.859 64.2853 204.638 64.292C204.417 64.2987 204.233 64.1251 204.226 63.9043C204.219 63.6835 204.393 63.4991 204.614 63.4924C204.834 63.4857 205.019 63.6592 205.026 63.88Z" fill="white"/>
<rect x="160" y="98.2949" width="80" height="30" fill="#FFBAC8"/>
<path d="M180.723 146.225H181.797V152.372H184.995V153.295H180.723V146.225ZM187.714 153.295H186.596L184.672 147.992H185.795L187.128 152.069H187.187L188.524 147.992H189.647L187.714 153.295ZM190.604 153.363C190.48 153.363 190.364 153.331 190.257 153.266C190.149 153.201 190.065 153.116 190.003 153.012C189.944 152.904 189.915 152.789 189.915 152.665C189.915 152.545 189.944 152.431 190.003 152.323C190.065 152.216 190.149 152.133 190.257 152.074C190.364 152.012 190.48 151.981 190.604 151.981C190.724 151.981 190.838 152.012 190.945 152.074C191.053 152.133 191.137 152.216 191.199 152.323C191.261 152.431 191.292 152.545 191.292 152.665C191.292 152.789 191.261 152.904 191.199 153.012C191.137 153.116 191.053 153.201 190.945 153.266C190.838 153.331 190.724 153.363 190.604 153.363Z" fill="#0050D8"/>
<path d="M198.382 151.432C197.712 151.432 197.11 151.318 196.577 151.09C196.044 150.862 195.625 150.543 195.319 150.133C195.014 149.718 194.85 149.242 194.827 148.704H196.345C196.368 148.982 196.47 149.23 196.652 149.449C196.835 149.668 197.076 149.837 197.377 149.955C197.678 150.074 198.01 150.133 198.375 150.133C198.767 150.133 199.122 150.064 199.441 149.928C199.76 149.786 200.007 149.597 200.18 149.36C200.353 149.119 200.439 148.841 200.439 148.526C200.439 148.194 200.353 147.9 200.18 147.645C200.007 147.389 199.751 147.191 199.414 147.05C199.081 146.909 198.68 146.838 198.211 146.838H197.363V145.614H198.211C198.585 145.614 198.917 145.548 199.209 145.416C199.501 145.284 199.726 145.099 199.886 144.862C200.045 144.625 200.123 144.352 200.118 144.042C200.123 143.741 200.054 143.475 199.913 143.242C199.772 143.01 199.571 142.832 199.312 142.709C199.052 142.581 198.751 142.518 198.409 142.518C198.072 142.518 197.76 142.577 197.473 142.695C197.186 142.814 196.951 142.982 196.769 143.201C196.591 143.42 196.495 143.677 196.481 143.974H195.032C195.055 143.445 195.217 142.976 195.518 142.565C195.823 142.151 196.229 141.829 196.734 141.602C197.245 141.374 197.805 141.26 198.416 141.26C199.049 141.26 199.605 141.381 200.084 141.622C200.567 141.859 200.938 142.183 201.198 142.593C201.458 143.003 201.583 143.456 201.574 143.953C201.583 144.318 201.515 144.653 201.369 144.958C201.228 145.259 201.023 145.512 200.754 145.717C200.49 145.917 200.18 146.061 199.824 146.147V146.223C200.271 146.282 200.654 146.421 200.973 146.64C201.296 146.854 201.542 147.125 201.711 147.453C201.88 147.781 201.959 148.155 201.95 148.574C201.959 149.112 201.809 149.6 201.499 150.037C201.189 150.47 200.761 150.812 200.214 151.062C199.667 151.309 199.056 151.432 198.382 151.432ZM203.719 146.086C203.943 145.835 204.191 145.646 204.464 145.519C204.738 145.386 205.03 145.32 205.339 145.32C205.572 145.32 205.797 145.352 206.016 145.416C206.24 145.475 206.529 145.573 206.884 145.71C207.208 145.838 207.481 145.936 207.705 146.004C207.933 146.072 208.16 146.106 208.388 146.106C208.703 146.106 208.994 146.036 209.263 145.895C209.537 145.753 209.776 145.548 209.981 145.279V146.592C209.758 146.842 209.509 147.034 209.236 147.166C208.962 147.298 208.671 147.364 208.361 147.364C208.129 147.364 207.898 147.33 207.671 147.262C207.447 147.193 207.162 147.095 206.816 146.968C206.497 146.831 206.224 146.731 205.996 146.667C205.768 146.603 205.535 146.571 205.298 146.571C204.993 146.571 204.706 146.642 204.437 146.783C204.173 146.92 203.934 147.125 203.719 147.398V146.086ZM211.613 148.144L215.975 141.396H216.932V143.188H216.31L213.186 148.007V148.089H219.188V149.36H211.613V148.144ZM216.412 148.998L216.419 148.438V141.396H217.848V151.295H216.412V148.998Z" fill="black"/>
<path d="M243.8 20.6948H284.6V20.7072C284.665 20.699 284.732 20.6948 284.8 20.6948C285.683 20.6948 286.4 21.4112 286.4 22.2948C286.4 23.1785 285.683 23.8948 284.8 23.8948C284.732 23.8948 284.665 23.8906 284.6 23.8824V27.0948H316.4L312.4 34.0948L316.4 41.0948H278C277.116 41.0948 276.4 40.3785 276.4 39.4948V34.6948H243.8L247.8 27.6948L243.8 20.6948Z" fill="#E6EFFF"/>
<path fill-rule="evenodd" clip-rule="evenodd" d="M286.4 22.2948V27.0948H278C277.116 27.0948 276.4 26.3785 276.4 25.4948C276.4 24.6112 277.116 23.8948 278 23.8948H284.8C285.683 23.8948 286.4 23.1785 286.4 22.2948Z" fill="#C3DAFF"/>
<path d="M271.541 24.7073H272.947V30.3323H275.867V31.4948H271.541V24.7073Z" fill="#C3DAFF"/>
<path d="M266.54 24.7073H267.946V30.3323H270.867V31.4948H266.54V24.7073Z" fill="#C3DAFF"/>
<path d="M261.127 24.7073H265.683V25.8698H262.533V27.5198H265.444V28.6776H262.533V30.3323H265.693V31.4948H261.127V24.7073Z" fill="#C3DAFF"/>
<path d="M251.354 24.7073H252.887L254.026 29.4511H254.087L255.329 24.7073H256.661L257.908 29.4651H257.964L259.103 24.7073H260.636L258.7 31.4948H257.317L256.023 27.0136H255.972L254.673 31.4948H253.295L251.354 24.7073Z" fill="#C3DAFF"/>
<path d="M302.906 31.1073H307.463V32.2698H304.313V33.9198H307.224V35.0776H304.313V36.7323H307.472V37.8948H302.906V31.1073Z" fill="#C3DAFF"/>
<path d="M296.406 31.1073L298.295 35.7058H298.374L300.259 31.1073H301.998V37.8948H300.629V33.4464H300.573L298.801 37.862H297.859L296.092 33.437H296.035V37.8948H294.671V31.1073H296.406Z" fill="#C3DAFF"/>
<path d="M293.889 34.5011C293.889 35.2198 293.752 35.8433 293.477 36.3714C293.205 36.8964 292.829 37.2979 292.347 37.5761C291.869 37.8511 291.327 37.9886 290.721 37.9886C290.114 37.9886 289.571 37.8511 289.089 37.5761C288.611 37.2979 288.235 36.8948 287.96 36.3667C287.688 35.8386 287.552 35.2167 287.552 34.5011C287.552 33.7761 287.688 33.1511 287.96 32.6261C288.235 32.1011 288.611 31.7011 289.089 31.4261C289.571 31.1511 290.114 31.0136 290.721 31.0136C291.327 31.0136 291.869 31.1511 292.347 31.4261C292.829 31.7011 293.205 32.1011 293.477 32.6261C293.752 33.1511 293.889 33.7761 293.889 34.5011ZM292.464 34.5011C292.464 34.0229 292.393 33.6167 292.249 33.2823C292.108 32.9479 291.907 32.6948 291.644 32.5229C291.385 32.3479 291.077 32.2604 290.721 32.2604C290.368 32.2604 290.06 32.3479 289.797 32.5229C289.538 32.6948 289.336 32.9479 289.193 33.2823C289.049 33.6167 288.977 34.0229 288.977 34.5011C288.977 34.9792 289.049 35.3854 289.193 35.7198C289.336 36.0542 289.538 36.3089 289.797 36.4839C290.06 36.6558 290.368 36.7417 290.721 36.7417C291.077 36.7417 291.385 36.6558 291.644 36.4839C291.907 36.3089 292.108 36.0542 292.249 35.7198C292.393 35.3854 292.464 34.9792 292.464 34.5011Z" fill="#C3DAFF"/>
<path d="M285.509 33.4745C285.475 33.2245 285.39 33.0089 285.256 32.8276C285.125 32.6433 284.953 32.5026 284.74 32.4058C284.528 32.3089 284.292 32.2604 284.033 32.2604C283.679 32.2604 283.37 32.3495 283.104 32.5276C282.842 32.7026 282.637 32.9589 282.49 33.2964C282.344 33.6308 282.27 34.0323 282.27 34.5011C282.27 34.9823 282.344 35.3901 282.49 35.7245C282.637 36.0558 282.842 36.3089 283.104 36.4839C283.37 36.6558 283.675 36.7417 284.019 36.7417C284.278 36.7417 284.511 36.6948 284.717 36.6011C284.926 36.5073 285.1 36.3745 285.237 36.2026C285.375 36.0276 285.465 35.8198 285.509 35.5792L286.939 35.5933C286.886 36.0183 286.733 36.4136 286.479 36.7792C286.229 37.1448 285.892 37.4386 285.467 37.6604C285.042 37.8792 284.553 37.9886 284 37.9886C283.394 37.9886 282.851 37.8511 282.373 37.5761C281.895 37.2979 281.52 36.8964 281.248 36.3714C280.979 35.8433 280.845 35.2198 280.845 34.5011C280.845 33.7761 280.981 33.1511 281.253 32.6261C281.528 32.1011 281.903 31.7011 282.378 31.4261C282.856 31.1511 283.397 31.0136 284 31.0136C284.522 31.0136 284.994 31.1104 285.415 31.3042C285.837 31.4979 286.179 31.7808 286.442 32.1526C286.708 32.5214 286.873 32.962 286.939 33.4745H285.509Z" fill="#C3DAFF"/>
<path d="M271.499 82.8637C271.508 82.4404 271.859 82.1047 272.282 82.114L280.713 82.2991C281.137 82.3084 281.472 82.6591 281.463 83.0825C281.454 83.5058 281.103 83.8414 280.68 83.8321L272.248 83.647C271.825 83.6377 271.489 83.287 271.499 82.8637Z" fill="#F84883"/>
<path d="M275.193 75.264C275.103 74.8504 275.365 74.4417 275.779 74.3513C276.192 74.2608 276.601 74.5227 276.691 74.9364L278.33 82.4259C278.42 82.8396 278.158 83.2483 277.744 83.3387C277.331 83.4292 276.922 83.1672 276.832 82.7536L275.193 75.264Z" fill="#F84883"/>
<path d="M270.702 69.2366C272.659 67.3947 272.517 64.2414 270.502 62.4632C269.433 61.5199 268.329 60.4935 267.449 59.559C266.882 58.9561 266.266 58.2407 265.652 57.493C263.291 54.619 258.972 54.1666 256.264 56.7156C253.751 59.0801 253.677 63.0696 256.308 65.3009C257.355 66.1886 258.45 67.0557 259.446 67.723C261.4 69.0326 264.882 69.8814 267.106 70.3188C268.409 70.575 269.735 70.1465 270.702 69.2366Z" fill="#72A6FF"/>
<path d="M290.548 68.6097C288.482 66.89 288.433 63.7339 290.337 61.8366C291.346 60.8303 292.386 59.7387 293.207 58.7527C293.737 58.1164 294.308 57.365 294.876 56.5814C297.058 53.5695 301.342 52.8558 304.2 55.2359C306.851 57.4435 307.168 61.4212 304.676 63.808C303.686 64.7575 302.644 65.6896 301.691 66.416C299.821 67.8417 296.397 68.9002 294.202 69.4718C292.917 69.8065 291.568 69.4593 290.548 68.6097Z" fill="#72A6FF"/>
<path d="M263.739 51.6404C264.726 43.7582 271.308 37.7698 279.248 37.5287C287.188 37.2876 294.121 42.8657 295.585 50.6735L297.618 61.5156C299.882 70.9416 292.911 80.0669 283.221 80.3611L277.881 80.5233C268.191 80.8175 260.679 72.1319 262.367 62.5858L263.739 51.6404Z" fill="#85B2FF"/>
<path fill-rule="evenodd" clip-rule="evenodd" d="M288.125 72.0242C288.104 71.6013 287.744 71.2755 287.321 71.2964C286.898 71.3173 286.573 71.6771 286.594 72.1L286.87 77.6812L284.212 73.4155C283.988 73.0561 283.515 72.9463 283.156 73.1702C282.797 73.3941 282.687 73.8669 282.911 74.2263L286.965 80.7333C287.189 81.0927 287.662 81.2025 288.021 80.9786C288.14 80.9046 288.231 80.8035 288.292 80.6882C288.311 80.6599 288.327 80.63 288.342 80.5987L291.598 73.6577C291.777 73.2743 291.612 72.8178 291.229 72.638C290.846 72.4582 290.389 72.6232 290.209 73.0065L288.368 76.9323L288.125 72.0242Z" fill="#F84883"/>
<path d="M276.994 62.1859C277.482 63.8078 279.211 64.7213 280.833 64.2335C282.455 63.7457 283.394 62.0295 282.907 60.4076C282.419 58.7857 280.689 57.8723 279.067 58.3601C277.445 58.8479 276.506 60.564 276.994 62.1859Z" fill="#C4F752"/>
<path d="M283.247 58.4539C283.197 56.7978 281.814 55.496 280.158 55.5463L276.959 55.6434C275.303 55.6937 274.001 57.077 274.052 58.7331C274.102 60.3892 275.485 61.691 277.141 61.6407L280.34 61.5436C281.996 61.4933 283.298 60.11 283.247 58.4539Z" fill="#EAFFBA"/>
<path d="M282.467 52.3113C282.445 51.5919 283.011 50.9909 283.73 50.969C284.45 50.9472 285.051 51.5127 285.073 52.2322L285.087 52.692C285.109 53.4115 284.543 54.0125 283.824 54.0343C283.104 54.0561 282.503 53.4906 282.481 52.7711L282.467 52.3113Z" fill="black"/>
<path d="M272.046 52.6277C272.024 51.9083 272.589 51.3073 273.309 51.2855C274.028 51.2636 274.629 51.8292 274.651 52.5486L274.665 53.0084C274.687 53.7279 274.121 54.3289 273.402 54.3507C272.682 54.3725 272.081 53.807 272.06 53.0875L272.046 52.6277Z" fill="black"/>
<path d="M274.63 52.1957C274.637 52.4165 274.463 52.6009 274.243 52.6076C274.022 52.6143 273.837 52.4408 273.831 52.2199C273.824 51.9991 273.998 51.8147 274.218 51.808C274.439 51.8013 274.624 51.9748 274.63 52.1957Z" fill="white"/>
<path d="M285.026 51.88C285.032 52.1008 284.859 52.2853 284.638 52.292C284.417 52.2987 284.233 52.1251 284.226 51.9043C284.219 51.6835 284.393 51.4991 284.614 51.4924C284.834 51.4857 285.019 51.6592 285.026 51.88Z" fill="white"/>
<rect x="240" y="86.2949" width="80" height="42" fill="#FFA1B9"/>
<path d="M261.223 146.225H262.297V152.372H265.495V153.295H261.223V146.225ZM268.214 153.295H267.096L265.172 147.992H266.295L267.628 152.069H267.687L269.024 147.992H270.147L268.214 153.295ZM271.104 153.363C270.98 153.363 270.864 153.331 270.757 153.266C270.649 153.201 270.565 153.116 270.503 153.012C270.444 152.904 270.415 152.789 270.415 152.665C270.415 152.545 270.444 152.431 270.503 152.323C270.565 152.216 270.649 152.133 270.757 152.074C270.864 152.012 270.98 151.981 271.104 151.981C271.224 151.981 271.338 152.012 271.445 152.074C271.553 152.133 271.637 152.216 271.699 152.323C271.761 152.431 271.792 152.545 271.792 152.665C271.792 152.789 271.761 152.904 271.699 153.012C271.637 153.116 271.553 153.201 271.445 153.266C271.338 153.331 271.224 153.363 271.104 153.363Z" fill="#0050D8"/>
<path d="M278.745 151.432C278.13 151.432 277.569 151.315 277.063 151.083C276.562 150.846 276.163 150.52 275.867 150.105C275.576 149.691 275.418 149.224 275.396 148.704H276.852C276.883 148.987 276.986 149.237 277.159 149.456C277.337 149.675 277.562 149.85 277.836 149.982C278.114 150.11 278.417 150.174 278.745 150.174C279.137 150.174 279.488 150.085 279.798 149.907C280.112 149.729 280.358 149.486 280.536 149.176C280.714 148.861 280.803 148.513 280.803 148.13C280.803 147.724 280.712 147.367 280.529 147.057C280.352 146.742 280.099 146.494 279.771 146.312C279.447 146.129 279.082 146.038 278.677 146.038C278.267 146.029 277.916 146.095 277.624 146.236C277.332 146.378 277.102 146.601 276.934 146.906H275.519L276.161 141.396H281.767V142.688H277.412L277.07 145.45H277.159C277.378 145.254 277.651 145.095 277.979 144.972C278.312 144.849 278.661 144.787 279.025 144.787C279.641 144.787 280.194 144.928 280.687 145.211C281.183 145.489 281.571 145.881 281.849 146.387C282.131 146.888 282.27 147.455 282.266 148.089C282.27 148.727 282.12 149.301 281.814 149.812C281.514 150.317 281.094 150.714 280.557 151.001C280.023 151.288 279.42 151.432 278.745 151.432ZM283.96 146.086C284.183 145.835 284.431 145.646 284.705 145.519C284.978 145.386 285.27 145.32 285.58 145.32C285.812 145.32 286.038 145.352 286.256 145.416C286.48 145.475 286.769 145.573 287.125 145.71C287.448 145.838 287.722 145.936 287.945 146.004C288.173 146.072 288.401 146.106 288.629 146.106C288.943 146.106 289.235 146.036 289.504 145.895C289.777 145.753 290.016 145.548 290.221 145.279V146.592C289.998 146.842 289.75 147.034 289.476 147.166C289.203 147.298 288.911 147.364 288.601 147.364C288.369 147.364 288.139 147.33 287.911 147.262C287.687 147.193 287.403 147.095 287.056 146.968C286.737 146.831 286.464 146.731 286.236 146.667C286.008 146.603 285.776 146.571 285.539 146.571C285.233 146.571 284.946 146.642 284.677 146.783C284.413 146.92 284.174 147.125 283.96 147.398V146.086ZM296.482 142.757V142.688H291.375V141.396H298.04V142.736L293.631 151.295H292.066L296.482 142.757Z" fill="black"/>
<path d="M323.8 8.69482H364.6V8.7072C364.665 8.69903 364.732 8.69482 364.8 8.69482C365.683 8.69482 366.4 9.41117 366.4 10.2948C366.4 11.1785 365.683 11.8948 364.8 11.8948C364.732 11.8948 364.665 11.8906 364.6 11.8824V15.0948H396.4L392.4 22.0948L396.4 29.0948H358C357.116 29.0948 356.4 28.3785 356.4 27.4948V22.6948H323.8L327.8 15.6948L323.8 8.69482Z" fill="#E6EFFF"/>
<path fill-rule="evenodd" clip-rule="evenodd" d="M366.4 10.2948V15.0948H358C357.116 15.0948 356.4 14.3785 356.4 13.4948C356.4 12.6112 357.116 11.8948 358 11.8948H364.8C365.683 11.8948 366.4 11.1785 366.4 10.2948Z" fill="#C3DAFF"/>
<path d="M351.541 12.7073H352.947V18.3323H355.867V19.4948H351.541V12.7073Z" fill="#C3DAFF"/>
<path d="M346.54 12.7073H347.946V18.3323H350.867V19.4948H346.54V12.7073Z" fill="#C3DAFF"/>
<path d="M341.127 12.7073H345.683V13.8698H342.533V15.5198H345.444V16.6776H342.533V18.3323H345.693V19.4948H341.127V12.7073Z" fill="#C3DAFF"/>
<path d="M331.354 12.7073H332.887L334.026 17.4511H334.087L335.329 12.7073H336.661L337.908 17.4651H337.964L339.103 12.7073H340.636L338.7 19.4948H337.317L336.023 15.0136H335.972L334.673 19.4948H333.295L331.354 12.7073Z" fill="#C3DAFF"/>
<path d="M382.906 19.1073H387.463V20.2698H384.313V21.9198H387.224V23.0776H384.313V24.7323H387.472V25.8948H382.906V19.1073Z" fill="#C3DAFF"/>
<path d="M376.406 19.1073L378.295 23.7058H378.374L380.259 19.1073H381.998V25.8948H380.629V21.4464H380.573L378.801 25.862H377.859L376.092 21.437H376.035V25.8948H374.671V19.1073H376.406Z" fill="#C3DAFF"/>
<path d="M373.889 22.5011C373.889 23.2198 373.752 23.8433 373.477 24.3714C373.205 24.8964 372.829 25.2979 372.347 25.5761C371.869 25.8511 371.327 25.9886 370.721 25.9886C370.114 25.9886 369.571 25.8511 369.089 25.5761C368.611 25.2979 368.235 24.8948 367.96 24.3667C367.688 23.8386 367.552 23.2167 367.552 22.5011C367.552 21.7761 367.688 21.1511 367.96 20.6261C368.235 20.1011 368.611 19.7011 369.089 19.4261C369.571 19.1511 370.114 19.0136 370.721 19.0136C371.327 19.0136 371.869 19.1511 372.347 19.4261C372.829 19.7011 373.205 20.1011 373.477 20.6261C373.752 21.1511 373.889 21.7761 373.889 22.5011ZM372.464 22.5011C372.464 22.0229 372.393 21.6167 372.249 21.2823C372.108 20.9479 371.907 20.6948 371.644 20.5229C371.385 20.3479 371.077 20.2604 370.721 20.2604C370.368 20.2604 370.06 20.3479 369.797 20.5229C369.538 20.6948 369.336 20.9479 369.193 21.2823C369.049 21.6167 368.977 22.0229 368.977 22.5011C368.977 22.9792 369.049 23.3854 369.193 23.7198C369.336 24.0542 369.538 24.3089 369.797 24.4839C370.06 24.6558 370.368 24.7417 370.721 24.7417C371.077 24.7417 371.385 24.6558 371.644 24.4839C371.907 24.3089 372.108 24.0542 372.249 23.7198C372.393 23.3854 372.464 22.9792 372.464 22.5011Z" fill="#C3DAFF"/>
<path d="M365.509 21.4745C365.475 21.2245 365.39 21.0089 365.256 20.8276C365.125 20.6433 364.953 20.5026 364.74 20.4058C364.528 20.3089 364.292 20.2604 364.033 20.2604C363.679 20.2604 363.37 20.3495 363.104 20.5276C362.842 20.7026 362.637 20.9589 362.49 21.2964C362.344 21.6308 362.27 22.0323 362.27 22.5011C362.27 22.9823 362.344 23.3901 362.49 23.7245C362.637 24.0558 362.842 24.3089 363.104 24.4839C363.37 24.6558 363.675 24.7417 364.019 24.7417C364.278 24.7417 364.511 24.6948 364.717 24.6011C364.926 24.5073 365.1 24.3745 365.237 24.2026C365.375 24.0276 365.465 23.8198 365.509 23.5792L366.939 23.5933C366.886 24.0183 366.733 24.4136 366.479 24.7792C366.229 25.1448 365.892 25.4386 365.467 25.6604C365.042 25.8792 364.553 25.9886 364 25.9886C363.394 25.9886 362.851 25.8511 362.373 25.5761C361.895 25.2979 361.52 24.8964 361.248 24.3714C360.979 23.8433 360.845 23.2198 360.845 22.5011C360.845 21.7761 360.981 21.1511 361.253 20.6261C361.528 20.1011 361.903 19.7011 362.378 19.4261C362.856 19.1511 363.397 19.0136 364 19.0136C364.522 19.0136 364.994 19.1104 365.415 19.3042C365.837 19.4979 366.179 19.7808 366.442 20.1526C366.708 20.5214 366.873 20.962 366.939 21.4745H365.509Z" fill="#C3DAFF"/>
<path d="M351.499 70.8637C351.508 70.4404 351.859 70.1047 352.282 70.114L360.713 70.2991C361.137 70.3084 361.472 70.6591 361.463 71.0825C361.454 71.5058 361.103 71.8414 360.68 71.8321L352.248 71.647C351.825 71.6377 351.489 71.287 351.499 70.8637Z" fill="#F84883"/>
<path d="M355.193 63.264C355.103 62.8504 355.365 62.4417 355.779 62.3513C356.192 62.2608 356.601 62.5227 356.691 62.9364L358.33 70.4259C358.42 70.8396 358.158 71.2483 357.744 71.3387C357.331 71.4292 356.922 71.1672 356.832 70.7536L355.193 63.264Z" fill="#F84883"/>
<path d="M350.702 57.2366C352.659 55.3947 352.517 52.2414 350.502 50.4632C349.433 49.5199 348.329 48.4935 347.449 47.559C346.882 46.9561 346.266 46.2407 345.652 45.493C343.291 42.619 338.972 42.1666 336.264 44.7156C333.751 47.0801 333.677 51.0696 336.308 53.3009C337.355 54.1886 338.45 55.0557 339.446 55.723C341.4 57.0326 344.882 57.8814 347.106 58.3188C348.409 58.575 349.735 58.1465 350.702 57.2366Z" fill="#72A6FF"/>
<path d="M370.548 56.6097C368.482 54.89 368.433 51.7339 370.337 49.8366C371.346 48.8303 372.386 47.7387 373.207 46.7527C373.737 46.1164 374.308 45.365 374.876 44.5814C377.058 41.5695 381.342 40.8558 384.2 43.2359C386.851 45.4435 387.168 49.4212 384.676 51.808C383.686 52.7575 382.644 53.6896 381.691 54.416C379.821 55.8417 376.397 56.9002 374.202 57.4718C372.917 57.8065 371.568 57.4593 370.548 56.6097Z" fill="#72A6FF"/>
<path d="M343.739 39.6404C344.726 31.7582 351.308 25.7698 359.248 25.5287C367.188 25.2876 374.121 30.8657 375.585 38.6735L377.618 49.5156C379.882 58.9416 372.911 68.0669 363.221 68.3611L357.881 68.5233C348.191 68.8175 340.679 60.1319 342.367 50.5858L343.739 39.6404Z" fill="#85B2FF"/>
<path fill-rule="evenodd" clip-rule="evenodd" d="M368.125 60.0242C368.104 59.6013 367.744 59.2755 367.321 59.2964C366.898 59.3173 366.573 59.6771 366.594 60.1L366.87 65.6812L364.212 61.4155C363.988 61.0561 363.515 60.9463 363.156 61.1702C362.797 61.3941 362.687 61.8669 362.911 62.2263L366.965 68.7333C367.189 69.0927 367.662 69.2025 368.021 68.9786C368.14 68.9046 368.231 68.8035 368.292 68.6882C368.311 68.6599 368.327 68.63 368.342 68.5987L371.598 61.6577C371.777 61.2743 371.612 60.8178 371.229 60.638C370.846 60.4582 370.389 60.6232 370.209 61.0065L368.368 64.9323L368.125 60.0242Z" fill="#F84883"/>
<path d="M356.994 50.1859C357.482 51.8078 359.211 52.7213 360.833 52.2335C362.455 51.7457 363.394 50.0295 362.907 48.4076C362.419 46.7857 360.689 45.8723 359.067 46.3601C357.445 46.8479 356.506 48.564 356.994 50.1859Z" fill="#C4F752"/>
<path d="M363.247 46.4539C363.197 44.7978 361.814 43.496 360.158 43.5463L356.959 43.6434C355.303 43.6937 354.001 45.077 354.052 46.7331C354.102 48.3892 355.485 49.691 357.141 49.6407L360.34 49.5436C361.996 49.4933 363.298 48.11 363.247 46.4539Z" fill="#EAFFBA"/>
<path d="M362.467 40.3113C362.445 39.5919 363.011 38.9909 363.73 38.969C364.45 38.9472 365.051 39.5127 365.073 40.2322L365.087 40.692C365.109 41.4115 364.543 42.0125 363.824 42.0343C363.104 42.0561 362.503 41.4906 362.481 40.7711L362.467 40.3113Z" fill="black"/>
<path d="M352.046 40.6277C352.024 39.9083 352.589 39.3073 353.309 39.2855C354.028 39.2636 354.629 39.8292 354.651 40.5486L354.665 41.0084C354.687 41.7279 354.121 42.3289 353.402 42.3507C352.682 42.3725 352.081 41.807 352.06 41.0875L352.046 40.6277Z" fill="black"/>
<path d="M354.63 40.1957C354.637 40.4165 354.463 40.6009 354.243 40.6076C354.022 40.6143 353.837 40.4408 353.831 40.2199C353.824 39.9991 353.998 39.8147 354.218 39.808C354.439 39.8013 354.624 39.9748 354.63 40.1957Z" fill="white"/>
<path d="M365.026 39.88C365.032 40.1008 364.859 40.2853 364.638 40.292C364.417 40.2987 364.233 40.1251 364.226 39.9043C364.219 39.6835 364.393 39.4991 364.614 39.4924C364.834 39.4857 365.019 39.6592 365.026 39.88Z" fill="white"/>
<rect x="320" y="74.2949" width="80" height="54" fill="#FF90B3"/>
<path d="M337.723 146.225H338.797V152.372H341.995V153.295H337.723V146.225ZM344.714 153.295H343.596L341.672 147.992H342.795L344.128 152.069H344.187L345.524 147.992H346.647L344.714 153.295ZM347.604 153.363C347.48 153.363 347.364 153.331 347.257 153.266C347.149 153.201 347.065 153.116 347.003 153.012C346.944 152.904 346.915 152.789 346.915 152.665C346.915 152.545 346.944 152.431 347.003 152.323C347.065 152.216 347.149 152.133 347.257 152.074C347.364 152.012 347.48 151.981 347.604 151.981C347.724 151.981 347.838 152.012 347.945 152.074C348.053 152.133 348.137 152.216 348.199 152.323C348.261 152.431 348.292 152.545 348.292 152.665C348.292 152.789 348.261 152.904 348.199 153.012C348.137 153.116 348.053 153.201 347.945 153.266C347.838 153.331 347.724 153.363 347.604 153.363Z" fill="#0050D8"/>
<path d="M355.327 151.432C354.625 151.432 353.996 151.313 353.44 151.076C352.889 150.835 352.458 150.504 352.148 150.085C351.843 149.661 351.69 149.185 351.69 148.656C351.69 148.242 351.779 147.854 351.957 147.494C352.139 147.134 352.388 146.838 352.702 146.605C353.021 146.368 353.372 146.223 353.755 146.168V146.106C353.427 146.029 353.135 145.885 352.88 145.676C352.625 145.466 352.424 145.206 352.278 144.896C352.137 144.587 352.066 144.254 352.066 143.898C352.066 143.397 352.208 142.946 352.49 142.545C352.777 142.139 353.167 141.825 353.659 141.602C354.156 141.374 354.712 141.26 355.327 141.26C355.942 141.26 356.498 141.374 356.995 141.602C357.492 141.825 357.882 142.139 358.164 142.545C358.451 142.946 358.595 143.397 358.595 143.898C358.595 144.254 358.52 144.587 358.369 144.896C358.223 145.206 358.023 145.466 357.768 145.676C357.517 145.885 357.225 146.029 356.893 146.106V146.168C357.28 146.223 357.629 146.368 357.938 146.605C358.253 146.838 358.504 147.134 358.69 147.494C358.877 147.854 358.971 148.242 358.971 148.656C358.971 149.185 358.813 149.661 358.499 150.085C358.189 150.504 357.758 150.835 357.207 151.076C356.656 151.313 356.029 151.432 355.327 151.432ZM355.327 150.188C355.751 150.188 356.122 150.119 356.441 149.982C356.76 149.846 357.007 149.652 357.18 149.401C357.353 149.151 357.439 148.866 357.439 148.547C357.439 148.205 357.348 147.902 357.166 147.638C356.984 147.369 356.731 147.159 356.407 147.009C356.088 146.854 355.728 146.776 355.327 146.776C354.926 146.776 354.564 146.854 354.24 147.009C353.917 147.159 353.664 147.369 353.481 147.638C353.304 147.902 353.219 148.205 353.229 148.547C353.219 148.866 353.301 149.151 353.475 149.401C353.648 149.652 353.894 149.846 354.213 149.982C354.532 150.119 354.903 150.188 355.327 150.188ZM355.327 145.601C355.669 145.601 355.977 145.535 356.25 145.402C356.528 145.27 356.742 145.086 356.893 144.849C357.043 144.607 357.118 144.336 357.118 144.035C357.118 143.73 357.043 143.461 356.893 143.229C356.747 142.992 356.537 142.809 356.264 142.682C355.99 142.554 355.678 142.49 355.327 142.49C354.976 142.49 354.662 142.554 354.384 142.682C354.11 142.809 353.898 142.992 353.748 143.229C353.602 143.461 353.529 143.73 353.529 144.035C353.529 144.336 353.607 144.607 353.762 144.849C353.921 145.086 354.135 145.27 354.404 145.402C354.673 145.535 354.981 145.601 355.327 145.601ZM360.624 146.086C360.847 145.835 361.095 145.646 361.369 145.519C361.642 145.386 361.934 145.32 362.244 145.32C362.476 145.32 362.702 145.352 362.921 145.416C363.144 145.475 363.433 145.573 363.789 145.71C364.112 145.838 364.386 145.936 364.609 146.004C364.837 146.072 365.065 146.106 365.293 146.106C365.607 146.106 365.899 146.036 366.168 145.895C366.441 145.753 366.68 145.548 366.885 145.279V146.592C366.662 146.842 366.414 147.034 366.14 147.166C365.867 147.298 365.575 147.364 365.265 147.364C365.033 147.364 364.803 147.33 364.575 147.262C364.351 147.193 364.067 147.095 363.72 146.968C363.401 146.831 363.128 146.731 362.9 146.667C362.672 146.603 362.44 146.571 362.203 146.571C361.897 146.571 361.61 146.642 361.341 146.783C361.077 146.92 360.838 147.125 360.624 147.398V146.086ZM372.489 151.295H370.972V142.907H370.917L368.559 144.452V143.01L371.013 141.396H372.489V151.295ZM378.1 151.432C377.339 151.432 376.688 151.233 376.145 150.837C375.603 150.44 375.188 149.862 374.901 149.101C374.614 148.34 374.471 147.421 374.471 146.346C374.471 145.279 374.614 144.366 374.901 143.604C375.188 142.843 375.605 142.262 376.152 141.861C376.699 141.46 377.348 141.26 378.1 141.26C378.852 141.26 379.502 141.46 380.049 141.861C380.596 142.262 381.013 142.843 381.3 143.604C381.587 144.366 381.73 145.279 381.73 146.346C381.73 147.421 381.587 148.34 381.3 149.101C381.017 149.862 380.602 150.44 380.055 150.837C379.513 151.233 378.861 151.432 378.1 151.432ZM378.1 150.14C378.542 150.14 378.923 149.994 379.242 149.702C379.566 149.41 379.812 148.982 379.98 148.417C380.149 147.847 380.231 147.157 380.226 146.346C380.226 145.535 380.142 144.844 379.973 144.274C379.805 143.705 379.561 143.272 379.242 142.976C378.923 142.679 378.542 142.531 378.1 142.531C377.658 142.531 377.278 142.679 376.959 142.976C376.64 143.272 376.394 143.705 376.221 144.274C376.047 144.844 375.961 145.535 375.961 146.346C375.961 147.157 376.045 147.847 376.214 148.417C376.382 148.982 376.628 149.41 376.952 149.702C377.276 149.994 377.658 150.14 378.1 150.14Z" fill="black"/>
</svg>
