<svg width="221" height="53" viewBox="0 0 221 53" fill="none" xmlns="http://www.w3.org/2000/svg">
<rect width="221" height="38" rx="12" fill="#EFF5FF"/>
<path d="M28.2969 16.2266H25.4492V15.4883H28.2969V16.2266ZM28.2266 18.3945H25.3672V17.6328H28.2266V18.3945ZM29.0586 19.8008H28.1328V13.543H29.0586V19.8008ZM25.8359 14.3164C25.8359 15.1914 25.6387 15.9883 25.2441 16.707C24.8496 17.4258 24.2871 18.041 23.5566 18.5527C22.8262 19.0645 21.957 19.4727 20.9492 19.7773L20.5625 19.0508C21.4609 18.7852 22.2305 18.4395 22.8711 18.0137C23.5117 17.5879 24.002 17.0957 24.3418 16.5371C24.6816 15.9785 24.8516 15.375 24.8516 14.7266V14.3164H25.8359ZM25.4727 15.0898H21.0898V14.3164H25.4727V15.0898ZM25.6484 19.9062C26.3516 19.9062 26.9648 19.9863 27.4883 20.1465C28.0117 20.3066 28.4141 20.5352 28.6953 20.832C28.9766 21.1289 29.1172 21.4844 29.1172 21.8984C29.1172 22.3125 28.9766 22.6699 28.6953 22.9707C28.4141 23.2715 28.0117 23.502 27.4883 23.6621C26.9648 23.8223 26.3516 23.9023 25.6484 23.9023C24.9453 23.9023 24.332 23.8223 23.8086 23.6621C23.2852 23.502 22.8809 23.2715 22.5957 22.9707C22.3105 22.6699 22.168 22.3125 22.168 21.8984C22.168 21.4844 22.3105 21.1289 22.5957 20.832C22.8809 20.5352 23.2852 20.3066 23.8086 20.1465C24.332 19.9863 24.9453 19.9062 25.6484 19.9062ZM25.6484 20.6445C25.1328 20.6367 24.6797 20.6836 24.2891 20.7852C23.8984 20.8867 23.5977 21.0332 23.3867 21.2246C23.1758 21.416 23.0703 21.6406 23.0703 21.8984C23.0703 22.1562 23.1758 22.3789 23.3867 22.5664C23.5977 22.7539 23.8965 22.8984 24.2832 23C24.6699 23.1016 25.125 23.1523 25.6484 23.1523C26.1641 23.1523 26.6133 23.1016 26.9961 23C27.3789 22.8984 27.6758 22.7539 27.8867 22.5664C28.0977 22.3789 28.2031 22.1562 28.2031 21.8984C28.2031 21.6406 28.0977 21.416 27.8867 21.2246C27.6758 21.0332 27.3789 20.8867 26.9961 20.7852C26.6133 20.6836 26.1641 20.6367 25.6484 20.6445ZM39.1297 19.8477H38.2039V13.5312H39.1297V19.8477ZM38.6141 17.4688H36.4344V16.707H38.6141V17.4688ZM39.1297 23.8086H32.3211V20.4102H39.1297V23.8086ZM33.2352 23.0586H38.2273V21.1484H33.2352V23.0586ZM36.5867 15.3828H30.5047V14.6328H36.5867V15.3828ZM33.5398 15.9219C34.0086 15.9219 34.4266 16 34.7937 16.1562C35.1609 16.3125 35.448 16.5312 35.6551 16.8125C35.8621 17.0938 35.9656 17.4141 35.9656 17.7734C35.9656 18.1406 35.8621 18.4648 35.6551 18.7461C35.448 19.0273 35.1609 19.2461 34.7937 19.4023C34.4266 19.5586 34.0086 19.6367 33.5398 19.6367C33.0711 19.6367 32.6551 19.5586 32.2918 19.4023C31.9285 19.2461 31.6434 19.0273 31.4363 18.7461C31.2293 18.4648 31.1258 18.1406 31.1258 17.7734C31.1258 17.4141 31.2293 17.0938 31.4363 16.8125C31.6434 16.5312 31.9285 16.3125 32.2918 16.1562C32.6551 16 33.0711 15.9219 33.5398 15.9219ZM33.5398 16.6367C33.243 16.6367 32.9793 16.6836 32.7488 16.7773C32.5184 16.8711 32.3367 17.0059 32.2039 17.1816C32.0711 17.3574 32.0047 17.5547 32.0047 17.7734C32.0047 18 32.0691 18.1992 32.198 18.3711C32.327 18.543 32.5086 18.6777 32.743 18.7754C32.9773 18.873 33.243 18.9258 33.5398 18.9336C33.8445 18.9258 34.1121 18.873 34.3426 18.7754C34.573 18.6777 34.7527 18.543 34.8816 18.3711C35.0105 18.1992 35.075 18 35.075 17.7734C35.075 17.5547 35.0105 17.3574 34.8816 17.1816C34.7527 17.0059 34.5711 16.8711 34.3367 16.7773C34.1023 16.6836 33.8367 16.6367 33.5398 16.6367ZM33.9969 15.1719H33.0945V13.4375H33.9969V15.1719ZM49.1539 23.9492H48.2281V13.5312H49.1539V23.9492ZM44.2555 16.9297C44.2555 17.6484 44.1266 18.3418 43.8687 19.0098C43.6109 19.6777 43.2555 20.2656 42.8023 20.7734C42.3492 21.2812 41.8453 21.668 41.2906 21.9336L40.775 21.2188C41.2906 20.9844 41.7555 20.6445 42.1695 20.1992C42.5836 19.7539 42.9098 19.2461 43.148 18.6758C43.3863 18.1055 43.5055 17.5234 43.5055 16.9297V15.9922H44.2555V16.9297ZM44.4078 16.9297C44.4078 17.5 44.5309 18.0586 44.777 18.6055C45.023 19.1523 45.359 19.6367 45.7848 20.0586C46.2105 20.4805 46.6812 20.8047 47.1969 21.0312L46.6812 21.7461C46.1187 21.4961 45.609 21.127 45.152 20.6387C44.6949 20.1504 44.3336 19.584 44.068 18.9395C43.8023 18.2949 43.6695 17.625 43.6695 16.9297V15.9922H44.4078V16.9297ZM46.8336 16.0977H41.0562V15.3477H46.8336V16.0977ZM44.4078 15.7695H43.4937V13.7305H44.4078V15.7695ZM61.9602 23.9492H61.0344V13.5312H61.9602V23.9492ZM58.8781 14.668C58.8781 15.6992 58.7082 16.6641 58.3684 17.5625C58.0285 18.4609 57.4953 19.2871 56.7687 20.041C56.0422 20.7949 55.1125 21.4453 53.9797 21.9922L53.4758 21.2422C54.4836 20.7656 55.3195 20.2051 55.9836 19.5605C56.6477 18.916 57.1437 18.1953 57.4719 17.3984C57.8 16.6016 57.9641 15.7383 57.9641 14.8086V14.668H58.8781ZM58.3391 15.418H53.9562V14.668H58.3391V15.418ZM68.3867 14.832C68.3867 15.3945 68.2012 15.9082 67.8301 16.373C67.459 16.8379 66.9668 17.2207 66.3535 17.5215C65.7402 17.8223 65.0703 18.0273 64.3438 18.1367L64.0039 17.4102C64.6289 17.3242 65.2129 17.1562 65.7559 16.9062C66.2988 16.6562 66.7363 16.3496 67.0684 15.9863C67.4004 15.623 67.5664 15.2383 67.5664 14.832V14.5156H68.3867V14.832ZM68.7617 14.832C68.7617 15.2383 68.9297 15.623 69.2656 15.9863C69.6016 16.3496 70.0449 16.6562 70.5957 16.9062C71.1465 17.1562 71.7305 17.3242 72.3477 17.4102L71.9844 18.1367C71.2656 18.0273 70.5977 17.8223 69.9805 17.5215C69.3633 17.2207 68.8691 16.8379 68.498 16.373C68.127 15.9082 67.9414 15.3945 67.9414 14.832V14.5156H68.7617V14.832ZM72.0664 14.8086H64.2852V14.0586H72.0664V14.8086ZM72.9453 19.6602H63.4062V18.8984H72.9453V19.6602ZM68.7031 21.793H67.7891V19.3672H68.7031V21.793ZM71.8789 23.7266H64.625V22.9531H71.8789V23.7266ZM65.5508 23.2461H64.625V20.75H65.5508V23.2461ZM82.0789 23.9727H81.1531V13.5312H82.0789V23.9727ZM76.5359 14.3398C77.0516 14.3398 77.5105 14.4902 77.9129 14.791C78.3152 15.0918 78.6297 15.5156 78.8563 16.0625C79.0828 16.6094 79.1961 17.2461 79.1961 17.9727C79.1961 18.6992 79.0828 19.3359 78.8563 19.8828C78.6297 20.4297 78.3152 20.8516 77.9129 21.1484C77.5105 21.4453 77.0516 21.5938 76.5359 21.5938C76.0203 21.5938 75.5613 21.4453 75.159 21.1484C74.7566 20.8516 74.4422 20.4297 74.2156 19.8828C73.9891 19.3359 73.8758 18.6992 73.8758 17.9727C73.8758 17.2461 73.9891 16.6094 74.2156 16.0625C74.4422 15.5156 74.7566 15.0918 75.159 14.791C75.5613 14.4902 76.0203 14.3398 76.5359 14.3398ZM76.5359 15.1602C76.1922 15.1602 75.8855 15.2773 75.616 15.5117C75.3465 15.7461 75.1375 16.0742 74.9891 16.4961C74.8406 16.918 74.7664 17.4102 74.7664 17.9727C74.7664 18.5273 74.8406 19.0176 74.9891 19.4434C75.1375 19.8691 75.3465 20.1973 75.616 20.4277C75.8855 20.6582 76.1922 20.7734 76.5359 20.7734C76.8797 20.7734 77.1863 20.6582 77.4559 20.4277C77.7254 20.1973 77.9344 19.8691 78.0828 19.4434C78.2313 19.0176 78.3055 18.5273 78.3055 17.9727C78.3055 17.4102 78.2313 16.918 78.0828 16.4961C77.9344 16.0742 77.7273 15.7461 77.4617 15.5117C77.1961 15.2773 76.8875 15.1602 76.5359 15.1602ZM94.2523 14.7383H87.4789V13.9883H94.2523V14.7383ZM95.8109 18.4648H86.2719V17.7148H95.8109V18.4648ZM91.4633 20.4102H90.5609V18.2422H91.4633V20.4102ZM94.557 14.7266C94.557 15.3281 94.5375 15.877 94.4984 16.373C94.4594 16.8691 94.3656 17.4297 94.2172 18.0547L93.3148 17.9492C93.4164 17.5195 93.4906 17.1152 93.5375 16.7363C93.5844 16.3574 93.6137 16.0234 93.6254 15.7344C93.6371 15.4453 93.643 15.1094 93.643 14.7266V13.9883H94.557V14.7266ZM91.018 20.0938C91.7758 20.0938 92.4262 20.168 92.9691 20.3164C93.5121 20.4648 93.9281 20.6816 94.2172 20.9668C94.5062 21.252 94.6508 21.5977 94.6508 22.0039C94.6508 22.4102 94.5062 22.7578 94.2172 23.0469C93.9281 23.3359 93.5121 23.5547 92.9691 23.7031C92.4262 23.8516 91.7758 23.9258 91.018 23.9258C90.2602 23.9258 89.6078 23.8516 89.0609 23.7031C88.5141 23.5547 88.0941 23.3359 87.8012 23.0469C87.5082 22.7578 87.3617 22.4102 87.3617 22.0039C87.3617 21.5977 87.5082 21.252 87.8012 20.9668C88.0941 20.6816 88.5141 20.4648 89.0609 20.3164C89.6078 20.168 90.2602 20.0938 91.018 20.0938ZM91.018 20.832C90.4555 20.832 89.9691 20.8789 89.559 20.9727C89.1488 21.0664 88.8363 21.2012 88.6215 21.377C88.4066 21.5527 88.2992 21.7617 88.2992 22.0039C88.2992 22.2461 88.4066 22.457 88.6215 22.6367C88.8363 22.8164 89.1488 22.9531 89.559 23.0469C89.9691 23.1406 90.4555 23.1875 91.018 23.1875C91.5727 23.1875 92.0531 23.1406 92.4594 23.0469C92.8656 22.9531 93.1781 22.8164 93.3969 22.6367C93.6156 22.457 93.725 22.2461 93.725 22.0039C93.725 21.7617 93.6156 21.5527 93.3969 21.377C93.1781 21.2012 92.8656 21.0664 92.4594 20.9727C92.0531 20.8789 91.5727 20.832 91.018 20.832ZM104.323 14.8555H97.55V14.0938H104.323V14.8555ZM105.882 18.6875H96.343V17.9258H105.882V18.6875ZM104.628 14.8672C104.628 15.4688 104.609 16.0176 104.57 16.5137C104.53 17.0098 104.437 17.5781 104.288 18.2188L103.374 18.1602C103.484 17.7148 103.562 17.2988 103.609 16.9121C103.655 16.5254 103.685 16.1855 103.696 15.8926C103.708 15.5996 103.714 15.2578 103.714 14.8672V14.0938H104.628V14.8672ZM104.675 23.8086H97.5148V20.1289H104.675V23.8086ZM98.4289 23.0586H103.761V20.8555H98.4289V23.0586ZM111.617 16.0859H106.391V15.3359H111.617V16.0859ZM109.004 16.7891C109.441 16.7891 109.83 16.8887 110.17 17.0879C110.51 17.2871 110.777 17.5664 110.973 17.9258C111.168 18.2852 111.266 18.6953 111.266 19.1562C111.266 19.6172 111.168 20.0273 110.973 20.3867C110.777 20.7461 110.51 21.0293 110.17 21.2363C109.83 21.4434 109.441 21.5469 109.004 21.5469C108.574 21.5469 108.189 21.4434 107.85 21.2363C107.51 21.0293 107.244 20.7441 107.053 20.3809C106.861 20.0176 106.766 19.6094 106.766 19.1562C106.766 18.7031 106.861 18.2949 107.053 17.9316C107.244 17.5684 107.51 17.2871 107.85 17.0879C108.189 16.8887 108.574 16.7891 109.004 16.7891ZM109.004 17.5625C108.738 17.5625 108.496 17.6328 108.277 17.7734C108.059 17.9141 107.889 18.1035 107.768 18.3418C107.646 18.5801 107.586 18.8516 107.586 19.1562C107.586 19.4609 107.648 19.7344 107.773 19.9766C107.898 20.2188 108.068 20.4062 108.283 20.5391C108.498 20.6719 108.738 20.7383 109.004 20.7383C109.277 20.7383 109.523 20.6719 109.742 20.5391C109.961 20.4062 110.133 20.2188 110.258 19.9766C110.383 19.7344 110.445 19.4609 110.445 19.1562C110.445 18.8516 110.383 18.5801 110.258 18.3418C110.133 18.1035 109.961 17.9141 109.742 17.7734C109.523 17.6328 109.277 17.5625 109.004 17.5625ZM115.285 23.9492H114.406V13.5312H115.285V23.9492ZM114.699 18.6875H112.707V17.9258H114.699V18.6875ZM113.023 23.4336H112.156V13.7891H113.023V23.4336ZM109.473 15.793H108.559V13.8477H109.473V15.793ZM118.149 20.5508C118.157 20.043 118.21 19.6328 118.307 19.3203C118.405 19.0078 118.544 18.7559 118.723 18.5645C118.903 18.373 119.145 18.1875 119.45 18.0078C119.708 17.8516 119.915 17.6523 120.071 17.4102C120.227 17.168 120.305 16.8945 120.305 16.5898C120.305 16.332 120.245 16.1035 120.124 15.9043C120.003 15.7051 119.835 15.5527 119.62 15.4473C119.405 15.3418 119.169 15.2891 118.911 15.2891C118.677 15.2891 118.458 15.3359 118.255 15.4297C118.052 15.5234 117.882 15.6738 117.745 15.8809C117.608 16.0879 117.528 16.3438 117.505 16.6484H116.438C116.462 16.1875 116.585 15.7871 116.807 15.4473C117.03 15.1074 117.325 14.8477 117.692 14.668C118.059 14.4883 118.466 14.3984 118.911 14.3984C119.395 14.3984 119.821 14.4941 120.188 14.6855C120.555 14.877 120.839 15.1426 121.038 15.4824C121.237 15.8223 121.337 16.207 121.337 16.6367C121.337 17.082 121.237 17.4688 121.038 17.7969C120.839 18.125 120.552 18.4062 120.177 18.6406C119.927 18.7891 119.731 18.9453 119.591 19.1094C119.45 19.2734 119.345 19.4688 119.274 19.6953C119.204 19.9219 119.165 20.207 119.157 20.5508V20.6094H118.149V20.5508ZM118.688 23.0703C118.555 23.0703 118.43 23.0352 118.313 22.9648C118.196 22.8945 118.104 22.8008 118.038 22.6836C117.971 22.5664 117.938 22.4414 117.938 22.3086C117.938 22.1758 117.971 22.0508 118.038 21.9336C118.104 21.8164 118.196 21.7246 118.313 21.6582C118.43 21.5918 118.555 21.5586 118.688 21.5586C118.821 21.5586 118.946 21.5918 119.063 21.6582C119.18 21.7246 119.272 21.8164 119.339 21.9336C119.405 22.0508 119.438 22.1758 119.438 22.3086C119.438 22.4414 119.405 22.5664 119.339 22.6836C119.272 22.8008 119.18 22.8945 119.063 22.9648C118.946 23.0352 118.821 23.0703 118.688 23.0703ZM125.694 20.6094C126.444 20.6094 127.118 20.5898 127.715 20.5508C128.313 20.5117 128.948 20.4336 129.62 20.3164L129.69 21.0781C129.018 21.1953 128.389 21.2734 127.803 21.3125C127.217 21.3516 126.514 21.375 125.694 21.3828H125.002V20.6094H125.694ZM128.717 18.2891H125.893V20.9375H125.002V17.5273H127.838V15.4531H124.979V14.6914H128.717V18.2891ZM133.557 23.9492H132.678V13.5312H133.557V23.9492ZM130.955 18.043H129.221V17.293H130.955V18.043ZM131.424 23.3984H130.557V13.7891H131.424V23.3984ZM143.57 19.0273H142.691V13.543H143.57V19.0273ZM141.507 18.9688H140.64V13.7539H141.507V18.9688ZM140.991 16.6719H138.988V15.8984H140.991V16.6719ZM143.57 21.9688H137.593V23.5508H136.679V21.2656H142.667V20.2578H136.655V19.5312H143.57V21.9688ZM143.991 23.832H136.679V23.0938H143.991V23.832ZM136.07 15.5352H138.39V14.1523H139.257V18.5234H135.202V14.1523H136.07V15.5352ZM138.39 17.7969V16.25H136.07V17.7969H138.39ZM153.395 19.9531H152.48V13.543H153.395V19.9531ZM146.188 18.5352C147.234 18.5352 148.131 18.5137 148.877 18.4707C149.623 18.4277 150.391 18.3398 151.18 18.207L151.285 18.9688C150.465 19.1016 149.67 19.1914 148.9 19.2383C148.131 19.2852 147.227 19.3086 146.188 19.3086H145.344V18.5352H146.188ZM150.078 17.0586H146.234V18.9805H145.344V16.332H149.164V14.9727H145.32V14.1992H150.078V17.0586ZM149.938 20.1641C150.664 20.1641 151.293 20.2383 151.824 20.3867C152.355 20.5352 152.762 20.75 153.043 21.0312C153.324 21.3125 153.465 21.6523 153.465 22.0508C153.465 22.4414 153.324 22.7773 153.043 23.0586C152.762 23.3398 152.357 23.5547 151.83 23.7031C151.303 23.8516 150.672 23.9258 149.938 23.9258C149.211 23.9258 148.584 23.8516 148.057 23.7031C147.529 23.5547 147.125 23.3398 146.844 23.0586C146.562 22.7773 146.422 22.4414 146.422 22.0508C146.422 21.6523 146.562 21.3125 146.844 21.0312C147.125 20.75 147.529 20.5352 148.057 20.3867C148.584 20.2383 149.211 20.1641 149.938 20.1641ZM149.938 20.9023C149.406 20.9023 148.943 20.9473 148.549 21.0371C148.154 21.127 147.852 21.2578 147.641 21.4297C147.43 21.6016 147.324 21.8086 147.324 22.0508C147.324 22.2852 147.43 22.4883 147.641 22.6602C147.852 22.832 148.154 22.9629 148.549 23.0527C148.943 23.1426 149.406 23.1875 149.938 23.1875C150.477 23.1875 150.941 23.1426 151.332 23.0527C151.723 22.9629 152.021 22.832 152.229 22.6602C152.436 22.4883 152.539 22.2852 152.539 22.0508C152.539 21.8086 152.436 21.6016 152.229 21.4297C152.021 21.2578 151.723 21.127 151.332 21.0371C150.941 20.9473 150.477 20.9023 149.938 20.9023ZM165.673 16.2148H162.966V15.4531H165.673V16.2148ZM166.212 18.9219H165.287V13.5312H166.212V18.9219ZM166.212 21.9336H160.388V23.5273H159.486V21.2305H165.298V20.1875H159.462V19.4492H166.212V21.9336ZM166.599 23.8086H159.486V23.0703H166.599V23.8086ZM160.962 14.8555C160.962 15.4883 160.843 16.0762 160.605 16.6191C160.367 17.1621 160.029 17.6328 159.591 18.0312C159.154 18.4297 158.646 18.7344 158.068 18.9453L157.564 18.207C158.087 18.0352 158.548 17.7812 158.947 17.4453C159.345 17.1094 159.658 16.7188 159.884 16.2734C160.111 15.8281 160.224 15.3555 160.224 14.8555V13.8711H160.962V14.8555ZM161.127 14.8555C161.127 15.3008 161.236 15.7305 161.455 16.1445C161.673 16.5586 161.98 16.9238 162.375 17.2402C162.769 17.5566 163.216 17.8008 163.716 17.9727L163.224 18.6875C162.67 18.4844 162.175 18.1934 161.742 17.8145C161.308 17.4355 160.97 16.9922 160.728 16.4844C160.486 15.9766 160.365 15.4336 160.365 14.8555V13.8711H161.127V14.8555ZM175.721 15.9922H172.651V15.2305H175.721V15.9922ZM175.733 18.0664H172.651V17.293H175.733V18.0664ZM176.284 19.707H175.358V13.5312H176.284V19.707ZM172.92 18.957H168.139V14.3281H172.92V18.957ZM169.053 18.207H172.018V15.0781H169.053V18.207ZM172.827 20.0117C173.553 20.0117 174.178 20.0879 174.702 20.2402C175.225 20.3926 175.625 20.6172 175.903 20.9141C176.18 21.2109 176.319 21.5664 176.319 21.9805C176.319 22.3867 176.18 22.7363 175.903 23.0293C175.625 23.3223 175.225 23.5449 174.702 23.6973C174.178 23.8496 173.553 23.9258 172.827 23.9258C172.108 23.9258 171.487 23.8496 170.963 23.6973C170.44 23.5449 170.038 23.3223 169.756 23.0293C169.475 22.7363 169.334 22.3867 169.334 21.9805C169.334 21.5664 169.475 21.2109 169.756 20.9141C170.038 20.6172 170.44 20.3926 170.963 20.2402C171.487 20.0879 172.108 20.0117 172.827 20.0117ZM172.827 20.7266C172.295 20.7266 171.836 20.7773 171.45 20.8789C171.063 20.9805 170.766 21.125 170.559 21.3125C170.352 21.5 170.248 21.7227 170.248 21.9805C170.248 22.2227 170.352 22.4355 170.559 22.6191C170.766 22.8027 171.065 22.9453 171.455 23.0469C171.846 23.1484 172.303 23.1992 172.827 23.1992C173.358 23.1992 173.817 23.1484 174.204 23.0469C174.59 22.9453 174.887 22.8047 175.094 22.625C175.301 22.4453 175.405 22.2305 175.405 21.9805C175.405 21.7227 175.301 21.5 175.094 21.3125C174.887 21.125 174.59 20.9805 174.204 20.8789C173.817 20.7773 173.358 20.7266 172.827 20.7266ZM189.969 22.6133H180.43V21.8516H189.969V22.6133ZM185.621 22.0859H184.719V19.332H185.621V22.0859ZM182.48 16.1562H187.895V14.2695H188.797V19.6016H181.555V14.2695H182.48V16.1562ZM187.895 18.8516V16.9062H182.48V18.8516H187.895ZM199.114 23.9492H198.188V13.5312H199.114V23.9492ZM196.032 14.668C196.032 15.6992 195.862 16.6641 195.522 17.5625C195.182 18.4609 194.649 19.2871 193.923 20.041C193.196 20.7949 192.266 21.4453 191.134 21.9922L190.63 21.2422C191.637 20.7656 192.473 20.2051 193.137 19.5605C193.802 18.916 194.298 18.1953 194.626 17.3984C194.954 16.6016 195.118 15.7383 195.118 14.8086V14.668H196.032ZM195.493 15.418H191.11V14.668H195.493V15.418Z" fill="#0050D8"/>
<path fill-rule="evenodd" clip-rule="evenodd" d="M183.68 38L192.34 53L201 38H183.68Z" fill="#EFF5FF"/>
</svg>
