<svg width="24" height="24" viewBox="0 0 24 24" fill="none" xmlns="http://www.w3.org/2000/svg">
<path d="M11.2329 12.7971C11.1243 13.1652 11.0653 13.649 11.0559 14.2485V14.3547H12.4932V14.2485C12.4979 13.8614 12.5427 13.5405 12.6277 13.2856C12.7126 13.026 12.8377 12.8018 13.0029 12.613C13.1729 12.4242 13.4041 12.2425 13.6968 12.0678C14.1641 11.7799 14.5228 11.44 14.7729 11.0483C15.0231 10.6518 15.1482 10.1798 15.1482 9.63226C15.1482 9.09418 15.0208 8.61981 14.7659 8.20917C14.511 7.7938 14.1499 7.47284 13.6826 7.24628C13.2153 7.01971 12.6772 6.90643 12.0684 6.90643C11.502 6.90643 10.9875 7.01499 10.5249 7.23212C10.0671 7.44924 9.69889 7.7702 9.42041 8.19501C9.14193 8.61509 8.99089 9.11778 8.96729 9.70306H10.4966C10.5202 9.36794 10.6075 9.08474 10.7585 8.85345C10.9096 8.62217 11.0984 8.45225 11.325 8.34369C11.5562 8.23513 11.8017 8.18085 12.0613 8.18085C12.3492 8.18085 12.6112 8.23985 12.8472 8.35785C13.0832 8.47585 13.2673 8.64577 13.3994 8.86761C13.5316 9.08474 13.5977 9.3349 13.5977 9.6181C13.5977 9.96267 13.5033 10.2718 13.3145 10.5456C13.1304 10.8194 12.8755 11.0554 12.5498 11.2536C12.2005 11.466 11.922 11.6855 11.7144 11.912C11.5067 12.1339 11.3462 12.4289 11.2329 12.7971Z" fill="#0050D8"/>
<path d="M11.3179 17.2575C11.4736 17.3519 11.6412 17.3991 11.8206 17.3991C11.9952 17.3991 12.1604 17.3519 12.3162 17.2575C12.4719 17.1631 12.5946 17.0404 12.6843 16.8893C12.774 16.7336 12.8188 16.566 12.8188 16.3867C12.8188 16.212 12.774 16.0468 12.6843 15.8911C12.5946 15.7353 12.4719 15.6149 12.3162 15.53C12.1604 15.4403 11.9952 15.3954 11.8206 15.3954C11.6412 15.3954 11.4736 15.4403 11.3179 15.53C11.1621 15.6149 11.0394 15.7353 10.9497 15.8911C10.8647 16.0468 10.8223 16.212 10.8223 16.3867C10.8223 16.566 10.8647 16.7336 10.9497 16.8893C11.0394 17.0404 11.1621 17.1631 11.3179 17.2575Z" fill="#0050D8"/>
<path fill-rule="evenodd" clip-rule="evenodd" d="M21 12C21 16.9706 16.9706 21 12 21C7.02944 21 3 16.9706 3 12C3 7.02944 7.02944 3 12 3C16.9706 3 21 7.02944 21 12ZM19.5 12C19.5 16.1421 16.1421 19.5 12 19.5C7.85786 19.5 4.5 16.1421 4.5 12C4.5 7.85786 7.85786 4.5 12 4.5C16.1421 4.5 19.5 7.85786 19.5 12Z" fill="#0050D8"/>
</svg>
