<svg width="153" height="35" viewBox="0 0 153 35" fill="none" xmlns="http://www.w3.org/2000/svg">
<g id="Logo">
<path d="M133.467 9.58523H138.538V18.8026H138.836L146.1 9.58523H152.11L144.385 19.2202L152.245 31.1818H146.159L140.656 22.6058L138.538 25.2607V31.1818H133.467V9.58523Z" fill="#3277ED"/>
<path d="M111.212 31.1818L118.52 9.58523H125.247L132.57 31.1818H127.111L121.981 14.9247H121.802L116.671 31.1818H111.212ZM127.708 22.6655V26.5582H116V22.6655H127.708Z" fill="#3277ED"/>
<path d="M94.7641 9.58523H109.724V13.7315H99.8351V18.3104H108.948V22.4418H99.8351V27.0355H109.724V31.1818H94.7641V9.58523Z" fill="#3277ED"/>
<path d="M76.6186 9.58523H85.4481C87.049 9.58523 88.441 9.89844 89.6243 10.5249C90.8075 11.1413 91.7173 12.0163 92.3537 13.1499C92.99 14.2734 93.3082 15.5661 93.3082 17.0277C93.3082 18.5092 92.9801 19.8068 92.3238 20.9205C91.6775 22.0241 90.7528 22.8842 89.5497 23.5007C88.3466 24.1072 86.9297 24.4105 85.299 24.4105H79.7954V20.3835H84.3892C85.1747 20.3835 85.8409 20.2493 86.3878 19.9808C86.9346 19.7024 87.3473 19.3146 87.6257 18.8175C87.9041 18.3104 88.0433 17.7138 88.0433 17.0277C88.0433 16.3416 87.9041 15.75 87.6257 15.2528C87.3473 14.7557 86.9346 14.3729 86.3878 14.1044C85.8508 13.8359 85.1797 13.7017 84.3743 13.7017H81.6896V31.1818H76.6186V9.58523Z" fill="#3277ED"/>
<path d="M73.3224 31.1818H68.9971L60.2571 18.5043H60.093V31.1818H55.022V9.58523H59.4219L68.0724 22.2479H68.2663V9.58523H73.3224V31.1818Z" fill="#3277ED"/>
<path d="M51.8935 31.1818H46.8224V9.58523H51.8935V31.1818Z" fill="#3277ED"/>
<path fill-rule="evenodd" clip-rule="evenodd" d="M38.1818 17.5C38.1818 20.174 37.5275 22.708 36.3577 24.9747L39.8747 31.0662H31.1516C27.8637 33.5253 23.6652 35 19.0909 35C8.54729 35 0 27.165 0 17.5C0 7.83502 8.54729 0 19.0909 0C29.6345 0 38.1818 7.83502 38.1818 17.5ZM11.4545 13.3636C10.4002 13.3636 9.54545 14.2184 9.54545 15.2727V20.3636C9.54545 21.418 10.4002 22.2727 11.4545 22.2727C12.5089 22.2727 13.3636 21.418 13.3636 20.3636V15.2727C13.3636 14.2184 12.5089 13.3636 11.4545 13.3636ZM17.1818 17.1818C17.1818 16.1275 18.0365 15.2727 19.0909 15.2727C20.1453 15.2727 21 16.1275 21 17.1818V18.4545C21 19.5089 20.1453 20.3636 19.0909 20.3636C18.0365 20.3636 17.1818 19.5089 17.1818 18.4545V17.1818ZM26.7273 14.3182C25.6729 14.3182 24.8182 15.1729 24.8182 16.2273V19.4091C24.8182 20.4635 25.6729 21.3182 26.7273 21.3182C27.7816 21.3182 28.6364 20.4635 28.6364 19.4091V16.2273C28.6364 15.1729 27.7816 14.3182 26.7273 14.3182Z" fill="#3277ED"/>
</g>
</svg>
