<svg width="60" height="57" viewBox="0 0 60 57" fill="none" xmlns="http://www.w3.org/2000/svg">
<path d="M19.8007 6.28644C20.3421 6.05602 20.8752 5.80332 21.4264 5.59838C23.7443 4.73815 26.1489 4.27612 28.6112 4.14321C31.4295 3.99111 34.1977 4.33074 36.9016 5.15039C39.8837 6.05438 42.5997 7.47534 45.0476 9.40723C47.1689 11.0815 48.9632 13.0579 50.4398 15.3229C50.5394 15.4758 50.6962 15.6132 50.5642 15.8467C50.5103 15.9423 50.5631 16.0989 50.5678 16.2543C50.7081 16.2254 50.8239 16.2017 50.9802 16.1694C51.3239 16.8133 51.6712 17.4624 52.0366 18.1472C51.6949 18.1952 51.4078 18.2504 51.1191 18.2659C51.0444 18.2701 50.9353 18.1671 50.8891 18.0861C50.4294 17.2785 50.0174 16.4408 49.5155 15.6614C49.0851 14.9932 48.5717 14.3755 48.0665 13.7589C45.6804 10.8461 42.7604 8.63076 39.3226 7.10607C36.6227 5.9092 33.7947 5.25388 30.8436 5.12629C29.2237 5.05621 27.6204 5.18555 26.0167 5.40926C24.9505 5.55798 23.9185 5.83622 22.9024 6.15795C21.8846 6.48049 20.877 6.85932 19.9098 7.31077C18.9352 7.76613 17.997 8.31011 17.0766 8.87045C15.8383 9.62522 14.7249 10.5493 13.6626 11.5377C12.957 12.1942 12.3102 12.9041 11.7062 13.6509C11.5031 13.9023 11.3203 14.0303 11.0101 13.8928C10.9615 13.871 10.9019 13.8731 10.833 13.8622C10.6808 14.1059 10.8313 14.3369 10.8443 14.5676C10.8479 14.6335 10.8566 14.7157 10.8234 14.7638C10.5235 15.2072 10.2148 15.6444 9.89169 16.1088C9.683 15.9386 9.49857 16.0548 9.40828 16.2321C9.3653 16.3159 9.49443 16.4881 9.565 16.6697C8.77763 18.0109 8.05696 19.4697 7.56454 21.0267C7.25065 22.0196 7.00732 23.0358 6.73933 24.0428C6.69571 24.2073 6.59132 24.2802 6.47712 24.3929C6.22325 24.6441 5.92033 24.538 5.60518 24.6818C5.69951 24.2004 5.77475 23.7617 5.8729 23.3278C6.61637 20.0466 7.96819 17.0399 9.93274 14.3106C11.3489 12.3425 13.0217 10.6253 14.9416 9.1494C15.044 9.07042 15.157 8.99339 15.2778 8.95183C15.515 8.87047 15.7884 8.85148 15.8214 8.51419C15.8243 8.48234 15.89 8.45481 15.9285 8.42825C17.108 7.6206 18.3474 6.91883 19.6466 6.32238C19.697 6.2993 19.7544 6.29008 19.8081 6.27453C19.7979 6.29884 19.7846 6.32241 19.778 6.34793C19.7542 6.43472 19.7328 6.52175 19.7103 6.60894C19.7967 6.61908 19.901 6.66385 19.9655 6.63136C20.0586 6.58397 20.1227 6.47952 20.1993 6.39959C20.139 6.34805 20.0852 6.27388 20.016 6.25217C19.9529 6.23304 19.8723 6.27237 19.7993 6.28491L19.8007 6.28644ZM17.0557 8.61619C17.2471 8.40408 17.4418 8.19439 17.6211 7.97257C17.6318 7.95963 17.5274 7.80056 17.4611 7.78758C17.2746 7.75093 16.8185 8.07682 16.7562 8.26276C16.684 8.47925 16.7766 8.59482 17.0557 8.61619ZM21.5869 6.03822C21.9077 6.20689 22.2075 6.18532 22.3829 5.95148C22.4468 5.86648 22.4707 5.69965 22.4311 5.60462C22.4039 5.541 22.2283 5.50109 22.1276 5.51468C21.8405 5.55389 21.6824 5.75615 21.5869 6.03822ZM6.26561 23.0663C6.57003 23.1424 6.77876 23.053 6.78545 22.8206C6.78843 22.7282 6.68146 22.5797 6.59206 22.5483C6.44567 22.4969 6.27963 22.7683 6.26561 23.0663ZM27.3848 4.97404C27.4597 4.85376 27.5287 4.78062 27.5454 4.69654C27.5514 4.66598 27.4141 4.56181 27.3729 4.57676C27.2914 4.60592 27.2315 4.69494 27.1629 4.75888C27.223 4.8173 27.2831 4.87573 27.3848 4.97404Z" fill="#3277ED"/>
<path d="M25.5372 52.9333C25.6586 52.8111 25.7543 52.7331 25.8262 52.6361C25.877 52.5678 25.8942 52.475 25.9267 52.3933C25.8267 52.3554 25.7121 52.2663 25.6298 52.2899C25.4742 52.3352 25.3135 52.4212 25.197 52.5336C24.9574 52.7645 24.7172 52.7965 24.3917 52.7205C21.2523 51.9878 18.3625 50.6982 15.7259 48.8437C14.1817 47.7576 12.7774 46.5106 11.5245 45.0949C11.5001 45.0675 11.4797 45.0361 11.4699 45.0232C11.7241 44.8228 11.9732 44.6272 12.2063 44.443C12.8933 45.1031 13.5912 45.8281 14.3455 46.488C17.7333 49.4509 21.6539 51.2947 26.09 52.0337C26.3768 52.0814 26.6678 52.1068 26.9538 52.1575C27.1251 52.1877 27.3285 52.1248 27.4006 52.4148C27.4376 52.5645 27.6453 52.5004 27.7816 52.3944C27.8628 52.331 27.9801 52.2693 28.0768 52.2757C29.9127 52.4012 31.7381 52.3263 33.5569 52.0461C33.6662 52.029 33.7944 52.0847 33.9045 52.1293C34.0913 52.2048 34.2426 52.2178 34.3375 51.9964C34.3577 51.9495 34.417 51.9006 34.4671 51.8879C34.9954 51.7547 35.5257 51.6282 36.0556 51.5028C36.108 51.4903 36.1771 51.4789 36.2186 51.5022C36.3878 51.5985 36.4695 51.5178 36.596 51.3994C36.7165 51.287 36.9118 51.2482 37.0793 51.1943C39.7737 50.3343 42.2269 49.0207 44.4426 47.2632C47.5286 44.8152 49.8534 41.7758 51.4465 38.1727C51.6326 37.7516 51.7962 37.3211 51.979 36.873C52.1969 36.9584 52.3752 36.8796 52.4099 36.6518C52.425 36.552 52.2973 36.4305 52.2275 36.3071C52.482 35.2574 52.7472 34.153 53.023 33.0516C53.04 32.9853 53.1361 32.9066 53.2071 32.892C53.4733 32.8386 53.7442 32.8102 54.0759 32.7636C53.9734 33.2884 53.8779 33.7774 53.7787 34.2852C53.6206 34.26 53.4864 34.2388 53.3259 34.2128C53.269 34.51 53.2811 34.7666 53.4657 35.0088C53.5147 35.0733 53.5357 35.1938 53.5139 35.2741C52.8936 37.5486 51.9569 39.6865 50.716 41.6882C49.0775 44.3311 47.0145 46.5873 44.5267 48.4499C42.4733 49.9869 40.2449 51.2038 37.8012 51.9845C36.578 52.3753 35.3158 52.6431 34.0708 52.9638C33.9717 52.9892 33.8674 52.9941 33.7685 53.008C33.5889 52.6189 33.5298 52.6203 33.2002 52.905C33.0614 53.0251 32.8736 53.1378 32.6973 53.1575C30.3513 53.4238 28.0107 53.3801 25.6816 52.9708C25.6477 52.9647 25.6147 52.9533 25.5359 52.9324L25.5372 52.9333ZM48.791 43.4249C49.1189 43.4937 49.3069 43.4107 49.311 43.1678C49.3126 43.0738 49.203 42.9269 49.1117 42.894C48.9724 42.8444 48.7977 43.1399 48.791 43.4249ZM50.5428 40.3505C50.4431 40.5583 50.3676 40.6781 50.3341 40.8091C50.325 40.8458 50.4856 40.9661 50.4918 40.9613C50.6099 40.8561 50.7222 40.742 50.8168 40.6161C50.824 40.6065 50.6879 40.4902 50.5429 40.3511L50.5428 40.3505ZM24.0583 51.8821C23.8394 51.9117 23.6507 51.9605 23.628 52.2049C23.6259 52.2263 23.8114 52.3049 23.8951 52.2874C24.0977 52.244 24.2116 52.1246 24.0583 51.8821ZM39.9291 50.4057L39.9719 50.5437C40.1053 50.5392 40.2392 50.5347 40.3727 50.5302L40.3526 50.1158C40.3219 50.1041 40.2907 50.093 40.26 50.0814C40.1497 50.1895 40.0393 50.297 39.929 50.4051L39.9291 50.4057Z" fill="#3277ED"/>
<path d="M15.9461 39.1298L15.8096 38.1585C15.9157 38.1384 16.0128 38.1151 16.1113 38.1012C25.9496 36.7178 35.7888 35.3359 45.6262 33.9456C45.9075 33.9061 45.9782 33.9876 46.0069 34.2482C46.0773 34.8911 46.0895 34.8928 45.4491 34.9828C37.2511 36.1351 29.0534 37.2863 20.8553 38.4381C19.3385 38.6513 17.8219 38.8656 16.3052 39.0794C16.1956 39.0948 16.0859 39.1102 15.9461 39.1298ZM26.293 37.6394C26.6362 37.2808 26.6503 37.1462 26.39 36.8359C26.0128 37.0575 25.9714 37.356 26.293 37.6394ZM20.7971 38.2228C20.9712 38.0977 21.2206 38.0501 21.1378 37.7776C21.1229 37.7283 20.8881 37.6813 20.816 37.728C20.6377 37.8434 20.6183 38.0216 20.7971 38.2228ZM23.4174 37.579C23.449 37.5842 23.4804 37.589 23.512 37.5942C23.5373 37.5107 23.6084 37.3955 23.577 37.3508C23.5299 37.2831 23.4126 37.2641 23.3249 37.225C23.3082 37.2479 23.2915 37.2709 23.2753 37.2943C23.3229 37.3893 23.3699 37.4839 23.4174 37.579Z" fill="#3277ED"/>
<path d="M43.8979 19.2796L13.7674 23.5149L13.6348 22.571C13.7326 22.5527 13.838 22.5282 13.9449 22.5132C21.1028 21.5082 28.2614 20.5042 35.4192 19.4986C38.0904 19.1232 40.7623 18.7487 43.4318 18.3615C43.7057 18.3219 43.8052 18.393 43.815 18.6614C43.8219 18.8565 43.8656 19.0504 43.8979 19.2796ZM35.4099 20.0006C35.5191 19.8641 35.5903 19.7741 35.6621 19.6845C35.5908 19.6397 35.4984 19.5424 35.4514 19.561C35.3449 19.6028 35.2601 19.7016 35.1669 19.777C35.2318 19.8371 35.2967 19.8971 35.4095 20.0013L35.4099 20.0006Z" fill="#3277ED"/>
<path d="M48.3247 38.9854L48.3825 39.3968C48.454 39.4022 48.5249 39.4076 48.6097 39.4146C48.5993 39.4503 48.5955 39.488 48.5785 39.5173C47.8393 40.8117 46.9713 42.0134 45.9818 43.1259C44.978 44.2541 43.8741 45.2746 42.6553 46.1678C42.4583 46.3121 42.2606 46.4554 42.0563 46.5887C41.888 46.6981 41.7516 46.8676 41.4872 46.7556C41.3938 46.7161 41.1676 46.8434 41.0818 46.9554C40.4008 47.8525 39.3524 48.1433 38.4078 48.6013C38.144 48.7293 37.8418 48.7746 37.5651 48.8792C37.1665 49.0301 36.7836 49.2274 36.3788 49.3581C34.8441 49.8539 33.2718 50.1749 31.6621 50.2914C31.0032 50.3389 30.3415 50.3747 29.6809 50.3693C28.9962 50.3632 28.3095 50.3266 27.6289 50.2559C26.9576 50.1868 26.2874 50.0815 25.6255 49.9494C24.9637 49.8178 24.3036 49.6619 23.6573 49.4664C20.9836 48.6585 18.5501 47.3853 16.3663 45.6358C15.0469 44.5787 13.8591 43.391 12.8271 42.05C12.7315 41.9257 12.6681 41.7546 12.6502 41.5988C12.6299 41.4216 12.5571 41.3381 12.4033 41.266C12.269 41.2031 12.1221 41.1117 12.0442 40.9918C11.6008 40.3082 11.1762 39.6123 10.741 38.9139C11.1944 38.7227 11.2407 38.7396 11.4438 39.0934C13.979 43.5097 17.6114 46.6548 22.3531 48.4895C25.9321 49.8743 29.6317 50.2224 33.4059 49.5708C37.7697 48.8173 41.5379 46.869 44.7017 43.7568C44.872 43.5888 45.087 43.4632 45.242 43.2836C45.6009 42.8668 45.9575 42.4452 46.2743 41.9965C46.9252 41.0763 47.5495 40.1374 48.184 39.2058C48.2199 39.1527 48.2526 39.0973 48.3234 38.9844L48.3247 38.9854Z" fill="#3277ED"/>
<path d="M34.1031 45.4196C33.5245 45.206 33.0099 45.0303 32.5081 44.8242C32.249 44.7177 32.0485 44.7191 31.8184 44.904C31.3879 45.2497 30.9311 45.5626 30.4274 45.9317C30.4318 45.6865 30.431 45.4985 30.44 45.3109C30.4603 44.8788 30.4949 44.4476 30.5021 44.0156C30.5038 43.9262 30.4315 43.8055 30.3564 43.7497C29.8946 43.41 29.4224 43.0854 28.9538 42.7546C28.9183 42.7293 28.8871 42.6977 28.8144 42.6347C29.4064 42.4727 29.9517 42.3068 30.5058 42.1787C30.7593 42.1202 30.8796 41.9981 30.9511 41.752C31.1073 41.2116 31.2956 40.6804 31.4888 40.0909C31.7601 40.4911 32.0084 40.85 32.2488 41.2135C32.663 41.8394 32.661 41.8374 33.4043 41.8181C33.8413 41.807 34.279 41.8089 34.7825 41.8038C34.3861 42.2905 34.0379 42.731 33.6742 43.1588C33.5167 43.3444 33.4465 43.5029 33.5536 43.7576C33.7312 44.1813 33.8555 44.6274 34.0002 45.0648C34.032 45.161 34.0572 45.2592 34.1036 45.419L34.1031 45.4196ZM33.2137 43.1652C33.3238 43.0314 33.3988 42.9397 33.4743 42.8479C33.3915 42.8024 33.2933 42.7042 33.2304 42.7239C33.132 42.7537 33.0578 42.863 32.9732 42.9389C33.0395 43.0011 33.1053 43.0633 33.2144 43.1657L33.2137 43.1652Z" fill="#3277ED"/>
<path d="M27.4418 11.3692C27.8001 11.8893 28.137 12.3672 28.4614 12.8537C28.5639 13.0068 28.6643 13.0841 28.8674 13.0762C29.4642 13.0534 30.0623 13.0643 30.7326 13.0615C30.3721 13.5117 30.0767 13.9339 29.7252 14.3022C29.4597 14.5802 29.4215 14.8239 29.5663 15.1722C29.7601 15.6382 29.8952 16.129 30.0774 16.6744C29.6441 16.5176 29.2481 16.4229 28.9014 16.2367C28.3334 15.9325 27.8686 15.9772 27.4002 16.4346C27.1213 16.707 26.7679 16.903 26.4471 17.1327C26.4409 17.137 26.4291 17.1341 26.3805 17.1375C26.4007 16.6522 26.3812 16.164 26.4514 15.6895C26.5168 15.2459 26.3813 14.9797 25.9989 14.7625C25.6245 14.55 25.2854 14.2753 24.9321 14.026C24.8903 13.9964 24.8566 13.9555 24.7848 13.8872C25.2911 13.7475 25.7518 13.5884 26.2261 13.4977C26.6488 13.4172 26.8891 13.2359 26.984 12.7911C27.0856 12.3167 27.2777 11.8616 27.4406 11.3688L27.4418 11.3692ZM28.4551 14.363C28.623 14.2834 28.7861 14.2062 28.893 14.1551C28.9846 14.2634 29.0546 14.4045 29.1097 14.399C29.2183 14.3883 29.3428 14.3165 29.4165 14.2319C29.4764 14.1629 29.4884 14.0377 29.4886 13.9376C29.4889 13.8587 29.4532 13.726 29.4069 13.7131C29.3363 13.6939 29.1971 13.734 29.1685 13.79C29.0796 13.9654 28.9555 13.9469 28.7976 13.9353C28.51 13.9135 28.4113 14.0434 28.4545 14.3631L28.4551 14.363Z" fill="#3277ED"/>
<path d="M48.907 18.5664C48.4317 18.6823 48.4343 18.6808 48.2156 18.2972C48.0808 18.0606 47.9422 17.8252 47.7964 17.5953C47.66 17.3796 47.481 17.1773 47.7695 16.8435C47.261 16.951 47.1633 16.6006 46.9767 16.3605C46.5499 15.8112 46.1206 15.264 45.7242 14.7567C45.7416 14.6005 45.756 14.4716 45.7703 14.3421C45.6419 14.3333 45.5136 14.3251 45.3362 14.3129C44.815 13.8226 44.2554 13.2656 43.6639 12.7458C41.8021 11.1087 39.7109 9.83945 37.3905 8.97676C36.3904 8.60522 35.3469 8.35122 34.3208 8.05077C34.1448 7.99949 33.962 7.98518 34.0173 7.72134C34.0255 7.68246 33.9532 7.62633 33.9179 7.57813C33.8733 7.61756 33.8144 7.64927 33.7883 7.69867C33.7584 7.75374 33.7581 7.82466 33.7367 7.92826C33.4132 7.81369 33.0287 7.93918 32.8204 7.6621C32.6066 7.67844 32.4344 7.71178 32.2653 7.70127C31.407 7.64873 30.5494 7.58523 29.6952 7.52526C29.7248 7.39135 29.7585 7.24143 29.7928 7.08744C37.5488 6.92144 45.305 11.5423 48.907 18.5664Z" fill="#3277ED"/>
<path d="M34.7708 11.0707C35.0985 11.5557 35.3881 11.9688 35.6594 12.3936C35.7573 12.5467 35.8656 12.607 36.0457 12.6022C36.5662 12.5885 37.0874 12.5918 37.6652 12.5883C37.3858 12.938 37.153 13.2776 36.8704 13.5683C36.5765 13.8714 36.4807 14.1518 36.6771 14.5585C36.8507 14.9177 36.9373 15.3187 37.0839 15.7651C36.6328 15.6033 36.2195 15.4871 35.8356 15.3078C35.4786 15.1414 35.2057 15.1683 34.9058 15.4323C34.5911 15.7097 34.2297 15.9342 33.8349 16.2212C33.8446 15.9049 33.8115 15.6324 33.8684 15.3803C34.034 14.6471 33.8094 14.1403 33.1138 13.8248C32.8725 13.7153 32.6712 13.5167 32.3977 13.3196C32.9278 13.1754 33.3997 13.0388 33.876 12.9221C34.1043 12.866 34.2445 12.772 34.3097 12.5216C34.43 12.0589 34.5972 11.609 34.7714 11.0707L34.7708 11.0707ZM35.2385 14.5127C34.9883 14.6319 34.8403 14.8687 34.9507 14.9887C34.9998 15.0424 35.1644 15.069 35.2136 15.0295C35.4012 14.8791 35.3523 14.6933 35.2385 14.5127Z" fill="#3277ED"/>
<path d="M27.203 43.3784C26.8435 43.8279 26.5388 44.2331 26.2055 44.6126C26.0623 44.775 26.0635 44.9132 26.1278 45.0945C26.2923 45.5629 26.4464 46.0351 26.6239 46.5634C26.2021 46.4107 25.8121 46.31 25.4614 46.1318C25.0376 45.9165 24.7108 45.9613 24.3614 46.2836C24.0691 46.5533 23.7176 46.7593 23.3582 47.0185C23.3844 46.4906 23.4022 46.004 23.4378 45.5189C23.4438 45.4398 23.5494 45.3712 23.5686 45.2885C23.5979 45.1603 23.5924 45.0239 23.6017 44.8912C23.4971 44.8973 23.3923 44.9069 23.2876 44.9084C23.2062 44.9096 23.1052 44.9295 23.0462 44.8909C22.6867 44.6545 22.3371 44.403 21.9287 44.1186C22.3446 44.0019 22.702 43.8619 23.0724 43.8076C23.5804 43.7333 23.857 43.4892 23.9533 42.9773C24.0186 42.6303 24.1677 42.299 24.2793 41.9609C24.2816 41.9532 24.2917 41.9478 24.3366 41.902C24.5528 42.3329 24.9564 42.6237 25.0345 43.1425C25.0503 43.2472 25.3471 43.3706 25.5201 43.3795C26.0616 43.4062 26.6059 43.3829 27.2035 43.3783L27.203 43.3784Z" fill="#3277ED"/>
<path d="M36.4332 42.0689C37.0125 41.9092 37.5202 41.7801 38.0195 41.6236C38.1304 41.5891 38.2491 41.4759 38.2979 41.3684C38.3986 41.1473 38.4341 40.8966 38.5342 40.6756C38.6339 40.4558 38.7806 40.2574 38.9339 40.005C39.2212 40.4264 39.4636 40.8039 39.7323 41.1616C39.8011 41.2537 39.9503 41.3328 40.0648 41.3361C40.5887 41.3505 41.1136 41.3361 41.7095 41.3312C41.3255 41.8087 40.9835 42.2363 40.6358 42.6596C40.6114 42.6893 40.5417 42.6968 40.4964 42.6906C40.1541 42.645 40.0369 42.7935 40.1584 43.1428C40.3011 43.0787 40.4426 43.0143 40.603 42.942C40.7766 43.4634 40.9429 43.9607 41.1274 44.5144C40.7134 44.3651 40.3231 44.2662 39.9735 44.0879C39.549 43.8715 39.2182 43.9197 38.8679 44.2358C38.5779 44.4978 38.2372 44.7034 37.9195 44.9344C37.8908 44.9248 37.8615 44.9152 37.8328 44.9055C37.8896 44.5757 37.9489 44.2467 38.0011 43.9159C38.011 43.8522 37.9991 43.7835 37.9871 43.7189C37.9745 43.6493 37.9225 43.576 37.9356 43.5147C37.9991 43.22 37.8723 43.052 37.6262 42.8997C37.2365 42.659 36.8723 42.377 36.4337 42.0683L36.4332 42.0689Z" fill="#3277ED"/>
<path d="M11.2587 18.6193C11.2138 18.4827 11.1747 18.3625 11.1349 18.2418C11.0711 18.3479 11.0155 18.4598 10.9409 18.5577C10.8812 18.6358 10.7984 18.696 10.6701 18.7249C10.7995 18.485 10.9246 18.2428 11.059 18.0061C12.1173 16.1455 13.4224 14.4783 14.9691 13.0006C15.0907 12.884 15.1977 12.8135 15.3815 12.8546C15.5981 12.903 15.817 12.8859 15.9537 12.6124C15.8647 12.5517 15.7701 12.4873 15.6333 12.3939C19.5908 8.98838 24.1721 7.24586 29.3791 7.09465C29.1689 7.33624 29.0098 7.59582 28.6078 7.61688C25.3043 7.78631 22.2191 8.71782 19.349 10.3564C17.2582 11.5499 15.4316 13.0693 13.8553 14.8924C13.7665 14.9952 13.6255 15.055 13.503 15.1254C13.3447 15.2162 13.1868 15.2939 13.2594 15.5306C13.275 15.581 13.2248 15.6617 13.1874 15.7162C12.7262 16.3914 12.2959 17.0915 11.7832 17.7254C11.5554 18.0072 11.5283 18.3791 11.26 18.6203L11.2587 18.6193Z" fill="#3277ED"/>
<path d="M20.2709 13.1211C20.5909 13.5956 20.8787 13.9919 21.1302 14.4103C21.253 14.6143 21.4008 14.6558 21.6143 14.6486C22.1083 14.6329 22.6025 14.6355 23.1658 14.63C22.7896 15.0979 22.4516 15.5175 22.1146 15.9364C21.7136 15.6681 21.5801 15.68 21.2419 16.0413C21.0703 16.2243 20.921 16.4282 20.759 16.6265C21.2501 16.8421 21.6064 16.748 22.056 16.2698C22.1317 16.4838 22.2006 16.6782 22.2591 16.8426C22.1906 16.9482 22.14 17.0262 22.0894 17.1042C22.1596 17.1332 22.2325 17.1567 22.2986 17.1931C22.3413 17.2168 22.3913 17.2521 22.4075 17.2938C22.4642 17.4419 22.5079 17.5946 22.5786 17.8133C22.1485 17.6589 21.75 17.5583 21.3931 17.377C20.9822 17.1678 20.6699 17.2346 20.3363 17.5272C20.0352 17.7913 19.6907 18.0061 19.3227 18.2733C19.3472 17.6966 19.3783 17.1669 19.3837 16.6374C19.3847 16.531 19.3154 16.387 19.2311 16.3228C18.8575 16.0381 18.4661 15.7771 18.0818 15.5059C18.0317 15.4706 17.9865 15.4284 17.9077 15.3634C18.4246 15.2222 18.8985 15.0801 19.3793 14.9662C19.6056 14.9127 19.7283 14.812 19.7944 14.5798C19.9294 14.1036 20.1 13.6378 20.2705 13.1223L20.2709 13.1211Z" fill="#3277ED"/>
<path d="M11.7751 43.8865C11.5287 44.1058 11.2934 44.3149 11.0414 44.5384C9.71451 42.9576 8.59036 41.2243 7.66822 39.2889C8.00099 39.2421 8.30038 39.1931 8.60141 39.164C8.65262 39.1591 8.73676 39.2261 8.76381 39.2806C9.58218 40.9403 10.6126 42.461 11.7762 43.8944C11.7817 43.9011 11.782 43.9119 11.7739 43.8861L11.7751 43.8865Z" fill="#3277ED"/>
<path d="M51.0357 33.1988C50.7768 34.084 50.5436 34.9044 50.2949 35.7195C50.1905 36.0605 50.0612 36.3942 49.9239 36.7239C49.8731 36.8459 49.7646 36.9423 49.6892 37.0547C49.6443 37.121 49.5754 37.1993 49.5809 37.2665C49.613 37.6575 49.454 37.9222 49.1384 38.1518C48.8766 38.3423 48.6692 38.6075 48.3807 38.8967C48.6301 38.3781 48.8519 37.9314 49.0615 37.479C49.6479 36.2134 50.1015 34.8996 50.3965 33.5367C50.4751 33.1747 50.7174 33.251 51.0363 33.1987L51.0357 33.1988Z" fill="#3277ED"/>
<path d="M10.4916 19.0702C10.684 19.473 10.8239 19.1372 11.0406 19.0679C10.9275 19.3027 10.8312 19.502 10.7362 19.6988C10.6298 19.6961 10.5319 19.6938 10.355 19.689C10.6789 20.0498 10.445 20.3296 10.3313 20.624C10.2024 20.957 10.1256 21.3233 9.93511 21.6159C9.72311 21.9417 9.73644 22.3085 9.61747 22.6471C9.49375 23.0005 9.41338 23.3702 9.32319 23.735C9.21094 24.1903 9.21557 24.1908 8.70192 24.2167C9.07515 22.4284 9.67072 20.7328 10.491 19.0697L10.4916 19.0702Z" fill="#3277ED"/>
<path d="M20.6285 30.0507L19.3956 30.224L18.7324 25.5048L19.9654 25.3315L20.6285 30.0507ZM21.566 28.0896L20.0283 28.3058L19.8857 27.2903L21.4233 27.0742L21.566 28.0896ZM14.5555 29.6766C15.5773 29.533 16.3598 29.4049 16.9028 29.2924C17.4458 29.1799 17.9661 29.0345 18.4637 28.8561L18.737 29.8186C18.2178 30.0066 17.6707 30.1608 17.096 30.281C16.5244 30.4008 15.7244 30.533 14.6961 30.6775L13.9563 30.7815L13.8157 29.7806L14.5555 29.6766ZM17.4668 27.2359L14.7688 27.6151L15.1425 30.2746L13.9095 30.4479L13.3978 26.8069L17.3289 26.2543L17.4668 27.2359ZM16.2538 31.9378L19.5708 31.4715L19.4547 30.6447L20.6877 30.4714L21.1877 34.0302L15.4096 34.8424L14.9095 31.2836L16.1377 31.111L16.2538 31.9378ZM19.8168 33.2219L19.7061 32.4338L16.3891 32.9L16.4998 33.6882L19.8168 33.2219ZM28.2629 26.6996L25.9951 27.0183L25.8545 26.0174L28.1222 25.6987L28.2629 26.6996ZM28.57 28.5696L26.2588 28.8944L26.1195 27.9032L28.4307 27.5783L28.57 28.5696ZM29.626 30.6104L28.3978 30.783L27.486 24.2941L28.7142 24.1214L29.626 30.6104ZM30.1169 32.7356L24.068 33.5859L23.928 32.5898L29.977 31.7395L30.1169 32.7356ZM25.255 32.9802L24.0075 33.1555L23.6746 30.7862L24.9221 30.6109L25.255 32.9802ZM23.1816 26.8566L24.9126 26.6133L24.7237 25.2691L25.9471 25.0971L26.583 29.623L22.386 30.2129L21.75 25.6871L22.9927 25.5124L23.1816 26.8566ZM25.2224 28.8182L25.0451 27.5562L23.3141 27.7995L23.4914 29.0615L25.2224 28.8182ZM33.5792 28.4325L32.3413 28.6065L32.1525 27.2623L33.3903 27.0883L33.5792 28.4325ZM32.3071 23.9763C32.7326 23.9165 33.1234 23.9372 33.4794 24.0384C33.8355 24.1395 34.1277 24.3121 34.3559 24.5562C34.5874 24.7998 34.728 25.0988 34.7779 25.4534C34.8254 25.7919 34.7715 26.1101 34.6162 26.4081C34.464 26.7056 34.2312 26.9553 33.9177 27.1571C33.6037 27.3558 33.234 27.485 32.8085 27.5448C32.383 27.6046 31.9904 27.5825 31.6306 27.4786C31.2704 27.3715 30.9778 27.1956 30.7528 26.9511C30.531 26.7062 30.3963 26.4145 30.3487 26.076C30.2994 25.7246 30.3475 25.4007 30.4932 25.1041C30.6417 24.8038 30.8747 24.5557 31.1924 24.3598C31.51 24.164 31.8816 24.0361 32.3071 23.9763ZM32.4375 24.9047C32.228 24.9342 32.0474 24.9941 31.8957 25.0844C31.7441 25.1748 31.6322 25.2908 31.56 25.4324C31.4911 25.5736 31.4693 25.7344 31.4947 25.9149C31.5187 26.0858 31.5831 26.2279 31.6878 26.3414C31.7957 26.4545 31.9352 26.5351 32.1064 26.5834C32.2803 26.628 32.4704 26.6357 32.6767 26.6067C32.8862 26.5773 33.0652 26.5176 33.2136 26.4277C33.3649 26.3342 33.4751 26.2184 33.5445 26.0804C33.6171 25.942 33.6414 25.7874 33.6174 25.6166C33.5916 25.4328 33.5261 25.2826 33.4209 25.1659C33.3158 25.0492 33.1781 24.9699 33.0078 24.9281C32.8372 24.8831 32.6471 24.8753 32.4375 24.9047ZM37.591 29.7176L36.3483 29.8923L35.4052 23.1809L36.6479 23.0062L37.591 29.7176ZM38.3072 26.6387L36.7406 26.859L36.5965 25.8339L38.1632 25.6137L38.3072 26.6387ZM38.1598 31.5903L31.9562 32.4623L31.8169 31.4711L38.0205 30.599L38.1598 31.5903ZM33.1262 31.7357L31.8787 31.9111L31.6049 29.9624L32.8524 29.7871L33.1262 31.7357ZM30.2228 28.5838C31.1903 28.4511 32.1227 28.3019 33.0198 28.1364C33.9202 27.9704 34.7541 27.7759 35.5216 27.553L35.7391 28.4346C34.9569 28.6925 34.1291 28.9074 33.2559 29.0795C32.3859 29.2511 31.4658 29.4051 30.4955 29.5415L30.2228 28.5838ZM42.1948 29.5734L40.9908 29.7427L40.6973 27.6538L41.9013 27.4846L42.1948 29.5734ZM45.0131 29.1724L43.8043 29.3423L43.5101 27.2486L44.7189 27.0787L45.0131 29.1724ZM47.0673 29.5098L39.0214 30.6408L38.8794 29.6302L46.9253 28.4992L47.0673 29.5098ZM45.5295 25.303L40.5685 26.0004L40.7798 27.5042L39.5516 27.6768L39.2024 25.1915L44.1731 24.4928L44.0406 23.5499L39.0554 24.2506L38.9161 23.2594L45.1198 22.3874L45.5295 25.303ZM46.0153 27.2515L39.6182 28.1507L39.4776 27.1498L45.8747 26.2506L46.0153 27.2515Z" fill="#3277ED"/>
</svg>
