<svg width="200" height="200" viewBox="0 0 200 200" fill="none" xmlns="http://www.w3.org/2000/svg">
<g id="grade=0">
<rect width="200" height="200" fill="white"/>
<g id="Vector">
<path d="M145 143.241C145 174.307 124.853 191 100 191C75.1472 191 55 174.307 55 143.241C55 112.175 75.1472 78.5 100 78.5C124.853 78.5 145 112.175 145 143.241Z" fill="#EAFFBA"/>
<path d="M91.5094 180.387C116.362 180.387 136.509 163.693 136.509 132.627C136.509 117.491 131.727 101.736 123.948 89.5581C136.596 102.023 145 123.176 145 143.241C145 174.307 124.853 191 100 191C83.5052 191 69.0833 183.647 61.2486 169.618C69.2404 176.718 79.8578 180.387 91.5094 180.387Z" fill="#D4FF75"/>
</g>
</g>
</svg>
