<svg xmlns="http://www.w3.org/2000/svg" width="126" height="3528" viewBox="0 0 126 3528" fill="none">
  <path d="M93.4161 1C109.357 110.806 109.357 228.012 109.357 340.586C109.357 441.491 98.39 593.547 97.4014 696.439C95.558 888.319 93.4161 1036.03 101.387 1227.17C101.387 1296.35 101.387 1343.92 97.7827 1425.24C97.5341 1430.85 96.8096 1436.4 95.617 1441.89C82.4742 1502.37 58.9477 1608.44 30.5364 1586.86C27.9987 1584.94 24.2326 1580.68 20.2547 1575.74C7.54595 1559.94 1.51385 1539.87 1.50019 1519.6C1.48184 1492.36 2.7824 1461.37 11.7168 1446.78C13.2322 1444.31 14.6011 1442.03 15.879 1439.96C28.6373 1419.3 52.7575 1440.63 60.4548 1463.66C64.6325 1476.16 68.1495 1489.24 69.2827 1499.65C71.3656 1518.78 75.2286 1553.42 75.2286 1572.86C79.4705 1623.07 83.8962 1664.76 85.1171 1676.04C85.3358 1678.06 85.4957 1680.06 85.5962 1682.09L92.1663 1814.84L101.165 1914.48L104.408 1996.09C104.46 1997.41 104.486 1998.7 104.493 2000.02C104.545 2010.45 105.022 2062.08 109.357 2137.7C114.547 2228.21 127.019 2279.05 124.049 2369.97C119.067 2522.48 116.078 2546.88 109.357 2668.88C104.486 2757.31 94.5853 2831.85 85.4454 2902.73C69.2827 3028.08 70.1308 3051.12 58.4338 3140.64C46.7367 3230.17 48.2426 3249.11 42.3496 3343.99C48.3276 3421.26 64.3635 3492.15 75.2286 3527" stroke="#707991" stroke-width="2" stroke-linecap="round" stroke-linejoin="round" stroke-dasharray="8 8"/>
</svg>