<svg width="542" height="371" viewBox="0 0 542 371" fill="none" xmlns="http://www.w3.org/2000/svg">
<g filter="url(#filter0_dd_1270_7378)">
<rect width="497.355" height="340.108" rx="24" transform="matrix(0.965556 -0.260196 0.497869 0.867252 23.8521 156.094)" fill="white" shape-rendering="crispEdges"/>
<path d="M73.2846 171.606C73.4673 171.166 74.0786 171.001 74.6501 171.238C75.2216 171.475 75.5369 172.025 75.3542 172.465L72.645 178.996L81.1224 182.513C81.6939 182.75 82.0092 183.299 81.8265 183.739C81.6439 184.179 81.0325 184.344 80.461 184.107L70.9488 180.161C70.3772 179.924 70.062 179.375 70.2447 178.935L73.2846 171.606Z" fill="black"/>
<path d="M210.905 175.065L203.465 177.07L202.581 175.528L210.02 173.523L210.905 175.065ZM211.171 181.673L209.087 182.234L206.88 178.389L208.963 177.828L211.171 181.673ZM211.771 174.088C212.257 174.961 212.665 175.728 212.994 176.389C213.326 177.043 213.645 177.814 213.952 178.703L211.785 179.101C211.481 178.192 211.171 177.418 210.855 176.78C210.546 176.14 210.169 175.426 209.725 174.64L209.209 173.742L211.256 173.191L211.771 174.088ZM221.265 182.414L219.115 182.994L212.532 171.526L214.682 170.947L221.265 182.414ZM220.54 176.713L217.456 177.544L216.547 175.96L219.631 175.129L220.54 176.713ZM223.845 185.827L212.068 189L211.183 187.459L222.96 184.285L223.845 185.827ZM213.577 187.381L211.465 187.95L209.442 184.427L211.554 183.858L213.577 187.381ZM205.364 182.426C207.486 181.847 209.384 181.297 211.058 180.774C212.738 180.249 214.292 179.681 215.719 179.068L216.614 180.401C215.186 181.073 213.614 181.692 211.899 182.259C210.188 182.818 208.361 183.359 206.418 183.882L205.364 182.426ZM236.945 174.962L234.842 175.529L229.873 166.873L231.976 166.306L236.945 174.962ZM240.645 181.407L229.348 184.451L226.086 178.768L237.382 175.724L240.645 181.407ZM230.543 182.379L237.719 180.445L236.187 177.777L229.011 179.711L230.543 182.379ZM224.921 170.594C225.465 171.542 225.787 172.489 225.887 173.433C225.986 174.378 225.847 175.26 225.468 176.079C225.089 176.898 224.47 177.603 223.611 178.193L221.718 176.982C222.468 176.48 223.021 175.901 223.377 175.244C223.73 174.582 223.882 173.892 223.833 173.175C223.781 172.452 223.559 171.749 223.167 171.066L222.311 169.576L224.065 169.103L224.921 170.594ZM225.336 170.482C225.712 171.137 226.229 171.721 226.886 172.235C227.541 172.743 228.311 173.148 229.196 173.451C230.084 173.746 231.035 173.904 232.048 173.924L231.842 175.652C230.662 175.631 229.541 175.425 228.481 175.032C227.421 174.64 226.474 174.096 225.64 173.402C224.803 172.702 224.117 171.886 223.582 170.954L222.726 169.464L224.48 168.991L225.336 170.482ZM260.045 169.607L244.468 173.805L243.612 172.314L259.189 168.117L260.045 169.607ZM254.981 174.023L252.906 174.582L250.981 171.228L253.055 170.669L254.981 174.023ZM261.533 175.67L249.558 178.897L248.673 177.356L260.649 174.129L261.533 175.67ZM251.122 177.43L249.038 177.991L247.132 174.671L249.216 174.11L251.122 177.43ZM244.423 165.495L251.778 163.513L250.786 161.785L252.87 161.223L256.448 167.457L244.944 170.557L241.366 164.323L243.431 163.767L244.423 165.495ZM253.504 166.519L252.585 164.919L245.23 166.901L246.149 168.501L253.504 166.519ZM260.98 159.762C261.835 159.531 262.724 159.549 263.646 159.816C264.565 160.076 265.452 160.565 266.305 161.28C267.155 161.99 267.892 162.887 268.514 163.971C269.14 165.06 269.496 166.066 269.582 166.988C269.665 167.905 269.499 168.676 269.082 169.304C268.672 169.929 268.043 170.357 267.194 170.585C266.339 170.816 265.447 170.798 264.518 170.534C263.59 170.269 262.704 169.781 261.86 169.069C261.012 168.352 260.276 167.449 259.65 166.359C259.028 165.275 258.672 164.276 258.583 163.361C258.49 162.441 258.653 161.67 259.073 161.048C259.49 160.421 260.125 159.992 260.98 159.762ZM261.953 161.455C261.472 161.578 261.132 161.84 260.933 162.239C260.74 162.636 260.703 163.142 260.823 163.755C260.946 164.361 261.228 165.048 261.668 165.815C262.109 166.583 262.589 167.223 263.108 167.735C263.63 168.24 264.161 168.589 264.7 168.783C265.236 168.971 265.74 169.001 266.212 168.874C266.69 168.746 267.028 168.488 267.227 168.102C267.43 167.708 267.468 167.206 267.342 166.594C267.213 165.977 266.928 165.285 266.487 164.517C266.043 163.743 265.564 163.106 265.052 162.605C264.536 162.099 264.008 161.749 263.469 161.555C262.933 161.354 262.427 161.321 261.953 161.455ZM274.644 160.842L271.552 161.675L270.642 160.092L273.735 159.258L274.644 160.842ZM277.221 165.331L274.128 166.164L273.239 164.614L276.331 163.781L277.221 165.331ZM277.888 171.576L275.795 172.14L267.014 156.845L269.108 156.28L277.888 171.576ZM292.812 159.545L277.235 163.743L276.423 162.328L292 158.131L292.812 159.545ZM293.455 164.457L283.676 167.092L284.542 168.6L282.439 169.166L280.878 166.448L290.675 163.808L290.136 162.868L280.329 165.51L279.561 164.172L291.451 160.968L293.455 164.457ZM295.33 166.7L282.94 170.039L282.191 168.734L294.581 165.396L295.33 166.7ZM288.268 155.498L278.669 158.085L279.481 159.499L277.397 160.061L275.885 157.427L285.456 154.848L284.921 153.916L275.303 156.508L274.554 155.204L286.284 152.043L288.268 155.498ZM289.873 157.706L277.898 160.933L277.159 159.646L289.134 156.419L289.873 157.706ZM309.47 151.085L305.35 152.196L304.465 150.654L308.586 149.544L309.47 151.085ZM301.063 150.779C301.653 151.807 302.02 152.813 302.164 153.798C302.306 154.777 302.214 155.691 301.889 156.542C301.561 157.386 300.99 158.117 300.175 158.734L298.193 157.538C298.926 157.02 299.454 156.415 299.775 155.723C300.092 155.024 300.212 154.291 300.134 153.523C300.063 152.754 299.81 151.99 299.375 151.234L298.374 149.489L300.062 149.034L301.063 150.779ZM301.493 150.693C301.888 151.381 302.418 152.001 303.083 152.552C303.754 153.102 304.534 153.544 305.423 153.878C306.311 154.212 307.258 154.4 308.262 154.443L307.948 156.209C306.804 156.139 305.715 155.885 304.679 155.447C303.647 155.002 302.717 154.412 301.888 153.676C301.06 152.941 300.371 152.097 299.824 151.142L298.807 149.372L300.476 148.923L301.493 150.693ZM314.542 157.171L312.449 157.735L305.929 146.377L308.023 145.813L314.542 157.171ZM317.006 160.722L305.398 163.85L304.513 162.308L316.121 159.18L317.006 160.722ZM307.101 162.53L304.97 163.104L302.598 158.971L304.729 158.397L307.101 162.53ZM316.298 151.788C317.696 151.405 318.821 151.069 319.672 150.781C320.523 150.493 321.351 150.159 322.156 149.779L323.239 151.248C322.377 151.656 321.507 152.011 320.628 152.313C319.752 152.608 318.603 152.947 317.183 153.33L316.051 153.635L315.166 152.093L316.298 151.788ZM319.255 145.75L314.569 147.012L317.656 152.39L315.648 152.932L311.68 146.021L318.375 144.217L319.255 145.75ZM320.753 148.72L315.633 150.1L314.807 148.66L319.927 147.28L320.753 148.72ZM330.362 150.551L328.363 151.089L323.015 141.773L325.014 141.235L330.362 150.551ZM326.663 146.951L323.74 147.739L322.874 146.231L325.797 145.444L326.663 146.951ZM326.523 151.468L324.58 151.991L319.451 143.056L321.393 142.533L326.523 151.468ZM333.785 156.513L331.711 157.072L329.552 153.312L319.953 155.898L319.083 154.382L330.756 151.237L333.785 156.513ZM337.689 142.356L329.354 144.603L328.488 143.095L336.824 140.849L337.689 142.356ZM334.002 144.279C334.725 144.084 335.454 144.064 336.188 144.218C336.926 144.365 337.611 144.666 338.242 145.122C338.874 145.577 339.389 146.152 339.788 146.847C340.187 147.541 340.383 148.206 340.377 148.84C340.367 149.468 340.169 150.014 339.782 150.477C339.4 150.938 338.848 151.266 338.125 151.461C337.415 151.652 336.688 151.669 335.944 151.511C335.206 151.351 334.52 151.041 333.885 150.579C333.25 150.118 332.734 149.543 332.339 148.854C331.947 148.171 331.754 147.512 331.76 146.878C331.766 146.244 331.963 145.702 332.351 145.252C332.741 144.795 333.292 144.471 334.002 144.279ZM334.902 145.846C334.54 145.937 334.267 146.105 334.081 146.351C333.895 146.596 333.812 146.893 333.829 147.24C333.844 147.582 333.966 147.953 334.197 148.354C334.427 148.755 334.708 149.086 335.04 149.349C335.379 149.61 335.731 149.782 336.099 149.865C336.472 149.947 336.838 149.94 337.197 149.843C337.561 149.745 337.84 149.579 338.032 149.345C338.224 149.11 338.314 148.819 338.303 148.47C338.291 148.121 338.17 147.746 337.94 147.345C337.71 146.944 337.427 146.616 337.092 146.361C336.753 146.1 336.394 145.923 336.014 145.83C335.634 145.737 335.263 145.742 334.902 145.846ZM350.55 151.995L348.551 152.534L339.771 137.238L341.77 136.7L350.55 151.995ZM344.918 144.878L341.929 145.683L341.059 144.167L344.048 143.362L344.918 144.878ZM346.498 152.295L344.527 152.826L336.33 138.547L338.301 138.016L346.498 152.295ZM334.252 142.628L332.187 143.184L330.5 140.245L332.565 139.689L334.252 142.628ZM353.443 136.058C353.955 136.95 354.136 137.846 353.985 138.747C353.841 139.647 353.401 140.486 352.665 141.265C351.926 142.037 350.944 142.693 349.722 143.231L348.084 141.971C349.138 141.531 349.989 140.998 350.64 140.373C351.29 139.748 351.7 139.103 351.869 138.437C352.036 137.767 351.951 137.138 351.614 136.55L351.312 136.025L353.142 135.532L353.443 136.058ZM354.028 135.9C354.365 136.487 354.925 136.988 355.707 137.403C356.493 137.811 357.434 138.092 358.532 138.246C359.636 138.398 360.792 138.39 362.001 138.22L362.093 139.897C360.65 140.078 359.271 140.058 357.955 139.839C356.639 139.62 355.477 139.216 354.471 138.626C353.468 138.029 352.71 137.285 352.198 136.393L351.897 135.868L353.726 135.375L354.028 135.9ZM361.352 149.094L359.287 149.651L356.01 143.942L358.075 143.386L361.352 149.094ZM365.107 142.019L349.587 146.201L348.717 144.685L364.237 140.503L365.107 142.019ZM359.259 134.696L346.567 138.116L345.717 136.634L358.408 133.213L359.259 134.696ZM374.231 135.834L371.176 136.658L370.286 135.108L373.341 134.285L374.231 135.834ZM367.762 134.429C368.423 135.58 368.911 136.72 369.224 137.849C369.541 138.969 369.645 140.023 369.537 141.011C369.426 141.993 369.077 142.833 368.491 143.532L366.397 142.483C366.94 141.835 367.276 141.086 367.405 140.236C367.534 139.386 367.486 138.506 367.261 137.595C367.042 136.683 366.671 135.772 366.149 134.863L364.579 132.128L366.191 131.693L367.762 134.429ZM368.133 134.241C368.635 135.116 369.228 135.921 369.912 136.656C370.598 137.384 371.376 138.018 372.246 138.56C373.122 139.1 374.048 139.479 375.023 139.699L374.709 141.466C373.598 141.237 372.535 140.79 371.522 140.124C370.508 139.459 369.587 138.664 368.759 137.739C367.931 136.815 367.194 135.791 366.549 134.667L365.022 132.008L366.606 131.581L368.133 134.241ZM383.986 142.985L381.969 143.529L373.188 128.233L375.206 127.689L383.986 142.985ZM380.018 143.223L378.057 143.752L369.84 129.438L371.802 128.91L380.018 143.223ZM389.873 137.839L387.808 138.395L385.29 134.008L387.355 133.452L389.873 137.839ZM396.181 136.139L394.069 136.708L391.551 132.321L393.663 131.752L396.181 136.139ZM400.498 136.413L384.921 140.611L384.031 139.061L399.608 134.863L400.498 136.413ZM385.427 125.884C386.647 125.555 387.831 125.431 388.981 125.513C390.134 125.587 391.161 125.858 392.061 126.326C392.961 126.794 393.64 127.426 394.097 128.222C394.557 129.024 394.689 129.803 394.492 130.56C394.302 131.316 393.821 131.99 393.051 132.582C392.286 133.172 391.293 133.636 390.07 133.972C388.841 134.296 387.65 134.422 386.497 134.348C385.351 134.272 384.329 134.003 383.432 133.541C382.541 133.077 381.866 132.444 381.405 131.642C380.948 130.846 380.813 130.067 381.001 129.306C381.194 128.543 381.676 127.866 382.447 127.273C383.214 126.676 384.208 126.212 385.427 125.884ZM386.293 127.391C385.441 127.614 384.749 127.915 384.219 128.292C383.694 128.668 383.36 129.097 383.216 129.58C383.078 130.06 383.159 130.563 383.461 131.088C383.759 131.607 384.199 132.014 384.781 132.307C385.366 132.592 386.041 132.756 386.805 132.798C387.573 132.832 388.381 132.735 389.229 132.507C390.065 132.281 390.747 131.977 391.275 131.594C391.799 131.204 392.13 130.77 392.268 130.289C392.409 129.801 392.33 129.298 392.032 128.778C391.731 128.253 391.289 127.851 390.707 127.571C390.129 127.283 389.457 127.125 388.693 127.096C387.932 127.06 387.132 127.158 386.293 127.391Z" fill="#212121"/>
<path d="M213.872 211.248L212.842 211.525L206.791 200.985L207.82 200.707L213.872 211.248ZM212.635 205.27L210.47 205.853L210.021 205.07L212.185 204.487L212.635 205.27ZM205.438 202.664C206.028 203.691 206.397 204.71 206.544 205.72C206.692 206.729 206.586 207.726 206.225 208.708C205.864 209.691 205.222 210.626 204.299 211.514L203.296 210.935C204.106 210.151 204.69 209.332 205.049 208.478C205.407 207.624 205.54 206.746 205.449 205.844C205.358 204.942 205.045 204.024 204.51 203.092L204.421 202.937L205.438 202.664ZM205.399 203.578L200.461 204.908L200.012 204.126L204.949 202.795L205.399 203.578ZM223.019 203.142L221.99 203.419L218.743 197.764L219.773 197.486L223.019 203.142ZM217.487 206.728L223.031 205.234L222.296 203.953L223.326 203.676L225.742 207.885L218.138 209.934L215.722 205.725L216.752 205.447L217.487 206.728ZM224.277 207.403L223.46 205.981L217.916 207.475L218.732 208.897L224.277 207.403ZM213.736 199.715C214.321 199.549 214.904 199.503 215.487 199.579C216.069 199.655 216.598 199.843 217.076 200.143C217.553 200.444 217.928 200.831 218.2 201.305C218.468 201.772 218.575 202.224 218.522 202.663C218.469 203.102 218.268 203.487 217.92 203.818C217.572 204.149 217.102 204.394 216.513 204.553C215.923 204.712 215.336 204.752 214.752 204.672C214.167 204.592 213.638 204.404 213.163 204.107C212.688 203.811 212.316 203.43 212.048 202.963C211.776 202.489 211.665 202.03 211.716 201.588C211.767 201.145 211.968 200.76 212.318 200.433C212.669 200.106 213.141 199.866 213.736 199.715ZM214.185 200.498C213.784 200.597 213.469 200.759 213.238 200.986C213.007 201.212 212.875 201.474 212.842 201.77C212.809 202.067 212.883 202.373 213.065 202.689C213.246 203.005 213.497 203.264 213.816 203.466C214.135 203.667 214.491 203.797 214.885 203.855C215.279 203.913 215.674 203.889 216.07 203.782C216.466 203.676 216.78 203.509 217.011 203.283C217.241 203.056 217.373 202.795 217.406 202.498C217.439 202.202 217.365 201.896 217.184 201.579C217.002 201.263 216.752 201.004 216.433 200.803C216.114 200.601 215.757 200.471 215.363 200.413C214.969 200.355 214.576 200.383 214.185 200.498ZM228.997 201.914L227.954 202.195L227.036 200.595L228.078 200.314L228.997 201.914ZM225.291 196.574C225.863 196.42 226.419 196.371 226.959 196.426C227.499 196.481 227.982 196.632 228.408 196.878C228.833 197.123 229.166 197.456 229.407 197.875C229.638 198.278 229.72 198.669 229.653 199.047C229.586 199.426 229.382 199.762 229.042 200.054C228.702 200.347 228.246 200.57 227.674 200.724C227.111 200.876 226.557 200.925 226.012 200.87C225.468 200.816 224.985 200.666 224.564 200.419C224.143 200.172 223.817 199.847 223.585 199.444C223.349 199.032 223.261 198.636 223.322 198.255C223.382 197.873 223.585 197.536 223.93 197.242C224.274 196.949 224.728 196.726 225.291 196.574ZM225.707 197.297C225.337 197.397 225.038 197.544 224.809 197.738C224.58 197.932 224.443 198.154 224.398 198.403C224.353 198.652 224.408 198.912 224.562 199.18C224.712 199.441 224.926 199.65 225.204 199.808C225.483 199.966 225.803 200.062 226.163 200.097C226.524 200.133 226.891 200.104 227.265 200.013C227.639 199.903 227.941 199.751 228.17 199.557C228.399 199.363 228.537 199.143 228.584 198.897C228.631 198.652 228.58 198.399 228.43 198.138C228.276 197.869 228.057 197.652 227.774 197.486C227.491 197.321 227.17 197.222 226.812 197.191C226.453 197.16 226.085 197.195 225.707 197.297ZM235.225 202.646L234.182 202.927L229.553 194.864L230.596 194.583L235.225 202.646ZM234.857 198.473L232.666 199.064L232.21 198.27L234.401 197.679L234.857 198.473ZM236.927 204.761L229.046 206.885L228.597 206.102L236.478 203.979L236.927 204.761ZM229.844 206.177L228.801 206.458L227.365 203.956L228.408 203.675L229.844 206.177ZM224.703 202.771C226.027 202.423 227.305 202.056 228.536 201.669C229.768 201.282 230.881 200.868 231.878 200.426L232.358 201.105C231.358 201.575 230.278 201.998 229.117 202.375C227.956 202.752 226.676 203.129 225.277 203.506L224.703 202.771ZM241.856 201.68L240.84 201.954L239.342 199.346L240.359 199.072L241.856 201.68ZM245.631 200.636L244.615 200.91L243.117 198.301L244.134 198.027L245.631 200.636ZM248.821 200.324L238.075 203.22L237.626 202.437L248.372 199.541L248.821 200.324ZM244.439 195.426L237.429 197.315L238.655 199.449L237.625 199.726L235.957 196.821L242.98 194.929L242.034 193.281L234.985 195.18L234.542 194.41L242.608 192.236L244.439 195.426ZM246.139 197.829L237.822 200.07L237.38 199.3L245.696 197.058L246.139 197.829ZM258.382 189.368L248.864 191.933L248.421 191.163L257.939 188.598L258.382 189.368ZM262.281 194.807L251.536 197.703L251.093 196.932L261.839 194.036L262.281 194.807ZM259.085 199.091L258.069 199.365L256.279 196.247L257.295 195.973L259.085 199.091ZM254.003 191.247C254.804 191.031 255.529 190.913 256.178 190.893C256.827 190.873 257.379 190.955 257.835 191.138C258.291 191.321 258.627 191.602 258.845 191.982C259.054 192.345 259.081 192.698 258.928 193.041C258.774 193.384 258.45 193.701 257.958 193.994C257.465 194.286 256.821 194.544 256.024 194.768C255.219 194.976 254.491 195.088 253.839 195.104C253.188 195.12 252.635 195.038 252.182 194.859C251.729 194.68 251.397 194.409 251.189 194.045C250.971 193.666 250.938 193.303 251.089 192.956C251.241 192.609 251.564 192.292 252.059 192.003C252.554 191.715 253.202 191.462 254.003 191.247ZM254.411 191.958C253.83 192.115 253.357 192.29 252.991 192.485C252.625 192.679 252.38 192.884 252.255 193.101C252.13 193.317 252.131 193.535 252.258 193.757C252.381 193.97 252.594 194.125 252.898 194.221C253.202 194.317 253.585 194.351 254.046 194.322C254.507 194.294 255.028 194.201 255.609 194.045C256.181 193.891 256.65 193.716 257.016 193.522C257.382 193.328 257.631 193.124 257.763 192.91C257.894 192.697 257.899 192.483 257.776 192.27C257.649 192.049 257.43 191.888 257.119 191.79C256.808 191.691 256.422 191.656 255.961 191.684C255.5 191.713 254.983 191.804 254.411 191.958ZM254.008 190.246L252.991 190.52L251.97 188.741L252.987 188.467L254.008 190.246ZM271.986 192.493L266.573 193.952L262.673 187.158L268.086 185.699L271.986 192.493ZM267.141 192.923L270.521 192.012L267.485 186.724L264.105 187.634L267.141 192.923ZM276.706 194.316L275.676 194.593L269.625 184.052L270.654 183.775L276.706 194.316ZM275.501 188.26L273.296 188.854L272.833 188.048L275.038 187.454L275.501 188.26ZM288.658 191.122L287.615 191.403L281.55 180.838L282.593 180.557L288.658 191.122ZM276.819 183.058C277.4 182.902 278.004 182.915 278.632 183.097C279.26 183.279 279.86 183.612 280.433 184.097C281.006 184.581 281.504 185.191 281.926 185.926C282.348 186.661 282.59 187.34 282.652 187.962C282.715 188.584 282.606 189.107 282.325 189.529C282.044 189.952 281.613 190.241 281.032 190.398C280.452 190.554 279.848 190.543 279.223 190.365C278.597 190.187 277.998 189.855 277.425 189.371C276.852 188.886 276.354 188.277 275.932 187.541C275.51 186.806 275.268 186.128 275.206 185.506C275.143 184.883 275.251 184.359 275.53 183.933C275.808 183.506 276.238 183.215 276.819 183.058ZM277.295 183.888C276.908 183.993 276.631 184.204 276.463 184.523C276.296 184.842 276.251 185.238 276.329 185.709C276.407 186.181 276.609 186.702 276.936 187.271C277.258 187.832 277.626 188.306 278.041 188.691C278.455 189.077 278.881 189.346 279.319 189.497C279.756 189.649 280.169 189.672 280.556 189.568C280.943 189.463 281.222 189.254 281.391 188.939C281.561 188.624 281.606 188.228 281.526 187.752C281.446 187.276 281.245 186.758 280.922 186.197C280.596 185.628 280.226 185.152 279.814 184.77C279.402 184.389 278.978 184.119 278.543 183.963C278.107 183.806 277.691 183.781 277.295 183.888ZM300.412 187.927L299.409 188.198L293.357 177.657L294.361 177.386L300.412 187.927ZM294.201 183.029L292.221 183.563L291.737 182.721L293.718 182.187L294.201 183.029ZM297.795 187.989L296.805 188.256L291.223 178.533L292.213 178.266L297.795 187.989ZM290.998 180.743L285.599 182.198L285.157 181.427L290.556 179.973L290.998 180.743ZM288.228 187.281C289.249 187.006 290.279 186.708 291.319 186.387C292.359 186.065 293.252 185.749 293.999 185.439L294.46 186.108C293.718 186.463 292.845 186.806 291.841 187.136C290.836 187.466 289.828 187.767 288.816 188.04L288.228 187.281ZM290.555 186.928L289.605 187.184L286.426 181.647L287.376 181.391L290.555 186.928ZM293.024 186.263L292.06 186.522L288.881 180.985L289.845 180.725L293.024 186.263ZM311.348 185.008L310.305 185.289L304.24 174.724L305.283 174.443L311.348 185.008ZM299.509 176.944C300.09 176.787 300.694 176.8 301.322 176.982C301.95 177.165 302.55 177.498 303.123 177.982C303.696 178.467 304.193 179.077 304.616 179.812C305.038 180.547 305.28 181.226 305.342 181.848C305.405 182.47 305.295 182.992 305.015 183.415C304.734 183.837 304.303 184.127 303.722 184.283C303.141 184.44 302.538 184.429 301.912 184.251C301.287 184.072 300.687 183.741 300.115 183.257C299.542 182.772 299.044 182.162 298.622 181.427C298.2 180.692 297.958 180.013 297.896 179.391C297.833 178.769 297.941 178.245 298.22 177.818C298.498 177.392 298.928 177.1 299.509 176.944ZM299.985 177.774C299.598 177.878 299.321 178.09 299.153 178.409C298.986 178.728 298.941 179.123 299.019 179.595C299.097 180.067 299.299 180.588 299.626 181.157C299.948 181.718 300.316 182.191 300.731 182.577C301.145 182.963 301.571 183.231 302.009 183.383C302.446 183.534 302.858 183.558 303.246 183.453C303.633 183.349 303.911 183.139 304.081 182.824C304.251 182.509 304.296 182.114 304.216 181.638C304.136 181.162 303.934 180.644 303.612 180.082C303.286 179.513 302.916 179.038 302.504 178.656C302.092 178.274 301.668 178.005 301.232 177.848C300.797 177.692 300.381 177.667 299.985 177.774ZM312.823 176.149C313.236 176.868 313.492 177.623 313.59 178.414C313.688 179.204 313.638 179.945 313.441 180.637C313.244 181.329 312.917 181.897 312.46 182.34L311.417 181.772C311.831 181.377 312.14 180.872 312.345 180.255C312.55 179.638 312.623 178.987 312.564 178.3C312.505 177.613 312.305 176.973 311.965 176.38L310.964 174.637L311.823 174.406L312.823 176.149ZM313.008 176.099C313.339 176.676 313.813 177.215 314.431 177.715C315.048 178.215 315.729 178.622 316.474 178.937C317.219 179.252 317.943 179.447 318.647 179.522L318.488 180.414C317.704 180.324 316.903 180.092 316.085 179.72C315.266 179.347 314.512 178.866 313.823 178.275C313.134 177.685 312.585 177.035 312.176 176.323L311.176 174.58L312.007 174.356L313.008 176.099ZM315.017 173.97L308.403 175.752L307.961 174.981L314.575 173.199L315.017 173.97ZM322.679 181.927L321.636 182.208L315.585 171.667L316.628 171.386L322.679 181.927ZM328.164 173.918L325.906 174.526L325.464 173.756L327.721 173.147L328.164 173.918ZM334.407 178.766L333.404 179.037L327.353 168.496L328.356 168.226L334.407 178.766ZM331.738 178.87L330.748 179.136L325.132 169.354L326.122 169.088L331.738 178.87ZM321.474 171.107C321.984 170.969 322.514 170.998 323.062 171.192C323.611 171.387 324.15 171.732 324.679 172.229C325.207 172.725 325.685 173.345 326.112 174.088C326.534 174.823 326.798 175.496 326.904 176.106C327.011 176.716 326.961 177.222 326.755 177.625C326.549 178.027 326.191 178.297 325.68 178.434C325.179 178.57 324.65 178.539 324.095 178.341C323.54 178.144 323 177.797 322.475 177.299C321.951 176.802 321.478 176.185 321.056 175.45C320.629 174.707 320.36 174.031 320.25 173.422C320.139 172.813 320.19 172.309 320.402 171.909C320.615 171.509 320.972 171.242 321.474 171.107ZM321.977 171.984C321.661 172.07 321.45 172.256 321.346 172.545C321.243 172.833 321.249 173.203 321.367 173.655C321.484 174.107 321.706 174.618 322.033 175.187C322.355 175.748 322.698 176.222 323.061 176.607C323.425 176.993 323.79 177.267 324.157 177.428C324.524 177.589 324.862 177.628 325.17 177.545C325.487 177.46 325.697 177.273 325.801 176.985C325.905 176.697 325.9 176.326 325.787 175.873C325.675 175.419 325.457 174.912 325.135 174.351C324.808 173.782 324.461 173.305 324.093 172.92C323.724 172.536 323.359 172.262 322.997 172.1C322.634 171.937 322.294 171.899 321.977 171.984ZM341.361 169.759L338.061 170.649L337.625 169.89L340.925 169L341.361 169.759ZM335.202 169.653C335.638 170.412 335.923 171.195 336.056 172.003C336.19 172.812 336.171 173.565 335.998 174.265C335.825 174.964 335.517 175.546 335.073 176.013L333.971 175.447C334.398 175.04 334.704 174.524 334.889 173.899C335.074 173.274 335.12 172.607 335.027 171.897C334.935 171.187 334.707 170.516 334.344 169.884L333.242 167.963L334.1 167.732L335.202 169.653ZM335.4 169.599C335.759 170.224 336.249 170.804 336.871 171.339C337.494 171.874 338.173 172.314 338.909 172.658C339.646 173.003 340.364 173.218 341.063 173.303L340.878 174.229C340.086 174.105 339.285 173.84 338.477 173.432C337.669 173.025 336.92 172.508 336.23 171.881C335.54 171.255 334.982 170.57 334.555 169.827L333.453 167.906L334.298 167.679L335.4 169.599ZM345.436 175.822L344.406 176.099L338.341 165.535L339.371 165.257L345.436 175.822ZM354.676 164.282L351.257 165.203L350.807 164.421L354.227 163.499L354.676 164.282ZM356.009 166.524L352.55 167.456L352.108 166.685L355.566 165.753L356.009 166.524ZM358.256 169.191L357.213 169.472L352.734 161.67L353.777 161.389L358.256 169.191ZM359.956 171.621L352.102 173.738L351.652 172.955L359.507 170.839L359.956 171.621ZM352.913 173.054L351.87 173.335L350.223 170.465L351.266 170.184L352.913 173.054ZM347.149 166.146L350.423 165.264L349.347 163.39L350.364 163.116L353.406 168.416L348.086 169.85L345.044 164.55L346.073 164.273L347.149 166.146ZM351.947 167.92L350.845 165.999L347.571 166.881L348.673 168.802L351.947 167.92ZM365.823 161.278L362.615 162.142L362.186 161.395L365.394 160.531L365.823 161.278ZM367.003 163.493L363.782 164.361L363.339 163.59L366.56 162.722L367.003 163.493ZM368.757 164.663L367.714 164.944L364.079 158.613L365.122 158.332L368.757 164.663ZM361.941 160.092C362.449 160.978 362.69 161.844 362.663 162.691C362.636 163.538 362.36 164.331 361.834 165.071C361.308 165.81 360.566 166.487 359.608 167.101L358.751 166.483C359.608 165.942 360.274 165.359 360.749 164.733C361.223 164.108 361.489 163.461 361.548 162.793C361.606 162.124 361.447 161.462 361.07 160.806L360.832 160.391L361.941 160.092ZM361.981 160.985L357.044 162.316L356.595 161.533L361.532 160.203L361.981 160.985ZM364.977 165.805C365.769 165.592 366.506 165.486 367.189 165.49C367.871 165.493 368.457 165.602 368.947 165.817C369.436 166.032 369.801 166.349 370.041 166.768C370.282 167.187 370.331 167.591 370.189 167.981C370.047 168.37 369.727 168.726 369.231 169.047C368.734 169.368 368.09 169.635 367.298 169.848C366.506 170.062 365.768 170.167 365.086 170.164C364.403 170.161 363.814 170.05 363.318 169.832C362.822 169.615 362.454 169.296 362.213 168.877C361.973 168.458 361.927 168.055 362.076 167.668C362.224 167.282 362.547 166.928 363.044 166.607C363.54 166.286 364.185 166.018 364.977 165.805ZM365.405 166.552C364.82 166.701 364.337 166.886 363.956 167.107C363.575 167.328 363.321 167.568 363.195 167.826C363.068 168.083 363.08 168.343 363.23 168.603C363.379 168.864 363.627 169.057 363.974 169.183C364.321 169.309 364.741 169.364 365.236 169.35C365.73 169.335 366.272 169.248 366.862 169.089C367.443 168.933 367.919 168.745 368.292 168.526C368.664 168.307 368.914 168.071 369.043 167.817C369.172 167.563 369.161 167.306 369.012 167.045C368.862 166.784 368.613 166.589 368.264 166.46C367.915 166.33 367.495 166.272 367.005 166.285C366.515 166.299 365.982 166.388 365.405 166.552ZM381.865 165.978L380.835 166.255L374.784 155.714L375.813 155.437L381.865 165.978ZM380.628 159.999L378.463 160.583L378.013 159.8L380.178 159.217L380.628 159.999ZM373.43 157.393C374.02 158.421 374.389 159.44 374.537 160.449C374.685 161.459 374.579 162.455 374.218 163.438C373.857 164.421 373.215 165.356 372.292 166.243L371.289 165.665C372.099 164.881 372.683 164.061 373.041 163.207C373.4 162.353 373.533 161.475 373.442 160.573C373.351 159.671 373.038 158.754 372.503 157.821L372.414 157.667L373.43 157.393ZM373.391 158.307L368.454 159.638L368.005 158.855L372.942 157.525L373.391 158.307ZM389.692 155.996L381.679 158.155L381.236 157.385L389.249 155.225L389.692 155.996ZM382.463 157.451L381.433 157.728L379.664 154.646L380.693 154.368L382.463 157.451ZM392.07 157.669L381.364 160.554L380.921 159.783L391.627 156.898L392.07 157.669ZM387.255 160.062C388.099 159.834 388.865 159.712 389.552 159.696C390.239 159.68 390.826 159.773 391.312 159.975C391.799 160.177 392.158 160.479 392.39 160.882C392.621 161.285 392.658 161.672 392.5 162.044C392.342 162.415 392.005 162.757 391.489 163.069C390.972 163.382 390.291 163.652 389.446 163.88C388.601 164.107 387.832 164.228 387.139 164.241C386.445 164.255 385.856 164.163 385.372 163.965C384.887 163.767 384.529 163.466 384.298 163.063C384.066 162.66 384.028 162.271 384.184 161.896C384.34 161.52 384.679 161.178 385.202 160.868C385.726 160.558 386.41 160.289 387.255 160.062ZM387.677 160.797C387.052 160.965 386.539 161.156 386.138 161.369C385.737 161.582 385.471 161.809 385.339 162.05C385.208 162.29 385.213 162.533 385.354 162.778C385.494 163.023 385.735 163.203 386.074 163.317C386.414 163.43 386.836 163.474 387.339 163.448C387.842 163.422 388.406 163.325 389.031 163.156C389.647 162.99 390.155 162.799 390.553 162.582C390.952 162.365 391.219 162.136 391.355 161.894C391.49 161.652 391.488 161.408 391.347 161.163C391.206 160.918 390.966 160.739 390.626 160.625C390.287 160.511 389.866 160.469 389.365 160.499C388.864 160.529 388.301 160.629 387.677 160.797ZM402.115 155.428L401.085 155.705L397.566 149.575L398.595 149.297L402.115 155.428ZM402.372 152.319L400.155 152.916L399.699 152.122L401.916 151.524L402.372 152.319ZM396.637 158.738L401.997 157.294L401.35 156.167L402.38 155.89L404.565 159.696L397.146 161.695L394.961 157.889L395.991 157.612L396.637 158.738ZM403.107 159.227L402.419 158.029L397.059 159.473L397.747 160.671L403.107 159.227ZM397.512 151.739L390.516 153.624L390.073 152.854L397.07 150.968L397.512 151.739ZM394.293 153.168C394.856 153.016 395.392 152.958 395.901 152.995C396.41 153.031 396.863 153.157 397.262 153.374C397.661 153.591 397.967 153.885 398.18 154.256C398.393 154.628 398.461 154.984 398.382 155.324C398.303 155.665 398.097 155.969 397.763 156.237C397.429 156.505 396.98 156.715 396.417 156.867C395.854 157.019 395.314 157.075 394.799 157.036C394.284 156.997 393.83 156.87 393.438 156.657C393.046 156.443 392.743 156.15 392.53 155.779C392.317 155.407 392.246 155.05 392.318 154.706C392.39 154.363 392.597 154.058 392.937 153.793C393.278 153.528 393.73 153.32 394.293 153.168ZM394.708 153.891C394.343 153.98 394.047 154.11 393.82 154.281C393.592 154.452 393.454 154.644 393.404 154.859C393.354 155.073 393.393 155.291 393.52 155.512C393.647 155.733 393.835 155.911 394.085 156.044C394.334 156.178 394.627 156.254 394.963 156.273C395.299 156.292 395.648 156.253 396.009 156.156C396.369 156.058 396.663 155.924 396.891 155.754C397.118 155.583 397.258 155.39 397.313 155.174C397.367 154.959 397.33 154.741 397.203 154.519C397.072 154.29 396.878 154.112 396.622 153.985C396.366 153.857 396.072 153.784 395.74 153.764C395.409 153.743 395.065 153.786 394.708 153.891ZM394.325 152.187L393.295 152.465L392.376 150.864L393.406 150.586L394.325 152.187ZM416.493 156.646L415.464 156.923L409.412 146.383L410.442 146.105L416.493 156.646ZM406.891 155.797L405.874 156.071L402.13 149.55L403.147 149.276L406.891 155.797ZM406.511 155.27C407.471 155.011 408.396 154.716 409.288 154.384C410.18 154.053 411.049 153.668 411.895 153.23L412.496 153.985C411.606 154.435 410.712 154.829 409.814 155.167C408.915 155.505 407.969 155.808 406.974 156.076L406.024 156.332L405.561 155.526L406.511 155.27ZM427.258 153.773L426.228 154.05L420.163 143.485L421.193 143.208L427.258 153.773ZM426.005 147.634L423.801 148.228L423.351 147.446L425.556 146.852L426.005 147.634ZM417.647 152.406C418.783 152.1 419.75 151.807 420.55 151.528C421.35 151.248 422.136 150.922 422.908 150.55L423.503 151.321C422.722 151.695 421.927 152.019 421.118 152.292C420.309 152.564 419.302 152.863 418.096 153.188L417.172 153.437L416.723 152.655L417.647 152.406ZM419.138 145.843L414.69 147.042L417.957 152.733L416.927 153.01L413.218 146.548L418.696 145.072L419.138 145.843Z" fill="#606060"/>
<rect width="120" height="48" rx="16" transform="matrix(0.965556 -0.260196 0.497869 0.867252 157.668 271.35)" fill="#F2F2F2"/>
<g clip-path="url(#clip0_1270_7378)">
<rect width="28" height="28" rx="8" transform="matrix(0.965556 -0.260196 0.497869 0.867252 172.302 277.42)" fill="#1BC0E7"/>
<g clip-path="url(#clip1_1270_7378)">
<path d="M193.303 286.813C194.255 286.557 194.628 285.656 194.137 284.801C193.647 283.946 192.477 283.461 191.525 283.717C190.573 283.974 190.2 284.875 190.69 285.73C191.181 286.585 192.351 287.07 193.303 286.813Z" fill="white"/>
<path d="M189.355 289.644L188.924 289.659C185.722 289.78 183.469 289.125 182.747 287.867C182.024 286.607 183.023 285.077 185.486 283.671L185.818 283.482L186.12 283.792C186.916 284.603 187.779 285.369 188.702 286.084L188.872 286.216L188.879 286.392C188.914 287.347 189.043 288.312 189.268 289.277L189.355 289.644ZM185.764 284.508C183.924 285.633 183.079 286.82 183.555 287.649C184.03 288.476 185.828 288.952 188.294 288.915C188.125 288.092 188.021 287.269 187.98 286.456C187.198 285.841 186.458 285.191 185.764 284.508ZM199.006 287.043L198.705 286.732C197.908 285.921 197.044 285.155 196.121 284.44L195.951 284.308L195.944 284.131C195.91 283.178 195.778 282.213 195.556 281.247L195.468 280.88L195.899 280.864C199.102 280.743 201.353 281.398 202.076 282.658C202.799 283.917 201.801 285.447 199.337 286.853L199.006 287.043ZM196.841 284.068C197.659 284.715 198.404 285.368 199.059 286.014C200.9 284.89 201.744 283.703 201.269 282.875C200.793 282.046 198.996 281.572 196.529 281.607C196.697 282.431 196.802 283.253 196.841 284.068Z" fill="white"/>
<path d="M185.756 284.506L185.455 284.196C183.21 281.889 182.414 280.017 183.273 279.059C184.109 278.118 186.448 278.334 189.521 279.644L189.94 279.823L189.811 280.149C189.48 281.008 189.239 281.902 189.092 282.82L189.064 282.99L188.882 283.055C187.896 283.405 186.962 283.827 186.088 284.318L185.756 284.506ZM184.531 279.299C184.314 279.357 184.148 279.451 184.034 279.578C183.472 280.207 184.158 281.686 185.825 283.482C186.587 283.079 187.385 282.723 188.22 282.418C188.356 281.637 188.556 280.873 188.817 280.132C186.928 279.372 185.383 279.069 184.531 279.299ZM200.708 291.948C199.561 292.257 197.641 291.877 195.302 290.879L194.884 290.7L195.013 290.375C195.344 289.515 195.584 288.62 195.731 287.701L195.76 287.533L195.938 287.466C196.925 287.118 197.86 286.696 198.734 286.204L199.066 286.015L199.368 286.325C201.608 288.632 202.407 290.505 201.55 291.463C201.341 291.693 201.05 291.861 200.708 291.948ZM196.007 290.39C197.895 291.15 199.441 291.454 200.293 291.224C200.51 291.166 200.676 291.071 200.789 290.945C201.352 290.315 200.665 288.834 198.997 287.038C198.236 287.441 197.438 287.799 196.6 288.103C196.467 288.886 196.269 289.65 196.007 290.39Z" fill="white"/>
<path d="M196.532 281.601L196.102 281.618C194.973 281.666 193.868 281.793 192.799 281.998L192.603 282.034L192.414 281.923C191.393 281.318 190.328 280.776 189.231 280.303L188.813 280.124L188.942 279.799C189.888 277.407 191.385 276.157 192.935 276.455C194.515 276.757 195.795 278.498 196.445 281.234L196.532 281.601ZM192.651 281.224C193.615 281.049 194.559 280.938 195.464 280.884C194.899 278.791 193.931 277.388 192.893 277.189C191.859 276.99 190.725 278.027 189.943 279.828C190.871 280.248 191.776 280.714 192.651 281.224ZM192.986 294.028C192.649 294.124 192.27 294.137 191.888 294.066C190.307 293.765 189.028 292.022 188.377 289.286L188.287 288.919L188.718 288.903C189.77 288.863 190.88 288.735 192.019 288.521L192.216 288.487L192.405 288.597C193.425 289.201 194.491 289.744 195.589 290.219L196.007 290.397L195.878 290.723C195.159 292.546 194.132 293.719 192.986 294.028ZM189.358 289.636C189.924 291.729 190.893 293.134 191.931 293.333C192.961 293.526 194.093 292.495 194.881 290.693C193.952 290.272 193.047 289.806 192.17 289.298C191.254 289.464 190.315 289.577 189.358 289.636Z" fill="white"/>
<path d="M194.44 288.793C193.776 288.972 193.081 289.13 192.368 289.263L192.17 289.299L191.981 289.188C191.309 288.794 190.653 288.38 190.013 287.947C189.374 287.512 188.753 287.058 188.15 286.588L187.98 286.456L187.972 286.279C187.946 285.653 187.95 285.031 187.985 284.415C188.023 283.808 188.092 283.192 188.191 282.587L188.22 282.419L188.401 282.352C189.691 281.887 191.047 281.522 192.454 281.26L192.651 281.226L192.84 281.335C194.184 282.123 195.466 282.993 196.673 283.935L196.843 284.069L196.851 284.244C196.906 285.497 196.832 286.733 196.629 287.937L196.601 288.107L196.422 288.172C195.769 288.405 195.102 288.615 194.44 288.793ZM192.219 288.486C193.457 288.246 194.614 287.934 195.759 287.532C195.922 286.478 195.986 285.4 195.951 284.308C194.892 283.491 193.773 282.731 192.605 282.037C191.38 282.273 190.196 282.592 189.064 282.991C188.898 284.045 188.834 285.123 188.873 286.216C189.934 287.031 191.052 287.79 192.219 288.486Z" fill="white"/>
</g>
</g>
<path d="M212.236 275.272L215.813 274.308C216.535 274.114 217.213 274.061 217.849 274.15C218.484 274.239 219.048 274.456 219.542 274.802C220.04 275.147 220.446 275.595 220.762 276.144C221.077 276.693 221.221 277.205 221.193 277.678C221.164 278.151 220.959 278.567 220.575 278.926C220.192 279.285 219.637 279.562 218.911 279.758L216.35 280.448L215.608 279.155L217.938 278.527C218.374 278.41 218.697 278.261 218.909 278.081C219.118 277.897 219.23 277.684 219.244 277.443C219.262 277.201 219.183 276.925 219.006 276.617C218.827 276.305 218.608 276.06 218.349 275.884C218.092 275.702 217.793 275.593 217.452 275.557C217.109 275.517 216.722 275.555 216.291 275.672L214.694 276.102L218.88 283.394L217.164 283.857L212.236 275.272ZM224.457 281.891L222.53 282.41L217.984 279.152L219.865 278.645L224.457 281.891ZM228.323 280.993C227.614 281.184 226.921 281.216 226.243 281.088C225.565 280.96 224.94 280.686 224.368 280.265C223.801 279.843 223.325 279.298 222.942 278.63C222.563 277.97 222.369 277.349 222.36 276.767C222.354 276.181 222.526 275.68 222.878 275.266C223.229 274.852 223.744 274.553 224.422 274.371C225.033 274.206 225.653 274.173 226.279 274.274C226.906 274.374 227.505 274.63 228.077 275.042C228.646 275.45 229.138 276.014 229.551 276.733L229.823 277.207L223.955 278.788L223.366 277.763L227.624 276.616C227.456 276.323 227.238 276.081 226.97 275.888C226.702 275.696 226.405 275.568 226.079 275.505C225.758 275.441 225.437 275.452 225.115 275.539C224.772 275.632 224.511 275.786 224.33 276.004C224.15 276.221 224.057 276.475 224.05 276.764C224.046 277.048 224.125 277.337 224.289 277.631L224.793 278.508C225.008 278.884 225.269 279.187 225.575 279.42C225.883 279.647 226.217 279.795 226.576 279.862C226.935 279.93 227.299 279.914 227.669 279.814C227.906 279.75 228.103 279.663 228.258 279.553C228.417 279.441 228.538 279.32 228.62 279.188C228.7 279.052 228.736 278.908 228.73 278.755L230.38 278.31C230.49 278.705 230.484 279.08 230.364 279.437C230.245 279.788 230.012 280.1 229.665 280.371C229.316 280.639 228.868 280.846 228.323 280.993ZM235.042 275.746C234.894 275.79 234.568 275.899 234.062 276.072L233.423 276.299C233.028 276.442 232.76 276.621 232.619 276.837C232.479 277.053 232.488 277.299 232.647 277.576C232.749 277.754 232.887 277.892 233.061 277.991C233.233 278.087 233.43 278.143 233.653 278.16C233.881 278.176 234.112 278.153 234.345 278.09C234.679 278 234.938 277.862 235.121 277.676C235.306 277.485 235.408 277.27 235.429 277.031C235.454 276.792 235.397 276.552 235.259 276.31L234.065 274.257C233.942 274.043 233.79 273.875 233.607 273.751C233.424 273.626 233.211 273.554 232.97 273.532C232.734 273.509 232.474 273.535 232.193 273.611C231.832 273.709 231.574 273.856 231.417 274.053C231.266 274.249 231.225 274.475 231.295 274.729L229.658 275.171C229.496 274.79 229.457 274.422 229.542 274.065C229.629 273.704 229.844 273.384 230.187 273.104C230.532 272.82 230.994 272.599 231.575 272.443C232.086 272.305 232.599 272.247 233.114 272.268C233.629 272.289 234.124 272.427 234.601 272.682C235.075 272.933 235.467 273.327 235.775 273.864L238.25 278.174L236.639 278.608L236.129 277.719L236.076 277.733C236.077 277.957 236.026 278.169 235.923 278.37C235.825 278.57 235.662 278.755 235.434 278.926C235.205 279.093 234.91 279.225 234.549 279.322C234.087 279.447 233.633 279.482 233.185 279.43C232.738 279.377 232.325 279.232 231.946 278.997C231.572 278.76 231.267 278.438 231.034 278.031C230.648 277.359 230.62 276.81 230.949 276.383C231.276 275.953 231.821 275.61 232.584 275.354C232.691 275.312 233.091 275.181 233.784 274.962L234.457 274.754L235.042 275.746ZM242.703 277.118C242.003 277.307 241.311 277.331 240.626 277.192C239.946 277.051 239.323 276.767 238.757 276.34C238.196 275.911 237.73 275.373 237.358 274.725C236.983 274.073 236.793 273.458 236.786 272.88C236.778 272.298 236.951 271.8 237.307 271.384C237.661 270.965 238.183 270.662 238.874 270.476C239.451 270.321 240.02 270.277 240.582 270.344C241.142 270.408 241.655 270.58 242.121 270.861C242.589 271.136 242.973 271.5 243.274 271.953L241.67 272.385C241.503 272.184 241.31 272.019 241.089 271.892C240.866 271.76 240.629 271.673 240.376 271.632C240.124 271.59 239.863 271.606 239.595 271.678C239.247 271.772 238.99 271.939 238.824 272.18C238.655 272.418 238.585 272.712 238.615 273.065C238.649 273.416 238.79 273.807 239.037 274.238C239.287 274.673 239.576 275.031 239.905 275.312C240.232 275.589 240.576 275.777 240.937 275.876C241.299 275.974 241.656 275.976 242.008 275.882C242.259 275.814 242.459 275.712 242.61 275.576C242.762 275.434 242.858 275.265 242.897 275.067C242.934 274.865 242.911 274.645 242.831 274.407L244.434 273.975C244.656 274.44 244.736 274.882 244.677 275.299C244.617 275.717 244.419 276.085 244.083 276.404C243.753 276.721 243.292 276.959 242.703 277.118ZM247.158 269.681L243.053 270.787L242.386 269.625L246.491 268.519L247.158 269.681ZM244.2 267.357L247.672 273.404C247.783 273.597 247.903 273.741 248.033 273.833C248.16 273.922 248.291 273.974 248.426 273.988C248.563 273.996 248.712 273.981 248.873 273.943C249.069 273.894 249.307 273.819 249.589 273.715L250.3 274.954C250.052 275.071 249.748 275.179 249.387 275.276C248.956 275.392 248.533 275.431 248.12 275.391C247.704 275.348 247.323 275.221 246.977 275.008C246.631 274.795 246.349 274.493 246.128 274.1L242.517 267.81L244.2 267.357Z" fill="#212121"/>
<rect width="120" height="48" rx="16" transform="matrix(0.965556 -0.260196 0.497869 0.867252 281.259 238.045)" fill="#F2F2F2"/>
<g clip-path="url(#clip2_1270_7378)">
<rect width="28" height="28" rx="8" transform="matrix(0.965556 -0.260196 0.497869 0.867252 295.894 244.115)" fill="white"/>
<g clip-path="url(#clip3_1270_7378)">
<path d="M325.937 249.857C324.91 248 323.185 245.928 320.74 243.61L318.822 241.793L318.897 243.992C318.901 244.11 318.896 244.227 318.888 244.344C316.451 243.497 313.804 243.295 311.403 243.942C306.07 245.379 303.976 250.427 306.726 255.217C309.475 260.007 316.027 262.724 321.36 261.287C326.693 259.85 328.787 254.803 326.037 250.013C326.006 249.959 325.969 249.91 325.937 249.857Z" fill="#8BC34A"/>
<path d="M325.939 254.323C325.502 256.595 322.891 257.414 320.357 258.052L317.083 258.934L316.147 259.186C317.889 257.919 319.066 257.412 320.01 256.443C321.793 254.628 322.76 251.448 321.754 248.682C322.275 251.463 320.699 254.398 318.634 255.976C317.217 257.055 314.37 258.5 314.37 258.5L314.205 258.471C311.475 258.076 308.906 253.734 312.039 251.264C313.41 250.182 315.255 250.077 316.882 249.162C318.621 248.187 320.127 246.18 320.026 244.121C322.734 246.729 326.595 250.916 325.939 254.323ZM315.955 259.962C315.906 260.15 315.749 260.295 315.531 260.354C315.134 260.461 314.641 260.254 314.436 259.898C314.231 259.541 314.39 259.159 314.785 259.053C314.949 259.008 315.141 259.016 315.323 259.076C315.761 259.218 316.045 259.617 315.955 259.962Z" fill="white"/>
</g>
</g>
<path d="M342.367 242.923C342.202 242.689 341.991 242.504 341.735 242.367C341.483 242.23 341.201 242.153 340.887 242.137C340.575 242.117 340.245 242.153 339.898 242.247C339.546 242.341 339.265 242.472 339.055 242.638C338.85 242.803 338.724 242.99 338.676 243.199C338.633 243.407 338.675 243.621 338.802 243.843C338.988 244.167 339.281 244.377 339.683 244.475C340.088 244.571 340.567 244.608 341.119 244.587L342.126 244.549C343.077 244.498 343.92 244.597 344.652 244.847C345.385 245.097 345.952 245.567 346.354 246.257C346.642 246.759 346.751 247.241 346.68 247.703C346.615 248.163 346.37 248.573 345.947 248.934C345.528 249.293 344.94 249.575 344.184 249.779C343.444 249.978 342.741 250.049 342.073 249.992C341.407 249.929 340.807 249.739 340.275 249.422C339.742 249.105 339.301 248.669 338.953 248.115L340.642 247.659C340.837 247.945 341.082 248.164 341.378 248.317C341.672 248.466 341.993 248.553 342.343 248.577C342.69 248.598 343.046 248.559 343.411 248.46C343.79 248.358 344.095 248.217 344.326 248.036C344.558 247.855 344.699 247.65 344.751 247.422C344.805 247.188 344.763 246.951 344.624 246.71C344.502 246.496 344.33 246.335 344.11 246.225C343.887 246.112 343.622 246.039 343.315 246.008C343.011 245.976 342.646 245.967 342.217 245.982L340.985 246.027C340.056 246.053 339.263 245.938 338.608 245.682C337.956 245.424 337.459 244.996 337.117 244.399C336.831 243.901 336.731 243.422 336.817 242.96C336.9 242.495 337.148 242.086 337.56 241.733C337.97 241.376 338.507 241.108 339.172 240.929C339.836 240.75 340.486 240.696 341.121 240.767C341.761 240.836 342.333 241.02 342.839 241.317C343.343 241.61 343.74 241.996 344.03 242.475L342.367 242.923ZM345.058 241.958L346.701 241.515L347.311 242.576L347.416 242.548C347.417 242.301 347.447 242.079 347.506 241.88C347.569 241.681 347.704 241.487 347.911 241.299C348.12 241.106 348.418 240.957 348.806 240.852C349.369 240.701 349.946 240.693 350.538 240.83C351.132 240.962 351.701 241.245 352.244 241.678C352.79 242.106 353.262 242.668 353.662 243.364C354.056 244.051 354.27 244.681 354.303 245.251C354.341 245.821 354.211 246.298 353.914 246.684C353.615 247.066 353.184 247.333 352.621 247.485C352.238 247.588 351.875 247.619 351.532 247.579C351.191 247.534 350.897 247.456 350.65 247.345C350.408 247.232 350.165 247.088 349.921 246.911L349.849 246.931L351.819 250.363L350.143 250.815L345.058 241.958ZM348.54 244.73C348.778 245.145 349.055 245.495 349.371 245.78C349.684 246.06 350.018 246.253 350.373 246.358C350.733 246.462 351.091 246.466 351.447 246.37C351.812 246.272 352.072 246.099 352.225 245.852C352.38 245.601 352.432 245.301 352.38 244.955C352.331 244.603 352.188 244.222 351.952 243.811C351.721 243.408 351.449 243.068 351.138 242.791C350.831 242.513 350.501 242.324 350.148 242.222C349.793 242.117 349.431 242.115 349.061 242.214C348.701 242.311 348.441 242.479 348.284 242.718C348.124 242.953 348.066 243.242 348.111 243.586C348.156 243.93 348.299 244.311 348.54 244.73ZM352.812 239.869L354.436 239.431L355.052 240.504L355.131 240.483C355.045 240.077 355.103 239.73 355.304 239.443C355.503 239.153 355.809 238.951 356.223 238.84C356.434 238.783 356.647 238.742 356.861 238.716L357.66 240.109C357.574 240.1 357.447 240.11 357.28 240.136C357.112 240.163 356.96 240.195 356.824 240.232C356.52 240.314 356.279 240.447 356.101 240.632C355.923 240.817 355.824 241.035 355.806 241.287C355.785 241.534 355.853 241.794 356.01 242.067L358.185 245.855L356.508 246.307L352.812 239.869ZM357.57 238.586L359.246 238.135L362.942 244.573L361.266 245.025L357.57 238.586ZM357.874 237.443C357.702 237.49 357.521 237.497 357.331 237.467C357.138 237.432 356.961 237.363 356.801 237.26C356.64 237.158 356.518 237.033 356.434 236.887C356.348 236.737 356.312 236.586 356.328 236.436C356.343 236.286 356.405 236.155 356.514 236.044C356.623 235.932 356.763 235.853 356.935 235.807C357.115 235.759 357.3 235.75 357.491 235.78C357.681 235.811 357.857 235.878 358.018 235.981C358.178 236.084 358.302 236.21 358.388 236.36C358.472 236.507 358.506 236.655 358.491 236.805C358.475 236.955 358.414 237.088 358.308 237.203C358.199 237.315 358.054 237.395 357.874 237.443ZM365.905 243.775L364.228 244.227L360.532 237.788L362.136 237.356L362.762 238.447L362.841 238.425C362.804 238.007 362.907 237.646 363.15 237.343C363.393 237.04 363.778 236.818 364.306 236.675C364.803 236.541 365.289 236.52 365.763 236.611C366.239 236.697 366.681 236.896 367.088 237.206C367.499 237.515 367.851 237.924 368.144 238.434L370.499 242.537L368.822 242.989L366.6 239.117C366.434 238.829 366.238 238.599 366.013 238.427C365.785 238.251 365.536 238.135 365.265 238.08C364.995 238.025 364.71 238.038 364.411 238.119C364.112 238.2 363.88 238.328 363.717 238.504C363.554 238.681 363.473 238.897 363.472 239.152C363.472 239.408 363.56 239.69 363.737 239.998L365.905 243.775ZM376.357 243.902C375.736 244.069 375.142 244.136 374.574 244.102C374.012 244.07 373.512 243.943 373.073 243.719C372.637 243.499 372.28 243.191 372.002 242.796L373.679 242.344C373.904 242.603 374.192 242.765 374.544 242.829C374.897 242.894 375.291 242.868 375.726 242.75C376.259 242.607 376.608 242.387 376.773 242.092C376.941 241.8 376.894 241.425 376.63 240.967L375.926 239.739L375.84 239.762C375.846 239.994 375.81 240.206 375.734 240.4C375.659 240.589 375.514 240.774 375.298 240.956C375.082 241.137 374.781 241.28 374.393 241.385C373.83 241.536 373.255 241.552 372.668 241.432C372.083 241.307 371.523 241.04 370.989 240.632C370.452 240.219 369.989 239.673 369.599 238.994C369.206 238.31 369 237.69 368.981 237.134C368.959 236.574 369.101 236.109 369.407 235.739C369.711 235.365 370.142 235.103 370.701 234.952C371.097 234.845 371.465 234.815 371.806 234.86C372.145 234.901 372.43 234.977 372.661 235.088C372.89 235.195 373.144 235.346 373.423 235.54L373.509 235.516L372.9 234.455L374.557 234.009L378.314 240.554C378.618 241.084 378.733 241.571 378.658 242.015C378.587 242.459 378.351 242.84 377.949 243.158C377.548 243.476 377.017 243.724 376.357 243.902ZM374.165 240.07C374.526 239.973 374.788 239.811 374.953 239.584C375.117 239.357 375.181 239.08 375.146 238.752C375.112 238.418 374.977 238.046 374.741 237.635C374.505 237.224 374.231 236.885 373.92 236.617C373.614 236.349 373.285 236.166 372.934 236.068C372.588 235.97 372.233 235.97 371.867 236.068C371.507 236.166 371.249 236.336 371.093 236.578C370.935 236.817 370.879 237.108 370.924 237.452C370.967 237.792 371.102 238.16 371.328 238.555C371.558 238.954 371.823 239.284 372.125 239.545C372.428 239.806 372.753 239.983 373.101 240.076C373.449 240.169 373.804 240.167 374.165 240.07Z" fill="#212121"/>
<rect width="120" height="48" rx="16" transform="matrix(0.965556 -0.260196 0.497869 0.867252 404.851 204.74)" fill="#F2F2F2"/>
<g clip-path="url(#clip4_1270_7378)">
<rect width="28" height="28" rx="8" transform="matrix(0.965556 -0.260196 0.497869 0.867252 419.484 210.811)" fill="#FFC813"/>
<g clip-path="url(#clip5_1270_7378)">
<path fill-rule="evenodd" clip-rule="evenodd" d="M441.569 214.306C440.722 214.865 439.452 215.404 437.961 215.805C436.471 216.207 435.005 216.405 433.83 216.392C433.245 216.385 432.703 216.325 432.254 216.195C432.188 216.176 432.121 216.155 432.055 216.131L433.631 218.876L433.634 218.875C433.642 218.893 433.65 218.91 433.66 218.928C434.134 219.753 436.881 219.785 439.795 219C442.71 218.214 444.688 216.909 444.214 216.084C444.205 216.066 444.194 216.049 444.182 216.033L444.185 216.032L442.609 213.287C442.584 213.335 442.557 213.382 442.527 213.427C442.328 213.732 441.99 214.028 441.569 214.306Z" fill="white"/>
<path fill-rule="evenodd" clip-rule="evenodd" d="M443.677 217.98C442.831 218.538 441.561 219.078 440.07 219.479C438.579 219.881 437.113 220.079 435.938 220.065C435.354 220.058 434.811 219.999 434.362 219.869C434.296 219.85 434.229 219.829 434.163 219.805L435.739 222.55L435.742 222.549C435.75 222.567 435.759 222.584 435.769 222.602C436.242 223.427 438.989 223.459 441.903 222.674C444.818 221.888 446.797 220.583 446.323 219.757C446.313 219.74 446.302 219.723 446.29 219.707L446.293 219.706L444.717 216.961C444.693 217.009 444.665 217.056 444.636 217.101C444.436 217.405 444.098 217.702 443.677 217.98Z" fill="white"/>
<path fill-rule="evenodd" clip-rule="evenodd" d="M445.806 221.689C444.959 222.247 443.689 222.787 442.199 223.188C440.708 223.59 439.242 223.788 438.067 223.774C437.483 223.767 436.94 223.708 436.491 223.578C436.425 223.559 436.358 223.538 436.292 223.514L437.868 226.259L437.871 226.258C437.879 226.276 437.888 226.293 437.898 226.311C438.371 227.136 441.118 227.168 444.032 226.383C446.947 225.597 448.925 224.292 448.452 223.466C448.442 223.449 448.431 223.432 448.419 223.416L448.422 223.415L446.846 220.67C446.822 220.718 446.794 220.765 446.765 220.81C446.565 221.114 446.227 221.411 445.806 221.689Z" fill="white"/>
<ellipse cx="5.46535" cy="1.72277" rx="5.46535" ry="1.72277" transform="matrix(0.965556 -0.260196 0.497869 0.867252 430.673 213.725)" fill="white"/>
</g>
</g>
<path d="M465.158 217.028L464.389 215.689L466.726 215.059C467.399 214.877 467.892 214.617 468.205 214.277C468.522 213.936 468.668 213.518 468.643 213.022C468.616 212.523 468.414 211.946 468.037 211.29C467.661 210.633 467.237 210.118 466.768 209.742C466.296 209.363 465.778 209.124 465.213 209.025C464.652 208.925 464.044 208.963 463.389 209.14L460.947 209.798L460.177 208.458L462.712 207.775C463.658 207.52 464.573 207.472 465.457 207.631C466.338 207.786 467.147 208.136 467.882 208.682C468.617 209.228 469.238 209.944 469.747 210.829C470.257 211.718 470.513 212.535 470.513 213.279C470.517 214.021 470.271 214.658 469.773 215.189C469.275 215.72 468.544 216.116 467.581 216.376L465.158 217.028ZM466.063 216.785L464.346 217.247L459.418 208.663L461.134 208.2L466.063 216.785ZM475.975 210.821C475.828 210.865 475.501 210.974 474.996 211.146L474.356 211.373C473.961 211.516 473.693 211.696 473.553 211.912C473.412 212.127 473.422 212.374 473.58 212.65C473.682 212.828 473.82 212.967 473.994 213.066C474.166 213.161 474.363 213.218 474.587 213.235C474.814 213.251 475.045 213.228 475.278 213.165C475.613 213.075 475.871 212.937 476.054 212.751C476.239 212.559 476.342 212.344 476.362 212.106C476.387 211.867 476.331 211.626 476.192 211.385L474.998 209.332C474.876 209.118 474.723 208.949 474.54 208.825C474.357 208.701 474.145 208.628 473.904 208.607C473.667 208.584 473.408 208.61 473.126 208.686C472.765 208.783 472.507 208.93 472.351 209.128C472.199 209.324 472.158 209.549 472.228 209.804L470.591 210.245C470.429 209.865 470.39 209.496 470.475 209.14C470.563 208.779 470.778 208.459 471.12 208.179C471.465 207.895 471.928 207.674 472.509 207.517C473.019 207.38 473.532 207.322 474.047 207.343C474.562 207.363 475.058 207.501 475.534 207.756C476.009 208.007 476.4 208.402 476.709 208.939L479.183 213.249L477.572 213.683L477.062 212.794L477.009 212.808C477.01 213.031 476.959 213.244 476.856 213.445C476.758 213.645 476.595 213.83 476.368 214.001C476.138 214.168 475.843 214.3 475.482 214.397C475.02 214.521 474.566 214.557 474.119 214.504C473.672 214.451 473.259 214.307 472.879 214.071C472.505 213.835 472.201 213.513 471.967 213.106C471.581 212.434 471.553 211.885 471.882 211.458C472.209 211.028 472.754 210.685 473.517 210.429C473.625 210.386 474.025 210.256 474.717 210.037L475.39 209.828L475.975 210.821ZM480.971 206.675L476.865 207.781L476.198 206.619L480.304 205.513L480.971 206.675ZM478.013 204.35L481.485 210.397C481.596 210.591 481.716 210.734 481.846 210.827C481.973 210.916 482.104 210.967 482.239 210.981C482.376 210.99 482.525 210.975 482.686 210.936C482.882 210.888 483.12 210.812 483.401 210.709L484.113 211.948C483.865 212.065 483.56 212.172 483.2 212.269C482.768 212.386 482.346 212.424 481.932 212.385C481.516 212.342 481.135 212.214 480.79 212.001C480.444 211.789 480.161 211.486 479.941 211.094L476.33 204.804L478.013 204.35ZM487.602 207.687C487.455 207.732 487.129 207.84 486.623 208.013L485.984 208.24C485.588 208.383 485.32 208.563 485.18 208.778C485.04 208.994 485.049 209.24 485.208 209.517C485.31 209.695 485.448 209.833 485.622 209.933C485.793 210.028 485.991 210.084 486.214 210.102C486.442 210.118 486.672 210.094 486.906 210.032C487.24 209.942 487.499 209.803 487.681 209.617C487.866 209.426 487.969 209.211 487.99 208.973C488.015 208.733 487.958 208.493 487.82 208.252L486.626 206.198C486.503 205.985 486.35 205.816 486.167 205.692C485.984 205.568 485.772 205.495 485.531 205.473C485.294 205.45 485.035 205.477 484.753 205.553C484.393 205.65 484.134 205.797 483.978 205.994C483.826 206.19 483.786 206.416 483.856 206.671L482.219 207.112C482.056 206.731 482.018 206.363 482.103 206.007C482.19 205.646 482.405 205.325 482.748 205.046C483.092 204.761 483.555 204.541 484.136 204.384C484.646 204.247 485.159 204.188 485.674 204.209C486.189 204.23 486.685 204.368 487.162 204.623C487.636 204.874 488.028 205.268 488.336 205.806L490.81 210.116L489.2 210.55L488.689 209.66L488.637 209.675C488.638 209.898 488.587 210.11 488.484 210.311C488.385 210.511 488.222 210.697 487.995 210.868C487.766 211.034 487.471 211.166 487.11 211.264C486.648 211.388 486.193 211.424 485.746 211.371C485.299 211.318 484.886 211.174 484.507 210.938C484.132 210.701 483.828 210.379 483.594 209.972C483.209 209.3 483.18 208.751 483.51 208.325C483.837 207.894 484.382 207.551 485.144 207.296C485.252 207.253 485.652 207.122 486.345 206.904L487.017 206.695L487.602 207.687ZM487.214 201.172L488.891 200.721L490.732 203.928L490.805 203.908C490.82 203.635 490.857 203.406 490.913 203.222C490.968 203.034 491.099 202.846 491.306 202.657C491.511 202.465 491.809 202.316 492.2 202.211C492.759 202.06 493.337 202.053 493.933 202.189C494.527 202.321 495.098 202.603 495.646 203.035C496.191 203.463 496.664 204.025 497.063 204.72C497.458 205.408 497.672 206.037 497.705 206.608C497.738 207.179 497.606 207.657 497.309 208.043C497.014 208.423 496.581 208.691 496.009 208.845C495.63 208.947 495.272 208.977 494.933 208.936C494.592 208.891 494.3 208.815 494.055 208.707C493.813 208.595 493.564 208.45 493.309 208.272L493.204 208.3L493.786 209.314L492.142 209.757L487.214 201.172ZM491.934 206.089C492.175 206.508 492.452 206.858 492.765 207.138C493.083 207.418 493.418 207.61 493.768 207.717C494.123 207.822 494.479 207.826 494.836 207.73C495.196 207.633 495.453 207.461 495.606 207.215C495.762 206.963 495.816 206.663 495.768 206.315C495.719 205.963 495.576 205.582 495.34 205.171C495.109 204.768 494.84 204.427 494.533 204.15C494.226 203.872 493.894 203.683 493.537 203.583C493.177 203.479 492.815 203.476 492.45 203.575C492.089 203.672 491.832 203.839 491.679 204.077C491.523 204.31 491.466 204.6 491.506 204.945C491.551 205.288 491.694 205.67 491.934 206.089ZM502.53 203.665C502.383 203.709 502.056 203.818 501.551 203.99L500.911 204.217C500.516 204.36 500.248 204.54 500.108 204.756C499.967 204.971 499.977 205.218 500.135 205.494C500.238 205.672 500.375 205.811 500.549 205.91C500.721 206.005 500.918 206.062 501.142 206.079C501.369 206.095 501.6 206.072 501.833 206.009C502.168 205.919 502.426 205.781 502.609 205.595C502.794 205.403 502.897 205.188 502.917 204.95C502.942 204.711 502.886 204.47 502.747 204.229L501.553 202.176C501.431 201.962 501.278 201.793 501.095 201.669C500.912 201.545 500.7 201.472 500.459 201.451C500.222 201.428 499.963 201.454 499.681 201.53C499.32 201.627 499.062 201.774 498.906 201.972C498.754 202.168 498.713 202.393 498.783 202.648L497.147 203.089C496.984 202.709 496.945 202.34 497.03 201.984C497.118 201.623 497.333 201.303 497.675 201.023C498.02 200.739 498.483 200.518 499.064 200.361C499.574 200.224 500.087 200.166 500.602 200.187C501.117 200.207 501.613 200.345 502.089 200.6C502.564 200.851 502.955 201.246 503.264 201.783L505.738 206.093L504.127 206.527L503.617 205.638L503.564 205.652C503.565 205.875 503.514 206.088 503.411 206.289C503.313 206.489 503.15 206.674 502.923 206.845C502.693 207.012 502.398 207.144 502.037 207.241C501.575 207.365 501.121 207.401 500.674 207.348C500.227 207.295 499.814 207.151 499.435 206.915C499.06 206.679 498.756 206.357 498.522 205.95C498.136 205.278 498.108 204.729 498.437 204.302C498.764 203.872 499.309 203.529 500.072 203.273C500.18 203.23 500.58 203.1 501.272 202.881L501.945 202.672L502.53 203.665ZM508.406 200.055C508.208 199.816 507.959 199.658 507.659 199.579C507.36 199.499 507.034 199.507 506.682 199.602C506.445 199.666 506.249 199.755 506.097 199.87C505.944 199.984 505.846 200.115 505.804 200.263C505.767 200.41 505.79 200.557 505.874 200.703C505.967 200.874 506.132 200.999 506.37 201.076C506.607 201.154 506.923 201.18 507.316 201.157L508.673 201.065C509.423 201.009 510.046 201.08 510.542 201.28C511.042 201.478 511.423 201.807 511.687 202.265C511.916 202.664 511.994 203.054 511.923 203.434C511.849 203.81 511.633 204.146 511.275 204.443C510.918 204.741 510.429 204.973 509.808 205.14C509.205 205.302 508.64 205.366 508.111 205.33C507.582 205.295 507.107 205.165 506.684 204.941C506.258 204.714 505.898 204.405 505.603 204.014L507.312 203.554C507.528 203.806 507.79 203.97 508.098 204.047C508.404 204.12 508.753 204.103 509.145 203.998C509.413 203.925 509.631 203.832 509.8 203.718C509.966 203.601 510.071 203.47 510.115 203.325C510.157 203.177 510.133 203.024 510.042 202.866C509.933 202.676 509.76 202.543 509.522 202.465C509.285 202.388 508.969 202.363 508.574 202.392L507.296 202.49C506.559 202.543 505.931 202.463 505.413 202.251C504.898 202.034 504.509 201.698 504.248 201.244C504.021 200.849 503.942 200.471 504.009 200.11C504.079 199.745 504.285 199.422 504.627 199.143C504.974 198.862 505.438 198.644 506.019 198.487C506.578 198.337 507.112 198.284 507.621 198.329C508.132 198.37 508.591 198.501 508.999 198.725C509.406 198.948 509.739 199.249 509.996 199.626L508.406 200.055ZM516.988 203.205C516.28 203.396 515.586 203.428 514.908 203.3C514.231 203.172 513.606 202.898 513.034 202.477C512.466 202.055 511.991 201.51 511.607 200.842C511.228 200.182 511.035 199.561 511.026 198.979C511.019 198.393 511.192 197.892 511.543 197.478C511.895 197.064 512.409 196.765 513.087 196.582C513.699 196.418 514.318 196.385 514.945 196.486C515.571 196.586 516.171 196.842 516.742 197.254C517.312 197.662 517.803 198.226 518.216 198.945L518.488 199.419L512.62 201L512.032 199.975L516.289 198.828C516.121 198.535 515.903 198.293 515.635 198.1C515.367 197.908 515.07 197.78 514.744 197.717C514.423 197.653 514.102 197.664 513.781 197.751C513.437 197.843 513.176 197.998 512.996 198.216C512.816 198.433 512.722 198.687 512.716 198.976C512.711 199.26 512.791 199.549 512.954 199.843L513.458 200.72C513.673 201.095 513.934 201.399 514.24 201.632C514.549 201.859 514.882 202.006 515.241 202.074C515.6 202.142 515.964 202.126 516.334 202.026C516.572 201.962 516.768 201.875 516.923 201.765C517.083 201.653 517.204 201.532 517.285 201.4C517.365 201.264 517.402 201.12 517.395 200.967L519.045 200.522C519.155 200.917 519.149 201.292 519.029 201.649C518.911 202 518.678 202.312 518.331 202.583C517.981 202.851 517.534 203.058 516.988 203.205Z" fill="#212121"/>
<rect width="100" height="36" rx="18" transform="matrix(0.965556 -0.260196 0.497869 0.867252 349.118 336.828)" fill="#E6E6E6"/>
<path d="M391.287 340.816L388.403 341.594L387.783 340.515L390.668 339.737L391.287 340.816ZM385.402 340.602C385.815 341.321 386.072 342.026 386.173 342.715C386.272 343.4 386.207 344.04 385.98 344.636C385.75 345.227 385.35 345.739 384.78 346.171L383.393 345.333C383.906 344.971 384.275 344.547 384.5 344.062C384.722 343.574 384.806 343.06 384.752 342.523C384.702 341.984 384.524 341.45 384.22 340.92L383.519 339.699L384.701 339.381L385.402 340.602ZM385.703 340.541C385.979 341.024 386.35 341.458 386.816 341.843C387.286 342.228 387.831 342.537 388.454 342.771C389.076 343.005 389.738 343.137 390.441 343.167L390.221 344.403C389.421 344.354 388.658 344.176 387.933 343.87C387.211 343.558 386.559 343.145 385.979 342.63C385.399 342.115 384.918 341.524 384.534 340.856L383.823 339.617L384.991 339.302L385.703 340.541ZM394.837 345.076L393.372 345.471L388.808 337.521L390.273 337.126L394.837 345.076ZM396.562 347.562L388.437 349.751L387.817 348.672L395.942 346.483L396.562 347.562ZM389.629 348.828L388.137 349.23L386.476 346.337L387.968 345.935L389.629 348.828ZM395.728 341.399C396.707 341.131 397.495 340.896 398.09 340.695C398.686 340.493 399.265 340.259 399.829 339.993L400.587 341.021C399.984 341.307 399.375 341.556 398.759 341.767C398.146 341.973 397.342 342.21 396.348 342.478L395.556 342.692L394.936 341.613L395.728 341.399ZM397.798 337.172L394.518 338.056L396.679 341.821L395.273 342.2L392.496 337.362L397.182 336.099L397.798 337.172ZM398.847 339.252L395.263 340.217L394.684 339.209L398.268 338.244L398.847 339.252ZM405.573 340.533L404.174 340.91L400.43 334.389L401.83 334.012L405.573 340.533ZM402.984 338.014L400.938 338.565L400.332 337.51L402.378 336.958L402.984 338.014ZM402.886 341.175L401.526 341.542L397.935 335.287L399.295 334.921L402.886 341.175ZM407.969 344.707L406.517 345.098L405.006 342.466L398.287 344.277L397.678 343.215L405.849 341.013L407.969 344.707ZM410.777 338.528L409.305 338.925L408.369 337.295L409.841 336.898L410.777 338.528ZM406.833 333.184C407.409 333.029 407.974 332.981 408.527 333.042C409.082 333.098 409.582 333.255 410.025 333.515C410.471 333.769 410.816 334.109 411.062 334.536C411.3 334.951 411.383 335.358 411.312 335.756C411.243 336.148 411.034 336.497 410.685 336.801C410.34 337.104 409.88 337.333 409.304 337.488C408.727 337.643 408.158 337.692 407.596 337.633C407.038 337.574 406.541 337.415 406.104 337.159C405.665 336.899 405.326 336.561 405.088 336.146C404.845 335.723 404.755 335.314 404.818 334.918C404.88 334.522 405.087 334.175 405.438 333.875C405.791 333.569 406.256 333.339 406.833 333.184ZM407.408 334.186C407.095 334.27 406.843 334.393 406.651 334.554C406.459 334.715 406.345 334.901 406.308 335.112C406.276 335.321 406.327 335.543 406.461 335.776C406.593 336.005 406.773 336.187 407.003 336.321C407.237 336.454 407.504 336.535 407.805 336.564C408.106 336.592 408.414 336.566 408.728 336.486C409.043 336.397 409.294 336.272 409.482 336.112C409.674 335.951 409.787 335.767 409.821 335.562C409.86 335.355 409.814 335.137 409.682 334.908C409.546 334.671 409.36 334.484 409.123 334.346C408.889 334.204 408.623 334.121 408.324 334.096C408.03 334.071 407.725 334.1 407.408 334.186ZM417.122 339.331L415.65 339.728L410.957 331.552L412.429 331.156L417.122 339.331ZM416.656 335.281L414.505 335.86L413.872 334.758L416.023 334.178L416.656 335.281ZM418.865 341.531L410.595 343.76L409.979 342.687L418.249 340.458L418.865 341.531ZM411.733 342.768L410.254 343.167L408.859 340.736L410.337 340.338L411.733 342.768ZM406.191 339.367C407.513 339.016 408.781 338.649 409.995 338.267C411.208 337.885 412.311 337.478 413.303 337.047L413.964 337.985C412.97 338.458 411.892 338.885 410.729 339.267C409.568 339.644 408.312 340.014 406.961 340.378L406.191 339.367ZM423.693 338.3L422.26 338.686L420.78 336.107L422.212 335.721L423.693 338.3ZM427.514 337.256L426.075 337.644L424.595 335.065L426.034 334.677L427.514 337.256ZM430.657 337.169L419.754 340.107L419.131 339.022L430.035 336.084L430.657 337.169ZM426.315 332.219L419.463 334.066L420.58 336.01L419.114 336.405L417.392 333.405L424.263 331.554L423.504 330.232L416.613 332.088L416.001 331.021L424.337 328.775L426.315 332.219ZM428.001 334.585L419.4 336.903L418.784 335.83L427.385 333.512L428.001 334.585Z" fill="#707991"/>
</g>
<defs>
<filter id="filter0_dd_1270_7378" x="-8.14795" y="-5.31641" width="713.553" height="488.369" filterUnits="userSpaceOnUse" color-interpolation-filters="sRGB">
<feFlood flood-opacity="0" result="BackgroundImageFix"/>
<feColorMatrix in="SourceAlpha" type="matrix" values="0 0 0 0 0 0 0 0 0 0 0 0 0 0 0 0 0 0 127 0" result="hardAlpha"/>
<feOffset dy="16"/>
<feGaussianBlur stdDeviation="4"/>
<feComposite in2="hardAlpha" operator="out"/>
<feColorMatrix type="matrix" values="0 0 0 0 0.196078 0 0 0 0 0.231373 0 0 0 0 0.329412 0 0 0 0.08 0"/>
<feBlend mode="normal" in2="BackgroundImageFix" result="effect1_dropShadow_1270_7378"/>
<feColorMatrix in="SourceAlpha" type="matrix" values="0 0 0 0 0 0 0 0 0 0 0 0 0 0 0 0 0 0 127 0" result="hardAlpha"/>
<feOffset/>
<feGaussianBlur stdDeviation="16"/>
<feComposite in2="hardAlpha" operator="out"/>
<feColorMatrix type="matrix" values="0 0 0 0 0 0 0 0 0 0.314036 0 0 0 0 0.848747 0 0 0 0.04 0"/>
<feBlend mode="normal" in2="effect1_dropShadow_1270_7378" result="effect2_dropShadow_1270_7378"/>
<feBlend mode="normal" in="SourceGraphic" in2="effect2_dropShadow_1270_7378" result="shape"/>
</filter>
<clipPath id="clip0_1270_7378">
<rect width="28" height="28" rx="8" transform="matrix(0.965556 -0.260196 0.497869 0.867252 172.302 277.42)" fill="white"/>
</clipPath>
<clipPath id="clip1_1270_7378">
<rect width="24" height="24" rx="6" transform="matrix(0.965556 -0.260196 0.497869 0.867252 175.229 278.635)" fill="white"/>
</clipPath>
<clipPath id="clip2_1270_7378">
<rect width="28" height="28" rx="8" transform="matrix(0.965556 -0.260196 0.497869 0.867252 295.894 244.115)" fill="white"/>
</clipPath>
<clipPath id="clip3_1270_7378">
<rect width="24" height="24" rx="6" transform="matrix(0.965556 -0.260196 0.497869 0.867252 298.82 245.33)" fill="white"/>
</clipPath>
<clipPath id="clip4_1270_7378">
<rect width="28" height="28" rx="8" transform="matrix(0.965556 -0.260196 0.497869 0.867252 419.484 210.811)" fill="white"/>
</clipPath>
<clipPath id="clip5_1270_7378">
<rect width="24" height="24" rx="6" transform="matrix(0.965556 -0.260196 0.497869 0.867252 422.411 212.025)" fill="white"/>
</clipPath>
</defs>
</svg>
