<svg xmlns="http://www.w3.org/2000/svg" width="149" height="123" viewBox="0 0 149 123" fill="none">
  <rect x="78.459" y="118.25" width="24.3243" height="4.05404" rx="2.02702" fill="#F84883"/>
  <rect x="49.6758" y="118.25" width="26.3513" height="4.05404" rx="2.02702" fill="#F84883"/>
  <rect x="90.6211" y="95.9531" width="4.05404" height="24.3243" rx="2.02702" fill="#F84883"/>
  <rect x="67.918" y="95.9531" width="4.05404" height="24.3243" rx="2.02702" fill="#F84883"/>
  <path d="M49.838 73.2171C55.1577 68.5067 55.0346 60.162 49.8523 55.3008C47.1035 52.7223 44.2673 49.9211 42.0181 47.381C40.5669 45.7421 38.9972 43.8022 37.4341 41.7769C31.4257 33.9923 20.0481 32.4501 12.6859 38.9691C5.85683 45.0161 5.33939 55.5534 12.114 61.6613C14.809 64.091 17.635 66.4707 20.2124 68.314C25.2706 71.9315 34.4044 74.4541 40.2488 75.7886C43.6712 76.5701 47.2098 75.5443 49.838 73.2171Z" fill="#72A6FF"/>
  <path d="M33.9071 36.7326C37.1495 15.9813 55.0231 0.683594 76.0261 0.683594C97.0292 0.683594 114.903 15.9813 118.145 36.7326L122.648 65.5483C127.875 90.6404 108.721 114.197 83.0897 114.197H68.9626C43.3317 114.197 24.1771 90.6404 29.4046 65.5483L33.9071 36.7326Z" fill="#85B2FF"/>
  <rect width="24.3243" height="16.2162" rx="8.10808" transform="matrix(0.965926 -0.258819 -0.258819 -0.965926 53.8105 68.0137)" fill="#C4F752"/>
  <rect width="40.5404" height="16.2162" rx="8.10808" transform="matrix(-1 0 0 1 77.6484 42.0352)" fill="#EAFFBA"/>
  <rect x="80.0801" y="29.0625" width="6.89187" height="8.10808" rx="3.44594" fill="black"/>
  <rect x="52.5137" y="29.0625" width="6.89187" height="8.10808" rx="3.44594" fill="black"/>
  <path d="M98.7285 66.079C98.7285 58.9735 105.058 53.5337 112.133 54.1909C115.885 54.5395 119.863 54.8059 123.255 54.8059C125.445 54.8059 127.938 54.695 130.49 54.5227C140.301 53.8603 148.999 61.356 148.999 71.1897C148.999 80.3112 141.453 87.6842 132.389 86.6613C128.783 86.2544 125.128 85.7161 122.039 85.0085C115.978 83.6197 108.034 78.4538 103.16 74.9629C100.306 72.9188 98.7285 69.5895 98.7285 66.079Z" fill="#85B2FF"/>
</svg>