<svg xmlns="http://www.w3.org/2000/svg" width="24" height="25" viewBox="0 0 24 25" fill="none">
<path fill-rule="evenodd" clip-rule="evenodd" d="M7.53033 6.96967C7.23744 6.67678 6.76256 6.67678 6.46967 6.96967C6.17678 7.26256 6.17678 7.73744 6.46967 8.03033L10.9393 12.5L6.46967 16.9697C6.17678 17.2626 6.17678 17.7374 6.46967 18.0303C6.76256 18.3232 7.23744 18.3232 7.53033 18.0303L12 13.5607L16.4697 18.0303C16.7626 18.3232 17.2374 18.3232 17.5303 18.0303C17.8232 17.7374 17.8232 17.2626 17.5303 16.9697L13.0607 12.5L17.5303 8.03033C17.8232 7.73744 17.8232 7.26256 17.5303 6.96967C17.2374 6.67678 16.7626 6.67678 16.4697 6.96967L12 11.4393L7.53033 6.96967Z" fill="black"/>
</svg>