<svg xmlns="http://www.w3.org/2000/svg" width="446" height="157" viewBox="0 0 446 157" fill="none">
  <path d="M2.0016 8.57096C0.419434 11.6761 0.419434 15.741 0.419434 23.8708V99.1934C0.419434 107.323 0.419434 111.388 2.0016 114.493C3.39331 117.225 5.61399 119.445 8.34538 120.837C11.4505 122.419 15.5154 122.419 23.6452 122.419H294.892C299.296 122.419 302.914 125.983 302.642 130.379C302.557 131.754 302.443 133.141 302.294 134.516C300.419 146.21 295.169 151.953 291.968 156.011C291.457 156.658 297.194 155.081 300.419 153.871C300.419 153.871 311.045 150.191 318.86 144.597C326.123 139.397 331.694 132.858 335.03 127.265C336.709 124.449 339.618 122.419 342.896 122.419H422.355C430.485 122.419 434.55 122.419 437.655 120.837C440.386 119.445 442.607 117.225 443.999 114.493C445.581 111.388 445.581 107.323 445.581 99.1934V23.8708C445.581 15.741 445.581 11.6761 443.999 8.57096C442.607 5.83958 440.386 3.61889 437.655 2.22718C434.55 0.64502 430.485 0.64502 422.355 0.64502H23.6452C15.5154 0.64502 11.4505 0.64502 8.34538 2.22718C5.61399 3.61889 3.39331 5.83958 2.0016 8.57096Z" fill="#EDEDED"/>
</svg>