<svg xmlns="http://www.w3.org/2000/svg" width="41" height="40" viewBox="0 0 41 40" fill="none">
  <g clip-path="url(#clip0_1255_7115)">
    <path fill-rule="evenodd" clip-rule="evenodd" d="M23.7481 33.0557L23.7513 33.0549C24.4722 33.0908 25.0455 33.6836 25.0455 34.4083C25.0455 35.1331 24.4722 35.7248 23.7513 35.7608V35.8473C22.5818 36.1109 21.3648 36.25 20.115 36.25C13.5752 36.25 7.93143 32.4402 5.31147 26.9337C5.07755 26.975 4.83677 26.9965 4.59091 26.9965C2.33156 26.9965 0.5 25.1777 0.5 22.934V16.8403C0.5 14.5966 2.33156 12.7778 4.59091 12.7778C4.87201 12.7778 5.14649 12.8059 5.41164 12.8596C8.07338 7.46463 13.6573 3.75 20.115 3.75C26.6513 3.75 32.2925 7.55571 34.9143 13.0575C35.3773 12.8769 35.8815 12.7778 36.4091 12.7778C38.6684 12.7778 40.5 14.5966 40.5 16.8403V22.934C40.5 25.1777 38.6684 26.9965 36.4091 26.9965C34.1497 26.9965 32.3182 25.1777 32.3182 22.934V16.8403C32.3182 16.1645 32.4843 15.5273 32.7783 14.9667C30.7667 9.98022 25.855 6.45833 20.115 6.45833C14.6471 6.45833 9.93086 9.6542 7.7571 14.2676C8.33502 14.9681 8.68182 15.864 8.68182 16.8403V22.934C8.68182 23.9478 8.30786 24.8749 7.68946 25.5866C9.83189 30.2783 14.5897 33.5417 20.115 33.5417C21.1022 33.5417 22.0649 33.4375 22.9926 33.2396C23.1949 33.1217 23.4304 33.0542 23.6818 33.0542C23.7041 33.0542 23.7262 33.0547 23.7481 33.0557ZM5.95455 16.8403V22.934C5.95455 23.6819 5.34402 24.2882 4.59091 24.2882C3.83779 24.2882 3.22727 23.6819 3.22727 22.934V16.8403C3.22727 16.0924 3.83779 15.4861 4.59091 15.4861C5.34402 15.4861 5.95455 16.0924 5.95455 16.8403ZM37.7727 22.934V16.8403C37.7727 16.0924 37.1622 15.4861 36.4091 15.4861C35.656 15.4861 35.0455 16.0924 35.0455 16.8403V22.934C35.0455 23.6819 35.656 24.2882 36.4091 24.2882C37.1622 24.2882 37.7727 23.6819 37.7727 22.934Z" fill="white"/>
    <path d="M14.2931 16.0776C14.2931 15.3211 14.9106 14.7079 15.6724 14.7079C16.4342 14.7079 17.0517 15.3211 17.0517 16.0776V16.8171C17.0517 17.5735 16.4342 18.1868 15.6724 18.1868C14.9106 18.1868 14.2931 17.5735 14.2931 16.8171V16.0776Z" fill="white"/>
    <path d="M23.9483 16.0776C23.9483 15.3211 24.5658 14.7079 25.3276 14.7079C26.0894 14.7079 26.7069 15.3211 26.7069 16.0776V16.8171C26.7069 17.5735 26.0894 18.1868 25.3276 18.1868C24.5658 18.1868 23.9483 17.5735 23.9483 16.8171V16.0776Z" fill="white"/>
    <path fill-rule="evenodd" clip-rule="evenodd" d="M15.1196 21.7911C15.8175 21.4879 16.6307 21.8039 16.9361 22.497C18.2957 25.5832 22.7043 25.5832 24.0639 22.497C24.3693 21.8039 25.1825 21.4879 25.8804 21.7911C26.5783 22.0943 26.8966 22.9019 26.5912 23.595C24.2674 28.8698 16.7326 28.8698 14.4087 23.595C14.1034 22.9019 14.4217 22.0943 15.1196 21.7911Z" fill="white"/>
    <path d="M3 15H6.75V25H3V15Z" fill="white"/>
    <path d="M34.25 15H38V25H34.25V15Z" fill="white"/>
  </g>
  <defs>
    <clipPath id="clip0_1255_7115">
      <rect width="40" height="40" fill="white" transform="translate(0.5)"/>
    </clipPath>
  </defs>
</svg>