<svg width="30" height="19" viewBox="0 0 30 19" fill="none" xmlns="http://www.w3.org/2000/svg">
<rect x="1" y="1" width="28" height="17" rx="3.5" fill="#F5F9FF"/>
<rect x="1" y="1" width="28" height="17" rx="3.5" stroke="#0050D8"/>
<path d="M12.8438 7.58203H10.5762V6.66797H12.8438V7.58203ZM13.6406 10.2422H12.5273V3.99023H13.6406V10.2422ZM10.1191 10.541C10.8574 10.541 11.4922 10.6191 12.0234 10.7754C12.5586 10.9316 12.9668 11.1582 13.248 11.4551C13.5332 11.748 13.6758 12.1016 13.6758 12.5156C13.6758 12.9297 13.5332 13.2832 13.248 13.5762C12.9668 13.873 12.5586 14.0996 12.0234 14.2559C11.4922 14.4121 10.8574 14.4922 10.1191 14.4961C9.38867 14.4922 8.75781 14.4121 8.22656 14.2559C7.69531 14.0996 7.28711 13.873 7.00195 13.5762C6.7168 13.2832 6.57422 12.9297 6.57422 12.5156C6.57422 12.1016 6.7168 11.748 7.00195 11.4551C7.28711 11.1582 7.69531 10.9316 8.22656 10.7754C8.75781 10.6191 9.38867 10.541 10.1191 10.541ZM10.1191 11.3965C9.61523 11.3965 9.17773 11.4414 8.80664 11.5312C8.43945 11.6172 8.1582 11.7441 7.96289 11.9121C7.77148 12.0801 7.67578 12.2812 7.67578 12.5156C7.67578 12.7422 7.77148 12.9395 7.96289 13.1074C8.1582 13.2754 8.43945 13.4043 8.80664 13.4941C9.17773 13.5801 9.61523 13.623 10.1191 13.623C10.6348 13.623 11.0742 13.5801 11.4375 13.4941C11.8047 13.4043 12.084 13.2754 12.2754 13.1074C12.4707 12.9395 12.5684 12.7422 12.5684 12.5156C12.5684 12.2812 12.4707 12.0801 12.2754 11.9121C12.084 11.7441 11.8047 11.6172 11.4375 11.5312C11.0742 11.4414 10.6348 11.3965 10.1191 11.3965ZM8.43164 5.86523C8.43164 6.50977 8.31055 7.11914 8.06836 7.69336C7.83008 8.26758 7.48828 8.77148 7.04297 9.20508C6.59766 9.63477 6.07617 9.96094 5.47852 10.1836L4.89844 9.29297C5.42969 9.10547 5.89258 8.83398 6.28711 8.47852C6.68555 8.12305 6.99023 7.71875 7.20117 7.26562C7.41211 6.80859 7.51758 6.3418 7.51758 5.86523V5.05078H8.43164V5.86523ZM8.64258 5.85352C8.64258 6.29492 8.74414 6.72461 8.94727 7.14258C9.15039 7.55664 9.44336 7.92773 9.82617 8.25586C10.209 8.58008 10.6582 8.83203 11.1738 9.01172L10.6055 9.89648C10.0156 9.68945 9.50586 9.38281 9.07617 8.97656C8.64648 8.57031 8.31641 8.09766 8.08594 7.55859C7.85547 7.01562 7.74023 6.44727 7.74023 5.85352V5.05078H8.64258V5.85352ZM10.9043 5.63086H5.23242V4.71094H10.9043V5.63086ZM23.2078 9.59766H22.1004V3.99023H23.2078V9.59766ZM24.7371 7.31836H22.8973V6.39258H24.7371V7.31836ZM16.2586 8.36133C17.4344 8.36133 18.3602 8.33984 19.0359 8.29688C19.7117 8.25 20.3797 8.1582 21.0398 8.02148L21.1746 8.92383C20.4832 9.06445 19.784 9.16016 19.077 9.21094C18.3738 9.25781 17.4344 9.28125 16.2586 9.28125H15.4207V8.36133H16.2586ZM20.0906 5.57227H16.5281V8.98242H15.4207V4.66992H20.0906V5.57227ZM17.5828 11.3438H22.1004V10.1426H23.2078V14.332H16.4754V10.1426H17.5828V11.3438ZM22.1004 13.4238V12.2227H17.5828V13.4238H22.1004Z" fill="#0050D8"/>
</svg>
