<svg width="200" height="120" viewBox="0 0 200 120" fill="none" xmlns="http://www.w3.org/2000/svg">
<path d="M85 78.5H189L127 101L24 99L85 78.5Z" fill="black" fill-opacity="0.2"/>
<path d="M85 78.5H189L127 101L24 99L85 78.5Z" fill="#D7D7D7"/>
<path d="M85 78.5H189L127 101L24 99L85 78.5Z" stroke="#707991" stroke-width="0.5" stroke-linecap="round" stroke-linejoin="bevel" stroke-dasharray="1.5 1.5"/>
<path d="M23 45H127V101L24 99L23 45Z" fill="#F2F2F2"/>
<path d="M23 45H127V101L24 99L23 45Z" fill="url(#paint0_linear_1548_1899)" fill-opacity="0.1"/>
<path d="M23 45H127V101L24 99L23 45Z" stroke="#707991"/>
<path d="M59 33H156L127 45H23L59 33Z" fill="#FDFDFD"/>
<path d="M59 33H156L127 45H23L59 33Z" fill="url(#paint1_linear_1548_1899)"/>
<path d="M59 33H156L127 45H23L59 33Z" stroke="#707991"/>
<path d="M127 45.0001L156 33V83.7143L127 101V45.0001Z" fill="#D7D7D7"/>
<path d="M127 45.0001L156 33V83.7143L127 101V45.0001Z" fill="url(#paint2_linear_1548_1899)" fill-opacity="0.1"/>
<path d="M127 45.0001L156 33V83.7143L127 101V45.0001Z" stroke="#707991"/>
<circle cx="46" cy="73" r="6.5" fill="#D7D7D7"/>
<circle cx="46" cy="73" r="6.5" fill="url(#paint3_linear_1548_1899)" style="mix-blend-mode:multiply"/>
<circle cx="46" cy="73" r="6.5" stroke="#707991"/>
<circle cx="74" cy="73" r="6.5" fill="#D7D7D7"/>
<circle cx="74" cy="73" r="6.5" fill="url(#paint4_linear_1548_1899)" style="mix-blend-mode:multiply"/>
<circle cx="74" cy="73" r="6.5" stroke="#707991"/>
<circle cx="102" cy="73" r="6.5" fill="#D7D7D7"/>
<circle cx="102" cy="73" r="6.5" fill="url(#paint5_linear_1548_1899)" style="mix-blend-mode:multiply"/>
<circle cx="102" cy="73" r="6.5" stroke="#707991"/>
<defs>
<linearGradient id="paint0_linear_1548_1899" x1="85" y1="45" x2="68.5" y2="101" gradientUnits="userSpaceOnUse">
<stop stop-color="#0050D8" stop-opacity="0"/>
<stop offset="1" stop-color="#0050D8" stop-opacity="0.2"/>
</linearGradient>
<linearGradient id="paint1_linear_1548_1899" x1="128.5" y1="45" x2="115" y2="-15.5" gradientUnits="userSpaceOnUse">
<stop stop-color="#0050D8" stop-opacity="0"/>
<stop offset="1" stop-color="#0050D8" stop-opacity="0.1"/>
</linearGradient>
<linearGradient id="paint2_linear_1548_1899" x1="127" y1="45.5" x2="156" y2="83" gradientUnits="userSpaceOnUse">
<stop stop-color="#0050D8" stop-opacity="0"/>
<stop offset="1" stop-color="#0050D8"/>
</linearGradient>
<linearGradient id="paint3_linear_1548_1899" x1="46" y1="67" x2="46" y2="80.5" gradientUnits="userSpaceOnUse">
<stop stop-color="#707991" stop-opacity="0.2"/>
<stop offset="1" stop-color="#707991" stop-opacity="0"/>
</linearGradient>
<linearGradient id="paint4_linear_1548_1899" x1="74" y1="67" x2="74" y2="79" gradientUnits="userSpaceOnUse">
<stop stop-color="#707991" stop-opacity="0.2"/>
<stop offset="1" stop-color="#707991" stop-opacity="0"/>
</linearGradient>
<linearGradient id="paint5_linear_1548_1899" x1="102" y1="67" x2="102" y2="79" gradientUnits="userSpaceOnUse">
<stop stop-color="#707991" stop-opacity="0.2"/>
<stop offset="1" stop-color="#707991" stop-opacity="0"/>
</linearGradient>
</defs>
</svg>
