<svg width="30" height="19" viewBox="0 0 30 19" fill="none" xmlns="http://www.w3.org/2000/svg">
<rect x="1" y="1" width="28" height="17" rx="3.5" fill="#F8FFEA"/>
<rect x="1" y="1" width="28" height="17" rx="3.5" stroke="#85C000"/>
<path d="M14.4961 13.2363H4.88672V12.2988H14.4961V13.2363ZM10.2012 12.7207H9.10547V9.66211H10.2012V12.7207ZM13.6172 5.87695H5.70117V4.96875H13.6172V5.87695ZM13.5879 10.0547H5.73633V9.16992H13.5879V10.0547ZM8.40234 9.31641H7.29492V5.68359H8.40234V9.31641ZM12.0176 9.31641H10.9219V5.68359H12.0176V9.31641ZM23.6883 14.4902H22.5633V3.99023H23.6883V14.4902ZM20.5711 5.12109C20.5711 6.19141 20.4051 7.18164 20.073 8.0918C19.7449 8.99805 19.2176 9.83398 18.491 10.5996C17.7645 11.3613 16.8191 12.0215 15.6551 12.5801L15.0574 11.6777C16.0691 11.2012 16.8992 10.6465 17.5477 10.0137C18.2 9.38086 18.6824 8.67383 18.9949 7.89258C19.3074 7.11133 19.4637 6.24805 19.4637 5.30273V5.12109H20.5711ZM19.9441 6.01172H15.5672V5.12109H19.9441V6.01172Z" fill="#85C000"/>
</svg>
