<svg width="30" height="19" viewBox="0 0 30 19" fill="none" xmlns="http://www.w3.org/2000/svg">
<rect x="1" y="1" width="28" height="17" rx="3.5" fill="#FFF3F4"/>
<rect x="1" y="1" width="28" height="17" rx="3.5" stroke="#F84883"/>
<path d="M10.2129 12.4688H9.12305V9.9082H10.2129V12.4688ZM9.67383 4.62891C10.416 4.62891 11.082 4.74609 11.6719 4.98047C12.2617 5.21094 12.7207 5.53906 13.0488 5.96484C13.3809 6.38672 13.5469 6.87305 13.5469 7.42383C13.5469 7.98242 13.3809 8.47266 13.0488 8.89453C12.7207 9.31641 12.2617 9.64453 11.6719 9.87891C11.082 10.1094 10.416 10.2246 9.67383 10.2246C8.92773 10.2246 8.25977 10.1094 7.66992 9.87891C7.08398 9.64453 6.625 9.31641 6.29297 8.89453C5.96094 8.47266 5.79492 7.98242 5.79492 7.42383C5.79492 6.87305 5.96094 6.38672 6.29297 5.96484C6.625 5.53906 7.08398 5.21094 7.66992 4.98047C8.25977 4.74609 8.92773 4.62891 9.67383 4.62891ZM9.67383 5.53125C9.13867 5.53125 8.6582 5.60938 8.23242 5.76562C7.80664 5.92188 7.47461 6.14453 7.23633 6.43359C7.00195 6.71875 6.88477 7.04883 6.88477 7.42383C6.88477 7.80273 7.00195 8.13672 7.23633 8.42578C7.47461 8.71484 7.80469 8.9375 8.22656 9.09375C8.64844 9.25 9.13086 9.33008 9.67383 9.33398C10.2168 9.33008 10.6973 9.25 11.1152 9.09375C11.5371 8.9375 11.8672 8.71484 12.1055 8.42578C12.3438 8.13672 12.4629 7.80273 12.4629 7.42383C12.4629 7.04883 12.3438 6.71875 12.1055 6.43359C11.8672 6.14453 11.5371 5.92188 11.1152 5.76562C10.6934 5.60938 10.2129 5.53125 9.67383 5.53125ZM14.4961 13.1836H4.88672V12.2637H14.4961V13.1836ZM23.2078 9.59766H22.1004V3.99023H23.2078V9.59766ZM24.7371 7.31836H22.8973V6.39258H24.7371V7.31836ZM16.2586 8.36133C17.4344 8.36133 18.3602 8.33984 19.0359 8.29688C19.7117 8.25 20.3797 8.1582 21.0398 8.02148L21.1746 8.92383C20.4832 9.06445 19.784 9.16016 19.077 9.21094C18.3738 9.25781 17.4344 9.28125 16.2586 9.28125H15.4207V8.36133H16.2586ZM20.0906 5.57227H16.5281V8.98242H15.4207V4.66992H20.0906V5.57227ZM17.5828 11.3438H22.1004V10.1426H23.2078V14.332H16.4754V10.1426H17.5828V11.3438ZM22.1004 13.4238V12.2227H17.5828V13.4238H22.1004Z" fill="#F84883"/>
</svg>
