<svg xmlns="http://www.w3.org/2000/svg" width="19" height="18" viewBox="0 0 19 18" fill="none">
  <path d="M10.25 5.625C10.25 6.03921 9.91421 6.375 9.5 6.375C9.08579 6.375 8.75 6.03921 8.75 5.625C8.75 5.21079 9.08579 4.875 9.5 4.875C9.91421 4.875 10.25 5.21079 10.25 5.625Z" fill="#F84883"/>
  <path d="M8.75 7.5V13.125H10.25V7.5H8.75Z" fill="#F84883"/>
  <path fill-rule="evenodd" clip-rule="evenodd" d="M9.5 15.75C13.2279 15.75 16.25 12.7279 16.25 9C16.25 5.27208 13.2279 2.25 9.5 2.25C5.77208 2.25 2.75 5.27208 2.75 9C2.75 12.7279 5.77208 15.75 9.5 15.75ZM9.5 14.625C12.6066 14.625 15.125 12.1066 15.125 9C15.125 5.8934 12.6066 3.375 9.5 3.375C6.3934 3.375 3.875 5.8934 3.875 9C3.875 12.1066 6.3934 14.625 9.5 14.625Z" fill="#F84883"/>
</svg>