<svg xmlns="http://www.w3.org/2000/svg" width="19" height="18" viewBox="0 0 19 18" fill="none">
<path d="M0.5 9C0.5 4.02945 4.52945 0 9.5 0C14.4705 0 18.5 4.02945 18.5 9C18.5 13.9705 14.4705 18 9.5 18C4.52945 18 0.5 13.9705 0.5 9Z" fill="#FFE812"/>
<path d="M9.5 4.125C6.18627 4.125 3.5 6.24308 3.5 8.85578C3.5 10.5449 4.62305 12.0271 6.31239 12.8641C6.22048 13.181 5.7218 14.9031 5.70192 15.0384C5.70192 15.0384 5.69 15.1401 5.75581 15.1788C5.82166 15.2176 5.89906 15.1875 5.89906 15.1875C6.08784 15.1611 8.08809 13.7561 8.43433 13.5121C8.78019 13.5611 9.13633 13.5866 9.5 13.5866C12.8137 13.5866 15.5 11.4686 15.5 8.85578C15.5 6.24308 12.8137 4.125 9.5 4.125Z" fill="#381F1F"/>
<path fill-rule="evenodd" clip-rule="evenodd" d="M6.18249 10.5073C5.99158 10.5073 5.83633 10.359 5.83633 10.1767V8.12027H5.29622C5.10891 8.12027 4.95654 7.96817 4.95654 7.78131C4.95654 7.59445 5.10894 7.44238 5.29622 7.44238H7.06877C7.25608 7.44238 7.40844 7.59445 7.40844 7.78131C7.40844 7.96817 7.25604 8.12027 7.06877 8.12027H6.52866V10.1767C6.52866 10.359 6.37341 10.5073 6.18249 10.5073ZM9.21778 10.5028C9.07344 10.5028 8.96304 10.4442 8.92974 10.3499L8.75833 9.90118L7.70278 9.90111L7.53129 10.3501C7.49811 10.4442 7.38774 10.5028 7.24341 10.5028C7.16747 10.5029 7.09239 10.4866 7.02336 10.455C6.92792 10.411 6.83619 10.2899 6.94131 9.96347L7.76931 7.78408C7.82766 7.61833 8.00481 7.44756 8.23029 7.44242C8.45638 7.44752 8.63353 7.61833 8.69199 7.78442L9.51966 9.96283C9.62499 10.2901 9.53327 10.4112 9.43783 10.4551C9.36876 10.4866 9.29372 10.5028 9.21778 10.5028ZM8.23056 8.30582L8.57631 9.28802H7.88481L8.23056 8.30582ZM10.0767 10.4568C9.89376 10.4568 9.74499 10.3144 9.74499 10.1395V7.78855C9.74499 7.59763 9.90351 7.44238 10.0984 7.44238C10.2932 7.44238 10.4517 7.59763 10.4517 7.78855V9.82217H11.1873C11.3702 9.82217 11.519 9.96456 11.519 10.1395C11.519 10.3144 11.3702 10.4568 11.1873 10.4568H10.0767ZM11.6537 10.1566C11.6537 10.3475 11.8089 10.5028 11.9998 10.5028C12.0916 10.5026 12.1796 10.4661 12.2446 10.4012C12.3095 10.3363 12.346 10.2483 12.3461 10.1564V9.4012L12.4662 9.28108L13.278 10.3567C13.3102 10.3996 13.3519 10.4344 13.3999 10.4584C13.4479 10.4822 13.5009 10.4945 13.5545 10.4943C13.6297 10.4945 13.7029 10.4699 13.7627 10.4244C13.7991 10.3972 13.8297 10.363 13.8528 10.3238C13.8758 10.2846 13.8909 10.2412 13.897 10.1962C13.9035 10.1511 13.901 10.1053 13.8895 10.0613C13.8781 10.0172 13.8581 9.97592 13.8306 9.9397L12.9785 8.81091L13.7674 8.02217C13.8216 7.96791 13.8488 7.89306 13.8437 7.81142C13.8388 7.7305 13.8026 7.65257 13.742 7.59197C13.6769 7.52702 13.5902 7.48975 13.5038 7.48975C13.4297 7.48975 13.3614 7.51708 13.3118 7.56677L12.346 8.53255V7.78855C12.346 7.59763 12.1907 7.44238 11.9998 7.44238C11.8089 7.44238 11.6537 7.59763 11.6537 7.78855V10.1566Z" fill="#FFE812"/>
</svg>