<svg width="200" height="201" viewBox="0 0 200 201" fill="none" xmlns="http://www.w3.org/2000/svg">
<rect width="200" height="200" transform="translate(0 0.489319)" fill="white"/>
<path d="M4.5 21.4893H57.5H106.5V56.4893H57.5H4.5L14.5 38.9893L4.5 21.4893Z" fill="#E6EFFF"/>
<path d="M186 37.4893H133H86V68.4893C86 70.6985 87.7909 72.4893 90 72.4893H133H186L176 54.9893L186 37.4893Z" fill="#E6EFFF"/>
<rect x="86" y="29.4893" width="8" height="8" rx="4" fill="#C3DAFF"/>
<path d="M103 25.4893C103 23.2802 104.791 21.4893 107 21.4893C109.209 21.4893 111 23.2802 111 25.4893V29.4893H107C104.791 29.4893 103 27.6985 103 25.4893Z" fill="#C3DAFF"/>
<rect x="103" y="21.4893" width="8" height="8" rx="4" fill="#E6EFFF"/>
<rect x="90" y="29.4893" width="21" height="8" fill="#C3DAFF"/>
<path d="M23.3867 31.5206H27.2188L30.0664 43.3799H30.2188L33.3242 31.5206H36.6523L39.7695 43.4151H39.9102L42.7578 31.5206H46.5898L41.75 48.4893H38.293L35.0586 37.2862H34.9297L31.6836 48.4893H28.2383L23.3867 31.5206ZM47.818 31.5206H59.2086V34.4268H51.3336V38.5518H58.6109V41.4464H51.3336V45.5831H59.232V48.4893H47.818V31.5206ZM61.3508 31.5206H64.8664V45.5831H72.1672V48.4893H61.3508V31.5206ZM73.8523 31.5206H77.368V45.5831H84.6688V48.4893H73.8523V31.5206Z" fill="#C3DAFF"/>
<path d="M108.773 53.4385C108.688 52.8135 108.477 52.2745 108.141 51.8214C107.812 51.3604 107.383 51.0089 106.852 50.7667C106.32 50.5245 105.73 50.4034 105.082 50.4034C104.199 50.4034 103.426 50.626 102.762 51.0714C102.105 51.5089 101.594 52.1495 101.227 52.9932C100.859 53.8292 100.676 54.8331 100.676 56.0049C100.676 57.2081 100.859 58.2276 101.227 59.0635C101.594 59.8917 102.105 60.5245 102.762 60.962C103.426 61.3917 104.188 61.6065 105.047 61.6065C105.695 61.6065 106.277 61.4893 106.793 61.2549C107.316 61.0206 107.75 60.6885 108.094 60.2589C108.438 59.8214 108.664 59.3018 108.773 58.7003L112.348 58.7354C112.215 59.7979 111.832 60.7862 111.199 61.7003C110.574 62.6143 109.73 63.3487 108.668 63.9034C107.605 64.4503 106.383 64.7237 105 64.7237C103.484 64.7237 102.129 64.3799 100.934 63.6924C99.7383 62.9971 98.8008 61.9932 98.1211 60.6807C97.4492 59.3604 97.1133 57.8018 97.1133 56.0049C97.1133 54.1924 97.4531 52.6299 98.1328 51.3174C98.8203 50.0049 99.7578 49.0049 100.945 48.3174C102.141 47.6299 103.492 47.2862 105 47.2862C106.305 47.2862 107.484 47.5284 108.539 48.0128C109.594 48.4971 110.449 49.2042 111.105 50.1339C111.77 51.0557 112.184 52.1573 112.348 53.4385H108.773ZM129.724 56.0049C129.724 57.8018 129.38 59.3604 128.693 60.6807C128.013 61.9932 127.072 62.9971 125.869 63.6924C124.673 64.3799 123.318 64.7237 121.802 64.7237C120.287 64.7237 118.927 64.3799 117.724 63.6924C116.529 62.9971 115.587 61.9893 114.9 60.669C114.22 59.3487 113.88 57.794 113.88 56.0049C113.88 54.1924 114.22 52.6299 114.9 51.3174C115.587 50.0049 116.529 49.0049 117.724 48.3174C118.927 47.6299 120.287 47.2862 121.802 47.2862C123.318 47.2862 124.673 47.6299 125.869 48.3174C127.072 49.0049 128.013 50.0049 128.693 51.3174C129.38 52.6299 129.724 54.1924 129.724 56.0049ZM126.162 56.0049C126.162 54.8096 125.982 53.794 125.623 52.9581C125.271 52.1221 124.767 51.4893 124.111 51.0596C123.462 50.6221 122.693 50.4034 121.802 50.4034C120.92 50.4034 120.15 50.6221 119.494 51.0596C118.845 51.4893 118.341 52.1221 117.982 52.9581C117.623 53.794 117.443 54.8096 117.443 56.0049C117.443 57.2003 117.623 58.2159 117.982 59.0518C118.341 59.8878 118.845 60.5245 119.494 60.962C120.15 61.3917 120.92 61.6065 121.802 61.6065C122.693 61.6065 123.462 61.3917 124.111 60.962C124.767 60.5245 125.271 59.8878 125.623 59.0518C125.982 58.2159 126.162 57.2003 126.162 56.0049ZM136.015 47.5206L140.737 59.0167H140.937L145.648 47.5206H149.995V64.4893H146.573V53.3682H146.433L142.003 64.4073H139.648L135.23 53.3448H135.089V64.4893H131.679V47.5206H136.015ZM152.266 47.5206H163.657V50.4268H155.782V54.5518H163.059V57.4464H155.782V61.5831H163.68V64.4893H152.266V47.5206Z" fill="#C3DAFF"/>
<rect x="78.7891" y="173.995" width="24.9166" height="3.83333" rx="1.91666" transform="rotate(1.25779 78.7891 173.995)" fill="#F84883"/>
<rect x="87.5737" y="155.04" width="3.83333" height="23" rx="1.91666" transform="rotate(-12.3387 87.5737 155.04)" fill="#F84883"/>
<path d="M76.7552 141.844C81.6477 137.239 81.2919 129.356 76.2545 124.91C73.5826 122.552 70.8216 119.986 68.623 117.65C67.2044 116.143 65.6652 114.354 64.1297 112.485C58.2277 105.3 47.4302 104.169 40.6591 110.541C34.3783 116.452 34.1916 126.426 40.7698 132.005C43.3865 134.224 46.1258 136.392 48.6146 138.06C53.4991 141.334 62.2039 143.456 67.766 144.549C71.023 145.19 74.338 144.119 76.7552 141.844Z" fill="#72A6FF"/>
<path d="M128.369 140.277C123.206 135.977 123.083 128.087 127.841 123.344C130.365 120.828 132.965 118.099 135.018 115.634C136.343 114.043 137.771 112.165 139.19 110.206C144.645 102.676 155.354 100.892 162.499 106.842C169.127 112.361 169.919 122.305 163.691 128.272C161.214 130.646 158.611 132.976 156.228 134.792C151.551 138.357 142.991 141.003 137.506 142.432C134.294 143.269 130.92 142.401 128.369 140.277Z" fill="#72A6FF"/>
<path d="M59.3468 97.8534C61.8157 78.1479 78.2695 63.1768 98.1199 62.5741C117.97 61.9713 135.302 75.9166 138.962 95.436L144.044 122.541C149.705 146.106 132.278 168.92 108.053 169.655L94.7014 170.061C70.4771 170.796 51.6977 149.082 55.9183 125.217L59.3468 97.8534Z" fill="#85B2FF"/>
<rect x="109.517" y="150.664" width="23" height="3.83333" rx="1.91666" transform="rotate(58.0756 109.517 150.664)" fill="#F84883"/>
<rect width="23" height="3.83333" rx="1.91666" transform="matrix(-0.424668 0.905349 0.905349 0.424668 126.337 149.533)" fill="#F84883"/>
<rect x="120.218" y="146.898" width="23" height="3.83333" rx="1.91666" transform="rotate(87.1666 120.218 146.898)" fill="#F84883"/>
<rect width="15.4364" height="15.3333" rx="7.66666" transform="matrix(0.957626 -0.288014 -0.288014 -0.957626 94.6924 131.559)" fill="#C4F752"/>
<rect width="23" height="15" rx="7.5" transform="matrix(-0.999539 0.0303486 0.0303486 0.999539 107.891 107.391)" fill="#EAFFBA"/>
<rect x="106.069" y="96.2738" width="6.51666" height="7.66666" rx="3.25833" transform="rotate(-1.73912 106.069 96.2738)" fill="black"/>
<rect x="80.0151" y="97.0648" width="6.51666" height="7.66666" rx="3.25833" transform="rotate(-1.73912 80.0151 97.0648)" fill="black"/>
<circle cx="85.5763" cy="99.2718" r="1" transform="rotate(-1.73912 85.5763 99.2718)" fill="white"/>
<circle cx="111.565" cy="98.4827" r="1" transform="rotate(-1.73912 111.565 98.4827)" fill="white"/>
</svg>
