<svg width="63" height="55" viewBox="0 0 63 55" fill="none" xmlns="http://www.w3.org/2000/svg">
<path fill-rule="evenodd" clip-rule="evenodd" d="M60 27.5C60 31.702 58.9719 35.684 57.1336 39.2459L62.6603 48.8184H48.9525C43.7859 52.6826 37.1882 55 30 55C13.4315 55 0 42.6878 0 27.5C0 12.3122 13.4315 0 30 0C46.5685 0 60 12.3122 60 27.5ZM18 21C16.3431 21 15 22.3431 15 24V32C15 33.6569 16.3431 35 18 35C19.6569 35 21 33.6569 21 32V24C21 22.3431 19.6569 21 18 21ZM27 27C27 25.3431 28.3431 24 30 24C31.6569 24 33 25.3431 33 27V29C33 30.6569 31.6569 32 30 32C28.3431 32 27 30.6569 27 29V27ZM42 22.5C40.3431 22.5 39 23.8431 39 25.5V30.5C39 32.1569 40.3431 33.5 42 33.5C43.6569 33.5 45 32.1569 45 30.5V25.5C45 23.8431 43.6569 22.5 42 22.5Z" fill="#3277ED"/>
</svg>
