<svg width="200" height="200" viewBox="0 0 200 200" fill="none" xmlns="http://www.w3.org/2000/svg">
<path d="M9.5 21H111.5V21.0309C111.664 21.0105 111.831 21 112 21C114.209 21 116 22.7909 116 25C116 27.2091 114.209 29 112 29C111.831 29 111.664 28.9895 111.5 28.9691V37H191L181 54.5L191 72H95C92.7909 72 91 70.2091 91 68V56H9.5L19.5 38.5L9.5 21Z" fill="#E6EFFF"/>
<path fill-rule="evenodd" clip-rule="evenodd" d="M116 25V37H95C92.7909 37 91 35.2091 91 33C91 30.7909 92.7909 29 95 29H112C114.209 29 116 27.2091 116 25Z" fill="#C3DAFF"/>
<path d="M78.8523 31.0312H82.368V45.0938H89.6687V48H78.8523V31.0312Z" fill="#C3DAFF"/>
<path d="M66.3508 31.0312H69.8664V45.0938H77.1672V48H66.3508V31.0312Z" fill="#C3DAFF"/>
<path d="M52.818 31.0312H64.2086V33.9375H56.3336V38.0625H63.6109V40.957H56.3336V45.0938H64.232V48H52.818V31.0312Z" fill="#C3DAFF"/>
<path d="M28.3867 31.0312H32.2188L35.0664 42.8906H35.2188L38.3242 31.0312H41.6523L44.7695 42.9258H44.9102L47.7578 31.0312H51.5898L46.75 48H43.293L40.0586 36.7969H39.9297L36.6836 48H33.2383L28.3867 31.0312Z" fill="#C3DAFF"/>
<path d="M157.266 47.0312H168.657V49.9375H160.782V54.0625H168.059V56.957H160.782V61.0938H168.68V64H157.266V47.0312Z" fill="#C3DAFF"/>
<path d="M141.015 47.0312L145.738 58.5273H145.937L150.648 47.0312H154.995V64H151.573V52.8789H151.433L147.003 63.918H144.648L140.23 52.8555H140.089V64H136.679V47.0312H141.015Z" fill="#C3DAFF"/>
<path d="M134.724 55.5156C134.724 57.3125 134.38 58.8711 133.693 60.1914C133.013 61.5039 132.072 62.5078 130.869 63.2031C129.673 63.8906 128.318 64.2344 126.802 64.2344C125.287 64.2344 123.927 63.8906 122.724 63.2031C121.529 62.5078 120.588 61.5 119.9 60.1797C119.22 58.8594 118.88 57.3047 118.88 55.5156C118.88 53.7031 119.22 52.1406 119.9 50.8281C120.588 49.5156 121.529 48.5156 122.724 47.8281C123.927 47.1406 125.287 46.7969 126.802 46.7969C128.318 46.7969 129.673 47.1406 130.869 47.8281C132.072 48.5156 133.013 49.5156 133.693 50.8281C134.38 52.1406 134.724 53.7031 134.724 55.5156ZM131.162 55.5156C131.162 54.3203 130.982 53.3047 130.623 52.4688C130.271 51.6328 129.767 51 129.111 50.5703C128.463 50.1328 127.693 49.9141 126.802 49.9141C125.92 49.9141 125.15 50.1328 124.494 50.5703C123.845 51 123.341 51.6328 122.982 52.4688C122.623 53.3047 122.443 54.3203 122.443 55.5156C122.443 56.7109 122.623 57.7266 122.982 58.5625C123.341 59.3984 123.845 60.0352 124.494 60.4727C125.15 60.9023 125.92 61.1172 126.802 61.1172C127.693 61.1172 128.463 60.9023 129.111 60.4727C129.767 60.0352 130.271 59.3984 130.623 58.5625C130.982 57.7266 131.162 56.7109 131.162 55.5156Z" fill="#C3DAFF"/>
<path d="M113.773 52.9492C113.688 52.3242 113.477 51.7852 113.141 51.332C112.812 50.8711 112.383 50.5195 111.852 50.2773C111.32 50.0352 110.73 49.9141 110.082 49.9141C109.199 49.9141 108.426 50.1367 107.762 50.582C107.105 51.0195 106.594 51.6602 106.227 52.5039C105.859 53.3398 105.676 54.3438 105.676 55.5156C105.676 56.7188 105.859 57.7383 106.227 58.5742C106.594 59.4023 107.105 60.0352 107.762 60.4727C108.426 60.9023 109.188 61.1172 110.047 61.1172C110.695 61.1172 111.277 61 111.793 60.7656C112.316 60.5312 112.75 60.1992 113.094 59.7695C113.438 59.332 113.664 58.8125 113.773 58.2109L117.348 58.2461C117.215 59.3086 116.832 60.2969 116.199 61.2109C115.574 62.125 114.73 62.8594 113.668 63.4141C112.605 63.9609 111.383 64.2344 110 64.2344C108.484 64.2344 107.129 63.8906 105.934 63.2031C104.738 62.5078 103.801 61.5039 103.121 60.1914C102.449 58.8711 102.113 57.3125 102.113 55.5156C102.113 53.7031 102.453 52.1406 103.133 50.8281C103.82 49.5156 104.758 48.5156 105.945 47.8281C107.141 47.1406 108.492 46.7969 110 46.7969C111.305 46.7969 112.484 47.0391 113.539 47.5234C114.594 48.0078 115.449 48.7148 116.105 49.6445C116.77 50.5664 117.184 51.668 117.348 52.9492H113.773Z" fill="#C3DAFF"/>
<path d="M78.7475 176.422C78.7707 175.364 79.6474 174.525 80.7057 174.548L101.784 175.011C102.842 175.034 103.681 175.911 103.658 176.969C103.635 178.027 102.758 178.866 101.7 178.843L80.6216 178.38C79.5633 178.357 78.7242 177.48 78.7475 176.422Z" fill="#F84883"/>
<path d="M87.984 157.423C87.7578 156.389 88.4127 155.367 89.4468 155.141C90.4809 154.915 91.5026 155.57 91.7288 156.604L95.8245 175.328C96.0507 176.362 95.3958 177.384 94.3617 177.61C93.3276 177.836 92.3059 177.181 92.0797 176.147L87.984 157.423Z" fill="#F84883"/>
<path d="M76.7556 142.354C81.6482 137.75 81.2924 129.867 76.255 125.421C73.583 123.063 70.822 120.497 68.6235 118.161C67.2049 116.653 65.6657 114.865 64.1302 112.996C58.2282 105.811 47.4307 104.679 40.6595 111.052C34.3788 116.963 34.1921 126.937 40.7702 132.515C43.387 134.734 46.1262 136.902 48.6151 138.57C53.4995 141.844 62.2044 143.966 67.7665 145.06C71.0235 145.7 74.3384 144.629 76.7556 142.354Z" fill="#72A6FF"/>
<path d="M126.37 140.787C121.207 136.488 121.084 128.598 125.842 123.855C128.366 121.339 130.966 118.61 133.019 116.145C134.343 114.554 135.771 112.675 137.191 110.716C142.646 103.187 153.355 101.403 160.5 107.353C167.128 112.872 167.919 122.816 161.692 128.783C159.214 131.157 156.612 133.487 154.229 135.303C149.552 138.867 140.992 141.513 135.506 142.942C132.294 143.779 128.92 142.911 126.37 140.787Z" fill="#72A6FF"/>
<path d="M59.3472 98.3641C61.8162 78.6585 78.2699 63.6874 98.1203 63.0847C117.971 62.482 135.302 76.4273 138.962 95.9467L144.045 123.052C149.705 146.617 132.278 169.43 108.054 170.166L94.7018 170.571C70.4775 171.307 51.6982 149.593 55.9188 125.728L59.3472 98.3641Z" fill="#85B2FF"/>
<path fill-rule="evenodd" clip-rule="evenodd" d="M120.313 149.324C120.261 148.266 119.361 147.452 118.304 147.504C117.247 147.556 116.432 148.456 116.484 149.513L117.175 163.466L110.531 152.802C109.971 151.903 108.789 151.629 107.89 152.188C106.992 152.748 106.717 153.93 107.277 154.829L117.412 171.096C117.972 171.995 119.154 172.269 120.053 171.709C120.35 171.525 120.578 171.272 120.731 170.984C120.777 170.913 120.818 170.838 120.855 170.76L128.994 153.407C129.444 152.449 129.031 151.307 128.073 150.858C127.115 150.408 125.973 150.821 125.524 151.779L120.92 161.594L120.313 149.324Z" fill="#F84883"/>
<path d="M92.4848 124.728C93.7043 128.783 98.0292 131.066 102.084 129.847C106.139 128.627 108.487 124.337 107.267 120.282C106.048 116.227 101.723 113.944 97.6678 115.163C93.613 116.383 91.2653 120.673 92.4848 124.728Z" fill="#C4F752"/>
<path d="M108.119 115.398C107.994 111.257 104.535 108.003 100.395 108.129L92.3987 108.372C88.2585 108.497 85.0041 111.955 85.1298 116.096C85.2555 120.236 88.7137 123.49 92.854 123.365L100.85 123.122C104.991 122.996 108.245 119.538 108.119 115.398Z" fill="#EAFFBA"/>
<path d="M106.169 100.041C106.114 98.2426 107.528 96.7402 109.327 96.6856C111.125 96.6309 112.628 98.0448 112.682 99.8435L112.717 100.993C112.772 102.792 111.358 104.294 109.559 104.349C107.761 104.403 106.258 102.989 106.204 101.191L106.169 100.041Z" fill="black"/>
<path d="M80.1145 100.832C80.0599 99.0336 81.4737 97.5312 83.2724 97.4766C85.0711 97.422 86.5735 98.8358 86.6282 100.635L86.6631 101.784C86.7177 103.583 85.3038 105.085 83.5051 105.14C81.7064 105.194 80.204 103.78 80.1494 101.982L80.1145 100.832Z" fill="black"/>
<path d="M86.5763 99.7521C86.5931 100.304 86.1591 100.765 85.6071 100.782C85.0551 100.799 84.594 100.365 84.5772 99.8128C84.5604 99.2608 84.9944 98.7997 85.5464 98.7829C86.0984 98.7661 86.5595 99.2001 86.5763 99.7521Z" fill="white"/>
<path d="M112.565 98.963C112.581 99.5151 112.147 99.9762 111.595 99.9929C111.043 100.01 110.582 99.5758 110.565 99.0237C110.549 98.4717 110.983 98.0106 111.535 97.9938C112.087 97.9771 112.548 98.411 112.565 98.963Z" fill="white"/>
</svg>
