<svg xmlns="http://www.w3.org/2000/svg" width="24" height="25" viewBox="0 0 24 25" fill="none">
<path fill-rule="evenodd" clip-rule="evenodd" d="M16.007 8.13891C14.9602 8.46887 13.5435 8.66548 11.9995 8.66548C10.4556 8.66548 9.03883 8.46887 7.99207 8.13891C7.47147 7.97481 7.01563 7.76947 6.67968 7.51911C6.63011 7.48216 6.58131 7.44277 6.53418 7.40094V10.5665H6.53737C6.53525 10.5862 6.53418 10.606 6.53418 10.6259C6.53418 11.5773 8.9811 12.3486 11.9995 12.3486C15.018 12.3486 17.4649 11.5773 17.4649 10.6259C17.4649 10.606 17.4638 10.5862 17.4617 10.5665H17.4649V7.40094C17.4177 7.44277 17.3689 7.48216 17.3194 7.51911C16.9834 7.76947 16.5276 7.97481 16.007 8.13891Z" fill="white"/>
<path fill-rule="evenodd" clip-rule="evenodd" d="M16.007 12.3737C14.9602 12.7037 13.5435 12.9003 11.9995 12.9003C10.4556 12.9003 9.03883 12.7037 7.99207 12.3737C7.47147 12.2096 7.01563 12.0043 6.67968 11.7539C6.63011 11.717 6.58131 11.6776 6.53418 11.6357V14.8013H6.53737C6.53525 14.821 6.53418 14.8408 6.53418 14.8607C6.53418 15.8121 8.9811 16.5835 11.9995 16.5835C15.018 16.5835 17.4649 15.8121 17.4649 14.8607C17.4649 14.8408 17.4638 14.821 17.4617 14.8013H17.4649V11.6357C17.4177 11.6776 17.3689 11.717 17.3194 11.7539C16.9834 12.0043 16.5276 12.2096 16.007 12.3737Z" fill="white"/>
<path fill-rule="evenodd" clip-rule="evenodd" d="M16.007 16.6509C14.9602 16.9809 13.5435 17.1775 11.9995 17.1775C10.4556 17.1775 9.03883 16.9809 7.99207 16.6509C7.47147 16.4868 7.01563 16.2815 6.67968 16.0311C6.63011 15.9942 6.58131 15.9548 6.53418 15.913V19.0785H6.53737C6.53525 19.0982 6.53418 19.118 6.53418 19.1379C6.53418 20.0894 8.9811 20.8607 11.9995 20.8607C15.018 20.8607 17.4649 20.0894 17.4649 19.1379C17.4649 19.118 17.4638 19.0982 17.4617 19.0785H17.4649V15.913C17.4177 15.9548 17.3689 15.9942 17.3194 16.0311C16.9834 16.2815 16.5276 16.4868 16.007 16.6509Z" fill="white"/>
<ellipse cx="11.9995" cy="6.34863" rx="5.46535" ry="1.72277" fill="white"/>
</svg>