<svg xmlns="http://www.w3.org/2000/svg" width="24" height="25" viewBox="0 0 24 25" fill="none">
<path d="M11.9998 13.7351C12.9857 13.7351 13.7848 12.9359 13.7848 11.9501C13.7848 10.9643 12.9857 10.1651 11.9998 10.1651C11.014 10.1651 10.2148 10.9643 10.2148 11.9501C10.2148 12.9359 11.014 13.7351 11.9998 13.7351Z" fill="white"/>
<path d="M7.00223 15.4991L6.60723 15.3981C3.67323 14.6571 1.99023 13.3971 1.99023 11.9461C1.99023 10.4941 3.67423 9.23507 6.60723 8.49407L7.00223 8.39407L7.11323 8.78507C7.40978 9.80876 7.78971 10.8064 8.24923 11.7681L8.33423 11.9461L8.24923 12.1241C7.78923 13.0871 7.40823 14.0851 7.11323 15.1091L7.00223 15.4991ZM6.42523 9.40407C4.19623 10.0321 2.82723 10.9901 2.82723 11.9461C2.82723 12.9001 4.19523 13.8591 6.42523 14.4861C6.69823 13.6181 7.02823 12.7691 7.41023 11.9461C7.02547 11.1217 6.6964 10.2725 6.42523 9.40407ZM16.9972 15.4991L16.8872 15.1071C16.5899 14.0832 16.2097 13.0852 15.7502 12.1231L15.6652 11.9461L15.7502 11.7671C16.2102 10.8061 16.5892 9.80707 16.8872 8.78307L16.9972 8.39307L17.3922 8.49307C20.3272 9.23407 22.0092 10.4931 22.0092 11.9461C22.0092 13.3981 20.3262 14.6571 17.3922 15.3981L16.9972 15.4991ZM16.5872 11.9461C16.9872 12.8121 17.3202 13.6641 17.5742 14.4861C19.8042 13.8591 21.1732 12.9001 21.1732 11.9461C21.1732 10.9901 19.8052 10.0331 17.5742 9.40407C17.3015 10.2722 16.9718 11.1214 16.5872 11.9461Z" fill="white"/>
<path d="M6.41927 9.40008L6.30927 9.01008C5.48327 6.10208 5.73327 4.01908 6.99627 3.29308C8.23127 2.57808 10.2183 3.42308 12.2993 5.55808L12.5833 5.85008L12.2993 6.14108C11.5601 6.90976 10.8846 7.73714 10.2793 8.61508L10.1663 8.77708L9.97027 8.79308C8.90585 8.87668 7.85002 9.04691 6.81327 9.30208L6.41927 9.40008ZM8.00127 3.87108C7.77727 3.87108 7.57927 3.92008 7.41227 4.01608C6.58427 4.49308 6.43827 6.15408 7.00827 8.39608C7.89927 8.19908 8.79827 8.05808 9.70427 7.97908C10.2288 7.23513 10.801 6.52598 11.4173 5.85608C10.1143 4.58908 8.88427 3.87108 8.00127 3.87108ZM15.9983 20.8551C14.8103 20.8551 13.2843 19.9591 11.7003 18.3331L11.4173 18.0421L11.7003 17.7521C12.4395 16.9822 13.1154 16.1538 13.7213 15.2751L13.8333 15.1151L14.0273 15.0961C15.0921 15.014 16.1483 14.8444 17.1853 14.5891L17.5803 14.4891L17.6913 14.8801C18.5133 17.7861 18.2643 19.8721 17.0033 20.5981C16.6971 20.7716 16.3502 20.8603 15.9983 20.8551ZM12.5833 18.0351C13.8853 19.3021 15.1163 20.0211 15.9983 20.0211C16.2233 20.0211 16.4213 19.9711 16.5873 19.8761C17.4163 19.3981 17.5633 17.7341 16.9913 15.4921C16.1013 15.6901 15.2013 15.8321 14.2933 15.9111C13.771 16.6562 13.1997 17.3658 12.5833 18.0351Z" fill="white"/>
<path d="M17.5795 9.40009L17.1845 9.30109C16.1476 9.04512 15.0914 8.87488 14.0265 8.79209L13.8325 8.77509L13.7205 8.61309C13.1155 7.73467 12.4395 6.90725 11.6995 6.13909L11.4165 5.84809L11.6995 5.55809C13.7795 3.42409 15.7655 2.57909 17.0025 3.29309C18.2645 4.02009 18.5155 6.10309 17.6905 9.01009L17.5795 9.40009ZM14.2925 7.97909C15.2465 8.06409 16.1505 8.20709 16.9905 8.39609C17.5615 6.15409 17.4155 4.49309 16.5865 4.01509C15.7625 3.53809 14.2115 4.26809 12.5825 5.85609C13.1985 6.52609 13.7705 7.23409 14.2925 7.97909ZM8.00052 20.8551C7.64865 20.8601 7.30178 20.7714 6.99552 20.5981C5.73252 19.8721 5.48252 17.7871 6.30752 14.8801L6.41552 14.4891L6.81052 14.5891C7.77452 14.8321 8.83652 15.0031 9.96852 15.0961L10.1625 15.1151L10.2755 15.2751C10.8795 16.1531 11.5555 16.9821 12.2955 17.7521L12.5795 18.0421L12.2955 18.3331C10.7125 19.9601 9.18652 20.8551 8.00052 20.8551ZM7.00752 15.4931C6.43752 17.7351 6.58352 19.3991 7.41152 19.8771C8.23652 20.3471 9.78252 19.6221 11.4165 18.0351C10.8005 17.365 10.2283 16.6558 9.70352 15.9121C8.79661 15.8319 7.89599 15.6919 7.00752 15.4931Z" fill="white"/>
<path d="M12.0002 16.0181C11.3132 16.0181 10.6082 15.9891 9.90016 15.9301L9.70416 15.9131L9.59116 15.7511C9.19191 15.177 8.81626 14.5868 8.46516 13.9821C8.11665 13.3757 7.79272 12.7556 7.49416 12.1231L7.41016 11.9461L7.49416 11.7671C7.79316 11.1351 8.11616 10.5151 8.46516 9.9091C8.81216 9.3131 9.19116 8.7171 9.59116 8.1391L9.70416 7.9791L9.90016 7.9611C11.297 7.8441 12.7013 7.8441 14.0982 7.9611L14.2922 7.9801L14.4052 8.1401C15.205 9.28885 15.9074 10.5024 16.5052 11.7681L16.5882 11.9471L16.5052 12.1241C15.909 13.3907 15.2065 14.6044 14.4052 15.7521L14.2922 15.9141L14.0982 15.9311C13.3922 15.9881 12.6862 16.0181 12.0002 16.0181ZM10.1662 15.1141C11.4012 15.2071 12.5992 15.2071 13.8332 15.1141C14.522 14.1053 15.1344 13.0464 15.6652 11.9461C15.1363 10.8449 14.5238 9.78576 13.8332 8.7781C12.6126 8.6841 11.3867 8.6841 10.1662 8.7781C9.4749 9.7854 8.86241 10.8445 8.33416 11.9461C8.86603 13.0457 9.47837 14.1046 10.1662 15.1141Z" fill="white"/>
</svg>