<svg xmlns="http://www.w3.org/2000/svg" width="24" height="25" viewBox="0 0 24 25" fill="none">
<path d="M21.991 12.5226C22.0255 10.3921 21.5455 7.85855 20.5455 4.88605L19.7615 2.55505L18.6965 4.77155C18.6395 4.89005 18.5745 5.00605 18.5065 5.12055C16.757 3.61855 14.487 2.70505 12 2.70505C6.477 2.70505 2 7.18205 2 12.7051C2 18.2281 6.477 22.7051 12 22.7051C17.523 22.7051 22 18.2281 22 12.7051C22 12.6436 21.992 12.5841 21.991 12.5226Z" fill="#8BC34A"/>
<path d="M19.6927 16.9841C18.1312 19.1351 15.3672 19.2506 12.7657 19.2051H9.37516H8.40616C10.6202 18.4086 11.9377 18.2191 13.2832 17.5051C15.8172 16.1726 18.3222 13.2571 18.8437 10.2241C17.8787 13.1421 14.9542 15.6491 12.2892 16.6686C10.4632 17.3651 7.16516 18.0411 7.16516 18.0411L7.03166 17.9686C4.78666 16.8391 4.71866 11.8121 8.80016 10.1891C10.5872 9.47758 12.2967 9.86858 14.2272 9.39258C16.2882 8.88658 18.6722 7.28858 19.6422 5.20508C20.7282 8.53858 22.0352 13.7581 19.6927 16.9841ZM7.83416 19.9276C7.69316 20.1026 7.47766 20.2051 7.25266 20.2051C6.84116 20.2051 6.50516 19.8666 6.50516 19.4551C6.50516 19.0436 6.84366 18.7051 7.25266 18.7051C7.42316 18.7051 7.59116 18.7641 7.72316 18.8731C8.04316 19.1326 8.09316 19.6076 7.83416 19.9276Z" fill="white"/>
</svg>